#N canvas 435 30 779 703 12;
#X obj 261 131 bng 15 250 50 0 empty empty empty 17 7 0 10 #fcfcfc
#000000 #000000;
#X obj 262 220 sqrt~;
#X obj 261 190 line~;
#X obj 263 269 cos~;
#X obj 262 106 inlet;
#X obj 263 244 *~ 40;
#X msg 261 155 0 \, 1 200 0 \, 0.3 300 700;
#X floatatom 352 229 5 0 0 0 - - - 0;
#X obj 265 401 outlet~;
#X obj 262 290 lop~ 1000;
#X obj 264 312 *~ 0.6;
#X connect 0 0 6 0;
#X connect 1 0 5 0;
#X connect 2 0 1 0;
#X connect 3 0 9 0;
#X connect 4 0 0 0;
#X connect 5 0 3 0;
#X connect 6 0 2 0;
#X connect 9 0 10 0;
#X connect 10 0 8 0;
