#N canvas 327 24 779 709 12;
#N canvas 0 22 450 278 (subpatch) 0;
#X array \$0-noise-feed-mod 100 float 5;
#A 0 0 0 0 0 0 0 0 0 0 0 0 0 0 0 0 0 0.0142858 0.0142858 0 0 0 0 0
0 0 0 0 0 0 0 0 0 0 0 0 0 0 0 0 0 0 0 0 0 0 0 0 0 0 0 0 0 0 0 0 0 0
0 0 0 0 0 0 0 0 0 0 0 0 0 0 0 0 0 0 0 0 0 0 0 0 0 0 0 0 0 0 0 0 0 0
0 0 0 0 0 0 0 0 0;
#X coords 0 1 99 -1 200 140 1 0 0;
#X restore 16 18 graph;
#X obj 363 183 noise~;
#X obj 126 521 tabwrite~ \$0-noise-feed-mod;
#X obj 121 426 metro 100;
#X obj 119 407 tgl 15 0 empty empty empty 17 7 0 10 #fcfcfc #000000
#000000 0 1;
#X obj 398 368 *~;
#X obj 645 348 hsl 128 15 0 1 0 0 empty empty empty -2 -8 0 10 #fcfcfc
#000000 #000000 0 1;
#X obj 414 327 delread~ \$0-feed-mod-noise 100;
#X obj 411 230 delwrite~ \$0-feed-mod-noise 1000;
#X floatatom 416 297 5 0 0 0 - - - 0;
#X obj 419 276 hsl 128 15 0 127 0 0 empty empty empty -2 -8 0 10 #fcfcfc
#000000 #000000 0 1;
#X floatatom 494 399 5 0 0 0 - - - 0;
#X obj 286 291 vline~;
#X obj 353 337 vcf~;
#X floatatom 368 290 5 0 0 0 - - - 0;
#X obj 278 110 bng 15 250 50 0 empty empty empty 17 7 0 10 #fcfcfc
#000000 #000000;
#X obj 208 368 vline~;
#X obj 293 441 *~;
#X obj 322 255 lop~ 1900;
#X obj 370 531 expr~ tanh($v1);
#X msg 126 327 1 1 \, 0 50 20;
#X msg 102 255 2000 2 \, 1000 100 20;
#X obj 641 45 inlet;
#X obj 278 49 inlet;
#X obj 509 54 inlet;
#X obj 372 577 outlet~;
#X obj 365 211 *~ 0.6;
#X obj 372 437 *~ 0.35;
#X connect 1 0 26 0;
#X connect 3 0 2 0;
#X connect 4 0 3 0;
#X connect 5 0 8 0;
#X connect 5 0 13 0;
#X connect 6 0 5 1;
#X connect 6 0 11 0;
#X connect 7 0 5 0;
#X connect 9 0 7 0;
#X connect 10 0 9 0;
#X connect 12 0 13 1;
#X connect 13 0 17 0;
#X connect 14 0 13 2;
#X connect 15 0 21 0;
#X connect 15 0 20 0;
#X connect 16 0 17 1;
#X connect 17 0 27 0;
#X connect 18 0 17 0;
#X connect 19 0 2 0;
#X connect 19 0 25 0;
#X connect 20 0 16 0;
#X connect 21 0 12 0;
#X connect 22 0 6 0;
#X connect 23 0 15 0;
#X connect 24 0 10 0;
#X connect 26 0 8 0;
#X connect 26 0 18 0;
#X connect 27 0 19 0;
