#N canvas 90 69 1133 663 12;
#N canvas 0 22 450 278 (subpatch) 0;
#X array s1 16 float 3;
#A 0 85.7143 908.571 171.429 900 1140 497.143 882.857 891.429 85.7143
908.571 248.571 908.571 1174.29 908.571 908.571 908.571;
#X coords 0 0 16 1200 200 140 1 0 0;
#X restore 62 46 graph;
#X floatatom 600 281 5 0 0 0 - - - 0;
#X obj 601 54 tgl 15 0 empty empty empty 17 7 0 10 #fcfcfc #000000
#000000 0 1;
#X obj 601 100 bng 15 250 50 0 empty empty empty 17 7 0 10 #fcfcfc
#000000 #000000;
#X obj 600 249 array get s1;
#X obj 601 123 f;
#X obj 646 125 + 1;
#X floatatom 600 171 5 0 0 0 - - - 0;
#X obj 601 146 % 16;
#X obj 601 206 hradio 16 1 1 16 empty empty empty -1 -8 0 10 #faff00
#000000 #000000 7;
#N canvas 533 118 631 504 km1 1;
#X obj 225 174 vline~;
#X obj 146 263 *~;
#X obj 85 208 vcf~;
#X floatatom 162 184 5 0 0 0 - - - 0;
#X obj 193 59 bng 15 250 50 0 empty empty empty 17 7 0 10 #fcfcfc #000000
#000000;
#X floatatom 72 147 5 0 0 0 - - - 0;
#X obj 72 112 line;
#X obj 245 25 inlet;
#X obj 165 24 inlet;
#X obj 146 306 outlet~;
#X obj 317 33 inlet;
#X obj 125 182 osc~;
#X msg 248 105 1 2 \, 0.8 65 4 \, 0 260 70;
#X msg 73 82 100 0 0 \, 50 150 10;
#X obj 125 154 vline~;
#X msg 129 120 60 0 0 \, 30 10 40;
#X connect 0 0 1 1;
#X connect 1 0 9 0;
#X connect 2 0 1 0;
#X connect 2 1 1 0;
#X connect 3 0 2 2;
#X connect 4 0 13 0;
#X connect 4 0 12 0;
#X connect 4 0 15 0;
#X connect 5 0 2 1;
#X connect 6 0 5 0;
#X connect 7 0 4 0;
#X connect 10 0 3 0;
#X connect 11 0 1 0;
#X connect 12 0 0 0;
#X connect 13 0 6 0;
#X connect 14 0 11 0;
#X connect 15 0 14 0;
#X restore 395 463 pd km1;
#X obj 637 589 dac~;
#X floatatom 356 464 5 0 0 0 - - - 0;
#X floatatom 443 463 5 0 0 0 - - - 0;
#X floatatom 602 356 5 0 0 0 - - - 0;
#X obj 600 329 int;
#X obj 600 305 / 120;
#X obj 546 387 select 0 1 2 3 4 5 6 7 8 9 10 11 12;
#N canvas 201 228 450 300 hh1 1;
#X obj 129 79 noise~;
#X obj 243 116 vline~;
#X obj 211 77 bng 15 250 50 0 empty empty empty 17 7 0 10 #fcfcfc #000000
#000000;
#X obj 131 111 hip~ 10000;
#X obj 212 46 inlet;
#X obj 206 156 *~;
#X obj 207 181 outlet~;
#X msg 243 92 0.2 1 \, 0 10 10;
#X connect 0 0 3 0;
#X connect 1 0 5 1;
#X connect 2 0 7 0;
#X connect 3 0 5 0;
#X connect 4 0 2 0;
#X connect 5 0 6 0;
#X connect 7 0 1 0;
#X restore 714 479 pd hh1;
#X obj 644 541 *~;
#X obj 884 389 vsl 15 128 0 127 0 0 empty empty empty 0 -9 0 10 #fcfcfc
#000000 #000000 0 1;
#N canvas 58 258 450 300 km2 0;
#X obj 116 148 osc~;
#X obj 115 118 vline~;
#X obj 116 182 *~;
#X msg 243 78 1 4 \, 0.9 65 4 \, 0 660 70;
#X obj 243 116 vline~;
#X obj 225 31 inlet;
#X obj 224 53 bng 15 250 50 0 empty empty empty 17 7 0 10 #fcfcfc #000000
#000000;
#X obj 116 227 outlet~;
#X obj 236 150 pow~ 1;
#X msg 115 79 250 0 \, 50 10 0;
#X connect 0 0 2 0;
#X connect 1 0 0 0;
#X connect 2 0 7 0;
#X connect 3 0 4 0;
#X connect 4 0 8 0;
#X connect 5 0 6 0;
#X connect 6 0 9 0;
#X connect 6 0 3 0;
#X connect 8 0 2 1;
#X connect 9 0 1 0;
#X restore 540 467 pd km2;
#N canvas 236 281 450 300 sn1 1;
#X obj 191 70 bng 15 250 50 0 empty empty empty 17 7 0 10 #fcfcfc #000000
#000000;
#X obj 193 42 inlet;
#X obj 118 120 noise~;
#X obj 280 138 vline~;
#X obj 171 185 *~;
#X obj 163 234 outlet~;
#X msg 280 114 0.5 0 \, 0 100;
#X obj 229 176 pow~ 2;
#X connect 0 0 6 0;
#X connect 1 0 0 0;
#X connect 2 0 4 0;
#X connect 3 0 7 0;
#X connect 4 0 5 0;
#X connect 6 0 3 0;
#X connect 7 0 4 1;
#X restore 633 465 pd sn1;
#X obj 601 75 metro 130;
#X floatatom 795 329 5 0 0 0 - - - 0;
#X obj 792 272 random 2;
#X obj 793 299 * 1;
#X obj 794 360 select 1;
#X connect 1 0 16 0;
#X connect 2 0 23 0;
#X connect 3 0 5 0;
#X connect 3 0 25 0;
#X connect 4 0 1 0;
#X connect 5 0 6 0;
#X connect 5 0 8 0;
#X connect 6 0 5 1;
#X connect 7 0 9 0;
#X connect 8 0 7 0;
#X connect 9 0 4 0;
#X connect 10 0 19 0;
#X connect 12 0 10 0;
#X connect 13 0 10 2;
#X connect 14 0 17 0;
#X connect 15 0 14 0;
#X connect 16 0 15 0;
#X connect 17 0 10 1;
#X connect 17 1 10 1;
#X connect 17 2 21 0;
#X connect 17 3 21 0;
#X connect 17 4 21 0;
#X connect 17 5 21 0;
#X connect 17 9 22 0;
#X connect 18 0 19 0;
#X connect 19 0 11 0;
#X connect 19 0 11 1;
#X connect 20 0 19 1;
#X connect 21 0 19 0;
#X connect 22 0 19 0;
#X connect 23 0 3 0;
#X connect 24 0 27 0;
#X connect 25 0 26 0;
#X connect 26 0 24 0;
#X connect 27 0 18 0;
