#N canvas 402 23 878 710 12;
#X obj 209 42 openpanel;
#X obj 209 23 bng 15 250 50 0 empty empty empty 17 7 0 10 #fcfcfc #000000
#000000;
#N canvas 0 22 450 278 (subpatch) 0;
#X array grain_array 1.48397e+06 float 2;
#X coords 0 1 1.48397e+06 -1 200 140 1;
#X restore 479 28 graph;
#X obj 209 87 soundfiler;
#X floatatom 210 114 16 0 0 0 - - - 0;
#X msg 209 65 read -resize \$1 grain_array;
#X obj 117 421 line~;
#X obj 117 445 tabread4~ grain_array;
#X obj 361 500 *~ 0.5;
#X obj 362 528 dac~;
#X obj 421 444 tabplay~ grain_array;
#X msg 421 421 200000 500400;
#X obj 117 377 pack f f f;
#X msg 117 399 \$1 \, \$2 \$3;
#X obj 116 298 t f f;
#X obj 156 333 +;
#X floatatom 115 241 5 0 0 0 - - - 0;
#X floatatom 232 306 5 0 0 0 - - - 0;
#X obj 115 264 f;
#X obj 63 266 bng 15 250 50 0 empty empty empty 17 7 0 10 #fcfcfc #000000
#000000;
#X obj 95 223 hsl 128 15 0 1.48397e+06 0 0 empty empty empty -2 -8
0 10 #fcfcfc #000000 #000000 0 1;
#X obj 231 332 * 44.1;
#X obj 442 276 snapshot~;
#X connect 0 0 5 0;
#X connect 1 0 0 0;
#X connect 3 0 4 0;
#X connect 5 0 3 0;
#X connect 6 0 7 0;
#X connect 7 0 8 0;
#X connect 8 0 9 0;
#X connect 8 0 9 1;
#X connect 10 0 8 0;
#X connect 11 0 10 0;
#X connect 12 0 13 0;
#X connect 13 0 6 0;
#X connect 14 0 12 0;
#X connect 14 1 15 0;
#X connect 15 0 12 1;
#X connect 16 0 18 0;
#X connect 17 0 12 2;
#X connect 17 0 21 0;
#X connect 18 0 14 0;
#X connect 19 0 18 0;
#X connect 20 0 16 0;
#X connect 21 0 15 1;
