#N canvas 77 188 450 300 12;
#X obj 129 79 noise~;
#X obj 243 116 vline~;
#X obj 211 77 bng 15 250 50 0 empty empty empty 17 7 0 10 #fcfcfc #000000
#000000;
#X obj 212 46 inlet;
#X obj 206 156 *~;
#X obj 207 181 outlet~;
#X obj 131 111 hip~ 4000;
#X msg 243 92 0.3 5 \, 0 10 10;
#X connect 0 0 6 0;
#X connect 1 0 4 1;
#X connect 2 0 7 0;
#X connect 3 0 2 0;
#X connect 4 0 5 0;
#X connect 6 0 4 0;
#X connect 7 0 1 0;
