#N canvas 68 97 450 300 12;
#X obj 129 79 noise~;
#X obj 252 112 vline~;
#X obj 178 43 bng 15 250 50 0 empty empty empty 17 7 0 10 #fcfcfc #000000
#000000;
#X obj 179 12 inlet;
#X obj 206 156 *~;
#X obj 207 181 outlet~;
#X obj 321 6 inlet;
#X floatatom 321 49 5 0 0 0 - - - 0;
#X obj 321 29 f;
#X obj 253 135 pow~;
#X obj 131 111 hip~ 5000;
#X msg 252 90 0.2 20 \, 0 10 \$1;
#X obj 252 69 pack f;
#X connect 0 0 10 0;
#X connect 1 0 9 0;
#X connect 2 0 12 0;
#X connect 3 0 2 0;
#X connect 4 0 5 0;
#X connect 6 0 8 0;
#X connect 7 0 12 0;
#X connect 8 0 7 0;
#X connect 9 0 4 1;
#X connect 10 0 4 0;
#X connect 11 0 1 0;
#X connect 12 0 11 0;
