#N canvas 68 97 450 300 12;
#X obj 126 110 noise~;
#X obj 249 143 vline~;
#X obj 178 43 bng 15 250 50 0 empty empty empty 17 7 0 10 #fcfcfc #000000
#000000;
#X obj 179 12 inlet;
#X obj 203 187 *~;
#X obj 204 212 outlet~;
#X obj 321 6 inlet;
#X floatatom 319 50 5 0 0 0 - - - 0;
#X obj 321 29 f;
#X obj 128 142 hip~ 5000;
#X floatatom 249 93 5 0 3000 0 - - - 0;
#X msg 249 121 0.4 20 \, 0 \$1 \$1;
#X obj 292 76 * 2;
#X connect 0 0 9 0;
#X connect 1 0 4 1;
#X connect 2 0 10 0;
#X connect 3 0 2 0;
#X connect 4 0 5 0;
#X connect 6 0 8 0;
#X connect 7 0 12 0;
#X connect 8 0 7 0;
#X connect 9 0 4 0;
#X connect 10 0 11 0;
#X connect 11 0 1 0;
#X connect 12 0 10 0;
