#N canvas 108 38 1133 663 12;
#N canvas 0 22 450 278 (subpatch) 0;
#X array s1 16 float 3;
#A 0 128.571 128.571 1011.43 128.571 128.571 128.571 1020 685.715 128.571
128.573 1020 668.572 111.429 111.429 1011.43 1011.43;
#X coords 0 0 16 1200 200 140 1 0 0;
#X restore 62 46 graph;
#X floatatom 600 281 5 0 0 0 - - - 0;
#X obj 601 54 tgl 15 0 empty empty empty 17 7 0 10 #fcfcfc #000000
#000000 0 1;
#X obj 601 100 bng 15 250 50 0 empty empty empty 17 7 0 10 #fcfcfc
#000000 #000000;
#X obj 600 249 array get s1;
#X obj 601 123 f;
#X obj 646 125 + 1;
#X floatatom 600 171 5 0 0 0 - - - 0;
#X obj 601 146 % 16;
#X obj 601 206 hradio 16 1 1 16 empty empty empty -1 -8 0 10 #faff00
#000000 #000000 5;
#N canvas 484 102 631 504 km1 1;
#X obj 189 141 vline~;
#X floatatom 128 117 5 0 0 0 - - - 0;
#X obj 146 263 *~;
#X obj 85 208 vcf~;
#X floatatom 133 197 5 0 0 0 - - - 0;
#X obj 193 59 bng 15 250 50 0 empty empty empty 17 7 0 10 #fcfcfc #000000
#000000;
#X floatatom 72 147 5 0 0 0 - - - 0;
#X obj 72 112 line;
#X obj 128 147 phasor~;
#X obj 245 25 inlet;
#X obj 165 24 inlet;
#X obj 146 306 outlet~;
#X msg 73 82 40 0 \, 10 350 100;
#X msg 226 105 0.9 0 0 \, 0.3 100 0 \, 0 100 100;
#X obj 317 33 inlet;
#X connect 0 0 2 1;
#X connect 1 0 8 0;
#X connect 2 0 11 0;
#X connect 3 0 2 0;
#X connect 3 1 2 0;
#X connect 4 0 3 2;
#X connect 5 0 12 0;
#X connect 5 0 13 0;
#X connect 6 0 3 1;
#X connect 7 0 6 0;
#X connect 8 0 3 0;
#X connect 9 0 5 0;
#X connect 10 0 1 0;
#X connect 12 0 7 0;
#X connect 13 0 0 0;
#X connect 14 0 4 0;
#X restore 395 463 pd km1;
#X obj 637 589 dac~;
#X obj 644 541 +~;
#X floatatom 356 463 5 0 0 0 - - - 0;
#X floatatom 443 463 5 0 0 0 - - - 0;
#X floatatom 602 356 5 0 0 0 - - - 0;
#X obj 600 329 int;
#X obj 600 305 / 120;
#X obj 546 387 select 0 1 2 3 4 5 6 7 8 9 10 11 12;
#X obj 601 75 metro 200;
#N canvas 10 229 450 300 hh1 1;
#X obj 129 79 noise~;
#X obj 243 116 vline~;
#X obj 211 77 bng 15 250 50 0 empty empty empty 17 7 0 10 #fcfcfc #000000
#000000;
#X obj 131 111 hip~ 10000;
#X msg 243 92 0.8 1 \, 0 10 10;
#X obj 212 46 inlet;
#X obj 206 156 *~;
#X obj 207 181 outlet~;
#X connect 0 0 3 0;
#X connect 1 0 6 1;
#X connect 2 0 4 0;
#X connect 3 0 6 0;
#X connect 4 0 1 0;
#X connect 5 0 2 0;
#X connect 6 0 7 0;
#X restore 705 435 pd hh1;
#X connect 1 0 17 0;
#X connect 2 0 19 0;
#X connect 3 0 5 0;
#X connect 4 0 1 0;
#X connect 5 0 6 0;
#X connect 5 0 8 0;
#X connect 6 0 5 1;
#X connect 7 0 9 0;
#X connect 8 0 7 0;
#X connect 9 0 4 0;
#X connect 10 0 12 0;
#X connect 12 0 11 0;
#X connect 12 0 11 1;
#X connect 13 0 10 0;
#X connect 14 0 10 2;
#X connect 15 0 18 0;
#X connect 16 0 15 0;
#X connect 17 0 16 0;
#X connect 18 0 10 1;
#X connect 18 1 10 1;
#X connect 18 5 20 0;
#X connect 18 7 10 1;
#X connect 18 7 20 0;
#X connect 18 8 20 0;
#X connect 18 9 20 0;
#X connect 18 10 20 0;
#X connect 18 11 20 0;
#X connect 18 12 20 0;
#X connect 19 0 3 0;
#X connect 20 0 12 0;
