#N canvas 519 139 471 537 12;
#X obj 543 299 vline~;
#X floatatom 482 280 5 0 0 0 - - - 0;
#X obj 439 366 vcf~;
#X floatatom 487 358 5 0 0 0 - - - 0;
#X obj 547 217 bng 15 250 50 0 empty empty empty 17 7 0 10 #fcfcfc
#000000 #000000;
#X floatatom 426 305 5 0 0 0 - - - 0;
#X obj 426 270 line;
#X obj 599 183 inlet;
#X obj 519 182 inlet;
#X obj 500 464 outlet~;
#X obj 482 305 osc~;
#X msg 427 240 200 200 \, 100 100 300;
#X obj 500 421 *~;
#X msg 580 263 0.5 0.1 0 \, 0.2 10 500 \, 0 100 100;
#X connect 0 0 12 1;
#X connect 1 0 10 0;
#X connect 2 0 12 0;
#X connect 2 1 12 0;
#X connect 3 0 2 2;
#X connect 4 0 11 0;
#X connect 4 0 13 0;
#X connect 5 0 2 1;
#X connect 6 0 5 0;
#X connect 7 0 4 0;
#X connect 8 0 1 0;
#X connect 10 0 2 0;
#X connect 11 0 6 0;
#X connect 12 0 9 0;
#X connect 13 0 0 0;
