#N canvas 110 143 450 300 12;
#X obj 117 213 osc~;
#X obj 116 183 vline~;
#X obj 117 247 *~;
#X obj 244 181 vline~;
#X obj 225 31 inlet;
#X obj 224 53 bng 15 250 50 0 empty empty empty 17 7 0 10 #fcfcfc #000000
#000000;
#X obj 117 292 outlet~;
#X obj 237 215 pow~ 1;
#X msg 244 143 1 2 \, 0.4 20 100 \, 0 660 70;
#X obj 117 18 inlet;
#X obj 117 42 f;
#X obj 117 66 pack f;
#X msg 116 144 \$1 0 \, 50 100 100;
#X obj 116 93 / 127;
#X obj 116 117 * 1000;
#X connect 0 0 2 0;
#X connect 1 0 0 0;
#X connect 2 0 6 0;
#X connect 3 0 7 0;
#X connect 4 0 5 0;
#X connect 5 0 8 0;
#X connect 5 0 11 0;
#X connect 7 0 2 1;
#X connect 8 0 3 0;
#X connect 9 0 10 0;
#X connect 10 0 11 0;
#X connect 11 0 13 0;
#X connect 12 0 1 0;
#X connect 13 0 14 0;
#X connect 14 0 12 0;
