#N canvas 554 142 279 452 12;
#X obj 242 313 osc~;
#X floatatom 242 294 5 0 0 0 - - - 0;
#X obj 295 322 vline~;
#X obj 242 339 *~;
#X obj 247 153 mtof;
#X obj 361 579 expr~ if($v1 > 2 \, 2 \, $v1);
#X obj 361 603 expr~ if($v1 < -2 \, -2 \, $v1);
#X obj 655 43 vsl 15 128 1 2000 0 0 empty empty empty 0 -9 0 10 #fcfcfc
#000000 #000000 0 1;
#X obj 685 43 vsl 15 128 0 1 0 0 empty empty empty 0 -9 0 10 #fcfcfc
#000000 #000000 0 1;
#X obj 712 43 vsl 15 128 0 10000 0 0 empty empty empty 0 -9 0 10 #fcfcfc
#000000 #000000 0 1;
#X obj 636 195 s $a;
#X obj 717 195 s $s;
#X obj 677 195 s $d;
#X obj 739 43 vsl 15 128 0 5000 0 0 empty empty empty 0 -9 0 10 #fcfcfc
#000000 #000000 0 1;
#X obj 760 194 s $r;
#X obj 356 173 r $a;
#X obj 393 173 r $d;
#X obj 429 173 r $s;
#X obj 368 199 -;
#X obj 464 172 r $r;
#X obj 373 535 *~ 0.5;
#X obj 159 427 vsl 15 128 0 4000 0 0 empty empty empty 0 -9 0 10 #fcfcfc
#000000 #000000 0 1;
#X obj 358 561 vcf~ 1;
#X obj 266 41 inlet;
#X obj 500 41 inlet;
#X obj 502 77 s $filter_poly;
#X obj 140 405 r $filter_poly;
#X obj 368 724 outlet~;
#X obj 330 241 pack f f f f;
#X obj 623 14 inlet;
#X obj 667 14 inlet;
#X obj 736 12 inlet;
#X msg 302 267 1 \$1 \, \$2 10 \$1 \, 0 50 \$4;
#X connect 0 0 3 0;
#X connect 1 0 0 0;
#X connect 2 0 3 1;
#X connect 3 0 20 0;
#X connect 4 0 1 0;
#X connect 4 0 28 0;
#X connect 5 0 6 0;
#X connect 6 0 27 0;
#X connect 7 0 10 0;
#X connect 8 0 12 0;
#X connect 9 0 11 0;
#X connect 13 0 14 0;
#X connect 15 0 28 0;
#X connect 16 0 18 1;
#X connect 17 0 28 2;
#X connect 18 0 28 1;
#X connect 19 0 28 3;
#X connect 20 0 22 0;
#X connect 21 0 22 1;
#X connect 22 0 5 0;
#X connect 23 0 4 0;
#X connect 24 0 25 0;
#X connect 26 0 21 0;
#X connect 28 0 32 0;
#X connect 29 0 7 0;
#X connect 30 0 8 0;
#X connect 31 0 13 0;
#X connect 32 0 2 0;
