#N canvas 84 44 509 653 12;
#X obj 242 332 osc~;
#X floatatom 242 294 5 0 0 0 - - - 0;
#X obj 295 322 vline~;
#X obj 240 388 *~;
#X obj 247 153 mtof;
#X obj 361 579 expr~ if($v1 > 2 \, 2 \, $v1);
#X obj 361 603 expr~ if($v1 < -2 \, -2 \, $v1);
#X obj 655 43 vsl 15 128 0 2000 0 0 empty empty empty 0 -9 0 10 #fcfcfc
#000000 #000000 0 1;
#X obj 685 43 vsl 15 128 0 1 0 0 empty empty empty 0 -9 0 10 #fcfcfc
#000000 #000000 0 1;
#X obj 712 43 vsl 15 128 0 10000 0 0 empty empty empty 0 -9 0 10 #fcfcfc
#000000 #000000 0 1;
#X obj 636 239 s $a;
#X obj 717 239 s $s;
#X obj 677 239 s $d;
#X obj 739 43 vsl 15 128 0 3000 0 0 empty empty empty 0 -9 0 10 #fcfcfc
#000000 #000000 0 1;
#X obj 760 238 s $r;
#X obj 356 173 r $a;
#X obj 393 173 r $d;
#X obj 429 173 r $s;
#X obj 464 172 r $r;
#X obj 358 486 *~ 0.5;
#X obj 358 561 vcf~ 1;
#X obj 266 41 inlet;
#X obj 500 41 inlet;
#X obj 502 77 s $filter_poly;
#X obj 584 302 r $filter_poly;
#X obj 368 724 outlet~;
#X obj 330 241 pack f f f f;
#X obj 633 18 inlet;
#X obj 676 18 inlet;
#X obj 738 14 inlet;
#X msg 302 267 1 1 \, \$2 10 \$1 \, 0 50 \$4;
#X floatatom 433 548 5 0 0 0 - - - 0;
#X obj 480 504 vline~;
#X obj 585 335 hsl 128 15 0 5000 0 0 empty empty empty -2 -8 0 10 #fcfcfc
#000000 #000000 0 1;
#X obj 481 423 pack f;
#X msg 481 477 100 1 \, 6000 200 \$1;
#X floatatom 636 203 5 0 0 0 - - - 0;
#X floatatom 676 199 5 0 0 0 - - - 0;
#X floatatom 742 207 5 0 0 0 - - - 0;
#X obj 272 224 bng 15 250 50 0 empty empty empty 17 7 0 10 #fcfcfc
#000000 #000000;
#X obj 159 343 phasor~;
#X obj 159 324 + 2;
#X obj 161 383 *~ 0.6;
#X connect 0 0 3 0;
#X connect 1 0 0 0;
#X connect 1 0 41 0;
#X connect 2 0 3 1;
#X connect 3 0 19 0;
#X connect 4 0 1 0;
#X connect 4 0 39 0;
#X connect 5 0 6 0;
#X connect 6 0 25 0;
#X connect 7 0 36 0;
#X connect 8 0 37 0;
#X connect 9 0 11 0;
#X connect 13 0 38 0;
#X connect 15 0 26 0;
#X connect 16 0 26 1;
#X connect 17 0 26 2;
#X connect 18 0 26 3;
#X connect 19 0 20 0;
#X connect 20 0 5 0;
#X connect 21 0 4 0;
#X connect 22 0 23 0;
#X connect 24 0 33 0;
#X connect 26 0 30 0;
#X connect 27 0 7 0;
#X connect 28 0 8 0;
#X connect 29 0 13 0;
#X connect 30 0 2 0;
#X connect 31 0 20 2;
#X connect 32 0 20 1;
#X connect 33 0 34 0;
#X connect 34 0 35 0;
#X connect 35 0 32 0;
#X connect 36 0 10 0;
#X connect 37 0 12 0;
#X connect 38 0 14 0;
#X connect 39 0 26 0;
#X connect 39 0 34 0;
#X connect 40 0 42 0;
#X connect 41 0 40 0;
#X connect 42 0 3 0;
