#N canvas 396 24 876 709 12;
#N canvas 0 0 1280 800 (subpatch) 0;
#X array $seq_dr_1 16 float 3;
#A 0 1 2 3 4 5 6 7 8 9 10 11 12 13 14 15 16;
#X coords 0 1 16 16 200 140 1 0 0;
#X restore -163 117 graph;
#N canvas 0 22 450 278 (subpatch) 0;
#X array $seq_dr_2 16 float 3;
#A 0 2 3 4 5 6 3 2 4 1 2 4 5 7 8 5 6.14286;
#X coords 0 0 16 20 200 140 1 0 0;
#X restore -160 423 graph;
#X msg -160 569 2 3 4 5 6 3 2 4 1 2 4 5 7 8 5 6;
#X obj -160 595 array set $seq_dr_2;
#X floatatom 636 6 5 0 0 0 - - - 0;
#X msg 638 24 tempo \$1 permin;
#X obj 638 82 bng 15 250 50 0 empty empty empty 17 7 0 10 #fcfcfc #000000
#000000;
#X obj 615 32 tgl 15 0 empty empty empty 17 7 0 10 #fcfcfc #000000
#000000 0 1;
#X obj 638 47 metro 0.25 120 permin;
#X obj 639 101 f;
#X obj 640 124 % 16;
#X obj 640 188 hradio 16 1 0 16 empty empty empty 0 -8 0 10 #c6ffc7
#000000 #000000 0;
#X obj 640 214 s seq;
#X obj 254 25 r seq;
#X obj 253 48 array get $seq_dr_1;
#X obj 657 282 expr~ if($v1 > 1 \, 1 \, $v1);
#X obj 857 284 expr~ if($v1 < -1 \, -1 \, $v1);
#X obj 202 162 s $s1;
#X obj 218 140 s $s2;
#X obj 240 119 s $s3;
#X obj 261 98 s $s4;
#X obj 281 166 s $s5;
#X obj 301 142 s $s6;
#X obj 320 121 s $s7;
#X obj 340 99 s $s8;
#X obj 361 167 s $s9;
#X obj 378 143 s $s10;
#X obj 400 120 s $s11;
#N canvas 0 22 450 278 (subpatch) 0;
#X array output 100 float 5;
#A 0 0.863902 0.236997 0.746654 0.946205 0.551331 0.40985 0.162795
1 0.559782 -0.212825 0.688126 0.276407 0.564521 0.639712 0.831968 0.0865722
0.467925 -0.0752644 1 0.422976 0.442794 0.157118 1 0.660895 0.369055
0.201505 0.332288 0.875819 0.211117 0.203496 0.865049 0.529652 0.325988
0.175263 0.741467 0.0193816 1 0.896811 0.517477 0.843584 0.89015 -0.108079
0.449609 0.31195 0.83113 0.728414 1 0.5955 0.427889 0.583965 0.484098
0.14642 0.923005 0.460897 0.494637 -0.0303117 0.0176384 0.439416 0.379416
0.543462 0.0917806 0.757174 1 0.758165 0.45943 -0.170103 0.730902 0.983094
0.55395 0.520394 0.508096 0.662262 0.401577 0.242631 0.881833 0.571419
0.546367 0.590211 0.429583 0.0468667 0.712804 -0.35072 0.470166 0.476524
0.580095 0.119129 1 0.201943 0.350151 0.135292 -0.0944039 0.209065
0.660558 -0.0407549 0.617296 0.283338 0.890849 0.305012 0.373813 -0.404453
;
#X coords 0 1 99 -1 200 140 1 0 0;
#X restore 1257 6 graph;
#X obj 536 280 tabwrite~ output;
#X obj 1069 333 tabwrite~ output;
#X obj 537 241 tgl 15 0 empty empty empty 17 7 0 10 #fcfcfc #000000
#000000 0 1;
#X obj 537 257 metro 100;
#X obj 1067 291 tgl 15 0 empty empty empty 17 7 0 10 #fcfcfc #000000
#000000 0 1;
#X obj 1069 310 metro 100;
#X obj 658 239 catch~ right_channel;
#X obj 855 229 catch~ left_channel;
#X obj 656 900 tgl 15 0 empty empty empty 17 7 0 10 #fcfcfc #000000
#000000 0 1;
#X obj 831 373 vu 15 120 empty empty -1 -8 0 10 #404040 #000000 1 0
;
#X obj 828 322 env~;
#X obj 771 321 env~;
#X obj 770 345 - 100;
#X obj 828 349 - 100;
#X obj 552 778 r hh2;
#X obj 594 1060 vsl 15 128 0 127 0 0 empty empty empty 0 -9 0 10 #fcfcfc
#000000 #000000 0 1;
#X obj 573 1038 ctlin 18 1;
#X obj 454 1165 r~ reverb2_no1;
#X obj 373 1287 throw~ right_channel;
#X obj 520 1277 throw~ left_channel;
#X obj 657 301 *~ 0.5;
#X obj 707 301 *~ 0.5;
#X obj 320 1067 vsl 15 128 0 127 0 0 empty empty empty 0 -9 0 10 #fcfcfc
#000000 #000000 0 1;
#X obj 95 1251 throw~ right_channel;
#X obj 242 1241 throw~ left_channel;
#X obj 116 1129 r~ del2_no2;
#X obj 294 1042 ctlin 19 1;
#X obj 185 1207 delread~ delay_all 0;
#X obj 116 1152 delwrite~ delay_all 400;
#X obj 772 374 vu 15 120 empty empty -1 -8 0 10 #404040 #000000 1 0
;
#X obj 1177 420 tgl 15 0 empty empty empty 17 7 0 10 #fcfcfc #000000
#000000 0 1;
#X obj 1177 436 metro 100;
#N canvas 0 22 450 278 (subpatch) 0;
#X array input 100 float 5;
#A 0 0 0 0 0 0 0 0 0 0 0 0 0 0 0 0 0 0 0 0 0 0 0 0 0 0 0 0 0 0 0 0
0 0 0 0 0 0 0 0 0 0 0 0 0 0 0 0 0 0 0 0 0 0 0 0 0 0 0 0 0 0 0 0 0 0
0 0 0 0 0 0 0 0 0 0 0 0 0 0 0 0 0 0 0 0 0 0 0 0 0 0 0 0 0 0 0 0 0 0
0;
#X coords 0 1 99 -1 200 140 1 0 0;
#X restore 966 418 graph;
#X obj 1176 459 tabwrite~ input;
#X obj 455 1236 rev2~ 50 100 2000 2;
#X obj 533 1205 - 20;
#N canvas 47 73 1112 654 steps 0;
#N canvas 0 22 450 278 (subpatch) 0;
#X array $step1 6 float 3;
#A 0 68.9429 1.81429 0 0 75.2929 73.4786;
#X coords 0 0 6 127 200 140 1 0 0;
#X restore 95 80 graph;
#N canvas 0 22 450 278 (subpatch) 0;
#X array $step2 6 float 3;
#A 0 1.81429 0 1.81429 1.81429 90.7143 0.907143;
#X coords 0 0 6 127 200 140 1 0 0;
#X restore 299 80 graph;
#N canvas 0 22 450 278 (subpatch) 0;
#X array $step3 6 float 3;
#A 0 0.907143 0.907143 3.62857 0.907143 93.4357 1.81429;
#X coords 0 0 6 127 200 140 1 0 0;
#X restore 508 80 graph;
#N canvas 0 22 450 278 (subpatch) 0;
#X array $step4 6 float 3;
#A 0 2.72143 2.72143 1.81429 0.907143 85.2714 3.62857;
#X coords 0 0 6 127 200 140 1 0 0;
#X restore 716 79 graph;
#N canvas 0 22 450 278 (subpatch) 0;
#X array $step5 6 float 3;
#A 0 71.6643 0.907143 72.5714 74.3857 94.3429 3.62857;
#X coords 0 0 6 127 200 140 1 0 0;
#X restore 95 247 graph;
#N canvas 0 22 450 278 (subpatch) 0;
#X array $step6 6 float 3;
#A 0 0.907143 2.72143 3.62857 3.62857 66.2214 2.72143;
#X coords 0 0 6 127 200 140 1 0 0;
#X restore 303 247 graph;
#N canvas 0 22 450 278 (subpatch) 0;
#X array $step7 6 float 3;
#A 0 2.72143 0.907143 0 0.907143 98.8786 0.907143;
#X coords 0 0 6 127 200 140 1 0 0;
#X restore 509 247 graph;
#N canvas 0 22 450 278 (subpatch) 0;
#X array $step8 6 float 3;
#A 0 79.8286 0.907143 0.907143 2.72143 93.4357 83.4571;
#X coords 0 0 6 127 200 140 1 0 0;
#X restore 717 247 graph;
#N canvas 0 22 450 278 (subpatch) 0;
#X array $step9 6 float 3;
#A 0 2.72143 2.72143 2.72143 0.907143 86.1786 0.907143;
#X coords 0 0 6 127 200 140 1 0 0;
#X restore 95 410 graph;
#N canvas 0 22 450 278 (subpatch) 0;
#X array $step10 6 float 3;
#A 0 0 92.5286 71.6643 2.72143 87.9929 1.81429;
#X coords 0 0 6 127 200 140 1 0 0;
#X restore 299 410 graph;
#N canvas 0 22 450 278 (subpatch) 0;
#X array $step11 6 float 3;
#A 0 0.907143 0 0 0.907143 84.3643 0;
#X coords 0 0 6 127 200 140 1 0 0;
#X restore 508 410 graph;
#N canvas 0 22 450 278 (subpatch) 0;
#X array $step12 6 float 3;
#A 0 0.907143 71.6643 1.81429 85.2714 4.53571 2.72143;
#X coords 0 0 6 127 200 140 1 0 0;
#X restore 716 409 graph;
#N canvas 0 22 450 278 (subpatch) 0;
#X array $step13 6 float 3;
#A 0 82.55 1.81429 86.1786 2.72143 91.6214 90.7143;
#X coords 0 0 6 127 200 140 1 0 0;
#X restore 95 577 graph;
#N canvas 0 22 450 278 (subpatch) 0;
#X array $step14 6 float 3;
#A 0 1.81429 1.81429 0.907143 3.62857 94.3429 3.62857;
#X coords 0 0 6 127 200 140 1 0 0;
#X restore 303 577 graph;
#N canvas 0 22 450 278 (subpatch) 0;
#X array $step15 6 float 3;
#A 0 1.81429 0.907143 0.907143 0.907143 90.7143 2.72143;
#X coords 0 0 6 127 200 140 1 0 0;
#X restore 509 577 graph;
#N canvas 0 22 450 278 (subpatch) 0;
#X array $step16 6 float 3;
#A 0 1.81429 1.81429 1.81429 3.62857 84.3643 3.62857;
#X coords 0 0 6 127 200 140 1 0 0;
#X restore 717 577 graph;
#N canvas 0 22 450 278 (subpatch) 0;
#X array $step1_poly_synth_no1 4 float 3;
#A 0 66 64 60 57;
#X coords 0 0 4 127 200 140 1 0 0;
#X restore 1174 83 graph;
#N canvas 0 22 450 278 (subpatch) 0;
#X array $step2_poly_synth_no1 4 float 3;
#A 0 0.907143 0 0 0;
#X coords 0 0 4 127 200 140 1 0 0;
#X restore 1378 83 graph;
#N canvas 0 22 450 278 (subpatch) 0;
#X array $step5_poly_synth_no1 4 float 3;
#A 0 0 0.907143 0.907143 1.81429;
#X coords 0 0 4 127 200 140 1 0 0;
#X restore 1174 245 graph;
#N canvas 0 22 450 278 (subpatch) 0;
#X array $step6_poly_synth_no1 4 float 3;
#A 0 0 1.81429 1.81429 0;
#X coords 0 0 4 127 200 140 1 0 0;
#X restore 1378 245 graph;
#N canvas 0 22 450 278 (subpatch) 0;
#X array $step3_poly_synth_no1 4 float 3;
#A 0 1.81429 1.81429 1.81429 2.72143;
#X coords 0 0 4 127 200 140 1 0 0;
#X restore 1586 83 graph;
#N canvas 0 22 450 278 (subpatch) 0;
#X array $step4_poly_synth_no1 4 float 3;
#A 0 1.81429 1.81429 2.72143 0;
#X coords 0 0 4 127 200 140 1 0 0;
#X restore 1790 83 graph;
#N canvas 0 22 450 278 (subpatch) 0;
#X array $step7_poly_synth_no1 4 float 3;
#A 0 80.7357 80.7357 73.4785 70.7571;
#X coords 0 0 4 127 200 140 1 0 0;
#X restore 1586 245 graph;
#N canvas 0 22 450 278 (subpatch) 0;
#X array $step8_poly_synth_no1 4 float 3;
#A 0 72 69 64 60;
#X coords 0 0 4 127 200 140 1 0 0;
#X restore 1790 245 graph;
#N canvas 0 22 450 278 (subpatch) 0;
#X array $step9_poly_synth_no1 4 float 3;
#A 0 1.81429 1.81429 0.90712 -0.907211;
#X coords 0 0 4 127 200 140 1 0 0;
#X restore 1174 407 graph;
#N canvas 0 22 450 278 (subpatch) 0;
#X array $step10_poly_synth_no1 4 float 3;
#A 0 1.81429 0.907143 1.81429 0.907143;
#X coords 0 0 4 127 200 140 1 0 0;
#X restore 1378 407 graph;
#N canvas 0 22 450 278 (subpatch) 0;
#X array $step13_poly_synth_no1 4 float 3;
#A 0 0.907143 0.907143 0.907143 2.72143;
#X coords 0 0 4 127 200 140 1 0 0;
#X restore 1174 569 graph;
#N canvas 0 22 450 278 (subpatch) 0;
#X array $step14_poly_synth_no1 4 float 3;
#A 0 0.907143 1.81429 0.907143 0;
#X coords 0 0 4 127 200 140 1 0 0;
#X restore 1378 569 graph;
#N canvas 0 22 450 278 (subpatch) 0;
#X array $step11_poly_synth_no1 4 float 3;
#A 0 1.81429 1.81429 1.81429 0.907143;
#X coords 0 0 4 127 200 140 1 0 0;
#X restore 1586 407 graph;
#N canvas 0 22 450 278 (subpatch) 0;
#X array $step12_poly_synth_no1 4 float 3;
#A 0 0.907143 0.907143 0 0.907143;
#X coords 0 0 4 127 200 140 1 0 0;
#X restore 1790 407 graph;
#N canvas 0 22 450 278 (subpatch) 0;
#X array $step15_poly_synth_no1 4 float 3;
#A 0 0.907143 0.907143 0.907143 0.907143;
#X coords 0 0 4 127 200 140 1 0 0;
#X restore 1586 569 graph;
#N canvas 0 22 450 278 (subpatch) 0;
#X array $step16_poly_synth_no1 4 float 3;
#A 0 1.81429 1.81429 1.81429 1.81429;
#X coords 0 0 4 127 200 140 1 0 0;
#X restore 1790 569 graph;
#X obj 1339 -331 bng 15 250 50 0 empty empty empty 17 7 0 10 #fcfcfc
#000000 #000000;
#X obj 1163 -248 tabwrite $step1_poly_synth_no1;
#X obj 1163 -225 tabwrite $step2_poly_synth_no1;
#X obj 1163 -202 tabwrite $step3_poly_synth_no1;
#X obj 1164 -178 tabwrite $step4_poly_synth_no1;
#X obj 1163 -152 tabwrite $step5_poly_synth_no1;
#X obj 1163 -129 tabwrite $step6_poly_synth_no1;
#X obj 1163 -106 tabwrite $step7_poly_synth_no1;
#X obj 1164 -82 tabwrite $step8_poly_synth_no1;
#X obj 1464 -247 tabwrite $step9_poly_synth_no1;
#X obj 1464 -224 tabwrite $step10_poly_synth_no1;
#X obj 1464 -201 tabwrite $step11_poly_synth_no1;
#X obj 1465 -177 tabwrite $step12_poly_synth_no1;
#X obj 1464 -151 tabwrite $step13_poly_synth_no1;
#X obj 1464 -128 tabwrite $step14_poly_synth_no1;
#X obj 1464 -105 tabwrite $step15_poly_synth_no1;
#X obj 1465 -81 tabwrite $step16_poly_synth_no1;
#X obj 1163 -267 unpack f f;
#X obj 1559 -333 bng 15 250 50 0 empty empty empty 17 7 0 10 #fcfcfc
#000000 #000000;
#X obj 1383 -269 unpack f f;
#X floatatom 1381 -375 5 0 0 0 - - - 0;
#X obj 1455 -375 random 127;
#X obj 1629 -374 tgl 15 0 empty empty empty 17 7 0 10 #fcfcfc #000000
#000000 0 1;
#X floatatom 1380 -396 5 0 0 0 - - - 0;
#X obj 1454 -396 random 127;
#X obj 1628 -395 tgl 15 0 empty empty empty 17 7 0 10 #fcfcfc #000000
#000000 0 1;
#X floatatom 1379 -416 5 0 0 0 - - - 0;
#X obj 1453 -416 random 127;
#X obj 1627 -415 tgl 15 0 empty empty empty 17 7 0 10 #fcfcfc #000000
#000000 0 1;
#X obj 1540 -415 metro 1000;
#X obj 1541 -395 metro 1000;
#X obj 1542 -374 metro 1000;
#X msg 1163 -288 57 3;
#X msg 1162 -308 60 2;
#X msg 1162 -329 64 1;
#X msg 1161 -349 66 0;
#X msg 1383 -290 60 3;
#X msg 1382 -310 64 2;
#X msg 1382 -331 69 1;
#X msg 1381 -351 72 0;
#X connect 32 0 64 0;
#X connect 32 0 65 0;
#X connect 32 0 66 0;
#X connect 32 0 67 0;
#X connect 49 0 33 0;
#X connect 49 1 33 1;
#X connect 50 0 68 0;
#X connect 50 0 69 0;
#X connect 50 0 70 0;
#X connect 50 0 71 0;
#X connect 51 0 40 0;
#X connect 51 1 40 1;
#X connect 52 0 71 0;
#X connect 53 0 52 0;
#X connect 53 0 64 0;
#X connect 54 0 63 0;
#X connect 55 0 70 0;
#X connect 56 0 55 0;
#X connect 56 0 65 0;
#X connect 57 0 62 0;
#X connect 58 0 69 0;
#X connect 59 0 58 0;
#X connect 59 0 66 0;
#X connect 60 0 61 0;
#X connect 61 0 59 0;
#X connect 62 0 56 0;
#X connect 63 0 53 0;
#X connect 64 0 49 0;
#X connect 65 0 49 0;
#X connect 66 0 49 0;
#X connect 67 0 49 0;
#X connect 68 0 51 0;
#X connect 69 0 51 0;
#X connect 70 0 51 0;
#X connect 71 0 51 0;
#X restore 1462 39 pd steps;
#N canvas 397 24 868 674 steps_with_velocity_to_sound 0;
#X obj -8 204 r $s1;
#X obj -8 232 array get $step1;
#X obj 235 443 s kick;
#X obj 284 486 s sn1;
#X obj 308 510 s sn2;
#X obj 36 178 r $s2;
#X obj 38 204 array get $step2;
#X obj 235 416 unpack f f f f f f;
#X obj 333 531 s hh1;
#X obj 358 553 s hh2;
#X obj 80 154 r $s3;
#X obj 122 133 r $s4;
#X obj 82 176 array get $step3;
#X obj 122 155 array get $step4;
#X obj 168 128 array get $step5;
#X obj 166 106 r $s5;
#X obj 216 78 r $s6;
#X obj 218 104 array get $step6;
#X obj 272 52 r $s7;
#X obj 269 80 array get $step7;
#X obj 320 34 r $s8;
#X obj 319 57 array get $step8;
#X obj 209 221 r $s9;
#X obj 209 249 array get $step9;
#X obj 253 198 r $s10;
#X obj 255 220 array get $step10;
#X obj 297 170 r $s11;
#X obj 299 192 array get $step11;
#X obj 355 149 r $s12;
#X obj 355 171 array get $step12;
#X obj 404 122 r $s13;
#X obj 406 144 array get $step13;
#X obj 560 212 r $s14;
#X obj 570 238 array get $step14;
#X obj 564 91 r $s15;
#X obj 564 119 array get $step15;
#X obj 556 148 r $s16;
#X obj 560 171 array get $step16;
#X obj 259 465 s hho;
#X obj 730 210 r $s1;
#X obj 774 184 r $s2;
#X obj 818 160 r $s3;
#X obj 860 139 r $s4;
#X obj 904 112 r $s5;
#X obj 954 84 r $s6;
#X obj 1010 58 r $s7;
#X obj 1058 40 r $s8;
#X obj 1267 265 r $s9;
#X obj 1311 242 r $s10;
#X obj 1367 215 r $s11;
#X obj 1341 194 r $s12;
#X obj 1390 167 r $s13;
#X obj 1526 419 r $s14;
#X obj 1530 298 r $s15;
#X obj 1522 355 r $s16;
#X obj 730 238 array get $step1_poly_synth_no1;
#X obj 921 544 s poly_s_no1_v1;
#X obj 962 415 unpack f f f f;
#X obj 962 567 s poly_s_no1_v2;
#X obj 988 599 s poly_s_no1_v3;
#X obj 1009 631 s poly_s_no1_v4;
#X obj 776 210 array get $step2_poly_synth_no1;
#X obj 820 182 array get $step3_poly_synth_no1;
#X obj 860 161 array get $step4_poly_synth_no1;
#X obj 906 134 array get $step5_poly_synth_no1;
#X obj 956 110 array get $step6_poly_synth_no1;
#X obj 1007 86 array get $step7_poly_synth_no1;
#X obj 1057 63 array get $step8_poly_synth_no1;
#X obj 1267 293 array get $step9_poly_synth_no1;
#X obj 1313 264 array get $step10_poly_synth_no1;
#X obj 1369 237 array get $step11_poly_synth_no1;
#X obj 1425 216 array get $step12_poly_synth_no1;
#X obj 1392 189 array get $step13_poly_synth_no1;
#X obj 1536 445 array get $step14_poly_synth_no1;
#X obj 1530 326 array get $step15_poly_synth_no1;
#X obj 1526 378 array get $step16_poly_synth_no1;
#X obj 833 453 expr if($f1 > 10 \, $f1 \, 0);
#X obj 833 474 select 0;
#X obj 904 473 expr if($f1 > 10 \, $f1 \, 0);
#X obj 904 494 select 0;
#X obj 967 492 expr if($f1 > 10 \, $f1 \, 0);
#X obj 967 513 select 0;
#X obj 1036 512 expr if($f1 > 10 \, $f1 \, 0);
#X obj 1036 533 select 0;
#X connect 0 0 1 0;
#X connect 1 0 7 0;
#X connect 5 0 6 0;
#X connect 6 0 7 0;
#X connect 7 0 2 0;
#X connect 7 1 38 0;
#X connect 7 2 3 0;
#X connect 7 3 4 0;
#X connect 7 4 8 0;
#X connect 7 5 9 0;
#X connect 10 0 12 0;
#X connect 11 0 13 0;
#X connect 12 0 7 0;
#X connect 13 0 7 0;
#X connect 14 0 7 0;
#X connect 15 0 14 0;
#X connect 16 0 17 0;
#X connect 17 0 7 0;
#X connect 18 0 19 0;
#X connect 19 0 7 0;
#X connect 20 0 21 0;
#X connect 21 0 7 0;
#X connect 22 0 23 0;
#X connect 23 0 7 0;
#X connect 24 0 25 0;
#X connect 25 0 7 0;
#X connect 26 0 27 0;
#X connect 27 0 7 0;
#X connect 28 0 29 0;
#X connect 29 0 7 0;
#X connect 30 0 31 0;
#X connect 31 0 7 0;
#X connect 32 0 33 0;
#X connect 33 0 7 0;
#X connect 34 0 35 0;
#X connect 35 0 7 0;
#X connect 36 0 37 0;
#X connect 37 0 7 0;
#X connect 39 0 55 0;
#X connect 40 0 61 0;
#X connect 41 0 62 0;
#X connect 42 0 63 0;
#X connect 43 0 64 0;
#X connect 44 0 65 0;
#X connect 45 0 66 0;
#X connect 46 0 67 0;
#X connect 47 0 68 0;
#X connect 48 0 69 0;
#X connect 49 0 70 0;
#X connect 50 0 71 0;
#X connect 51 0 72 0;
#X connect 52 0 73 0;
#X connect 53 0 74 0;
#X connect 54 0 75 0;
#X connect 55 0 57 0;
#X connect 57 0 76 0;
#X connect 57 1 78 0;
#X connect 57 2 80 0;
#X connect 57 3 82 0;
#X connect 61 0 57 0;
#X connect 62 0 57 0;
#X connect 63 0 57 0;
#X connect 64 0 57 0;
#X connect 65 0 57 0;
#X connect 66 0 57 0;
#X connect 67 0 57 0;
#X connect 68 0 57 0;
#X connect 69 0 57 0;
#X connect 70 0 57 0;
#X connect 71 0 57 0;
#X connect 72 0 57 0;
#X connect 73 0 57 0;
#X connect 74 0 57 0;
#X connect 75 0 57 0;
#X connect 76 0 77 0;
#X connect 77 1 56 0;
#X connect 78 0 79 0;
#X connect 79 1 58 0;
#X connect 80 0 81 0;
#X connect 81 1 59 0;
#X connect 82 0 83 0;
#X connect 83 1 60 0;
#X restore 1462 60 pd steps_with_velocity_to_sound;
#X obj 419 100 s $s12;
#X obj 438 168 s $s13;
#X obj 457 145 s $s14;
#X obj 477 123 s $s15;
#X obj 496 98 s $s16;
#X msg -162 280 1 2 3 4 5 6 7 8 9 10 11 12 13 14 15 16;
#X obj 204 67 select 1 2 3 4 5 6 7 8 9 10 11 12 13 14 15 16;
#X obj -78 301 bng 15 250 50 0 empty empty empty 17 7 0 10 #fcfcfc
#000000 #000000;
#X obj -113 319 random 16;
#X obj -36 319 random 16;
#X text -164 262 default sequence;
#X obj -113 342 + 1;
#X obj -44 337 + 1;
#X floatatom -156 368 5 0 0 0 - - - 0;
#X floatatom -51 357 5 0 0 0 - - - 0;
#X msg -48 300 0, f 1;
#X obj -116 375 array set $seq_dr_1;
#X obj -6 265 bng 15 250 50 0 empty empty empty 17 7 0 10 #fcfcfc #000000
#000000;
#X obj 546 54 select 1;
#N canvas 98 406 450 300 long_kick 0;
#X obj 108 194 throw~ right_channel;
#X obj 268 195 throw~ left_channel;
#X obj 161 133 km2;
#N canvas 237 191 450 300 mute 0;
#X obj 197 98 bng 15 250 50 0 empty empty empty 17 7 0 10 #fcfcfc #000000
#000000;
#X obj 197 116 f;
#X obj 197 138 select 1;
#X obj 268 81 inlet;
#X obj 202 182 outlet;
#X obj 197 65 inlet;
#X connect 0 0 1 0;
#X connect 1 0 2 0;
#X connect 2 0 4 0;
#X connect 3 0 1 1;
#X connect 5 0 0 0;
#X restore 159 112 pd mute;
#X obj 234 145 tgl 15 0 empty empty empty 17 7 0 10 #fcfcfc #000000
#000000 0 1;
#X obj 160 157 *~;
#X obj 267 121 select 50;
#X obj 266 98 notein 1;
#X obj 70 41 / 127;
#X floatatom 69 66 5 0 0 0 - - - 0;
#X obj 69 84 expr if($f1 > 0.3 \, $f1 \, 0);
#X obj 67 113 select 0;
#X obj 71 15 inlet;
#X obj 33 158 vsl 15 128 0 127 0 0 empty empty empty 0 -9 0 10 #fcfcfc
#000000 #000000 0 1;
#X obj 12 136 ctlin 22 1;
#X connect 2 0 5 0;
#X connect 3 0 2 1;
#X connect 4 0 3 1;
#X connect 5 0 0 0;
#X connect 5 0 1 0;
#X connect 6 0 4 0;
#X connect 7 0 6 0;
#X connect 8 0 9 0;
#X connect 9 0 10 0;
#X connect 10 0 11 0;
#X connect 11 1 3 0;
#X connect 11 1 5 1;
#X connect 12 0 8 0;
#X connect 13 0 2 0;
#X connect 14 0 13 0;
#X restore 552 800 pd long_kick;
#N canvas 12 350 450 300 kick 1;
#X obj 169 192 dr_kick_cos_lop;
#X obj 48 310 throw~ right_channel;
#X obj 212 311 throw~ left_channel;
#X obj 171 128 bng 15 250 50 0 empty empty empty 17 7 0 10 #fcfcfc
#000000 #000000;
#X obj 171 146 f;
#X obj 207 133 tgl 15 0 empty empty empty 17 7 0 10 #fcfcfc #000000
#000000 0 1;
#X obj 171 168 select 1;
#X obj 101 66 / 127;
#X obj 166 240 *~;
#X floatatom 97 90 5 0 0 0 - - - 0;
#X obj 96 108 expr if($f1 > 0.3 \, $f1 \, 0);
#X obj 97 192 select 0;
#X obj 289 111 select 50;
#X obj 288 88 notein 1;
#X obj 101 42 inlet;
#X connect 0 0 8 0;
#X connect 3 0 4 0;
#X connect 4 0 6 0;
#X connect 5 0 4 1;
#X connect 6 0 0 0;
#X connect 7 0 9 0;
#X connect 8 0 1 0;
#X connect 8 0 2 0;
#X connect 9 0 10 0;
#X connect 10 0 11 0;
#X connect 11 1 3 0;
#X connect 11 1 8 1;
#X connect 12 0 5 0;
#X connect 13 0 12 0;
#X connect 14 0 7 0;
#X restore 553 857 pd kick;
#X obj 552 834 r kick;
#N canvas 564 236 450 300 hh1 0;
#X obj 62 198 throw~ right_channel;
#X obj 217 192 throw~ left_channel;
#X obj 159 128 hh1;
#N canvas 237 191 450 300 mute 0;
#X obj 197 98 bng 15 250 50 0 empty empty empty 17 7 0 10 #fcfcfc #000000
#000000;
#X obj 197 116 f;
#X obj 197 138 select 1;
#X obj 268 81 inlet;
#X obj 202 182 outlet;
#X obj 197 65 inlet;
#X connect 0 0 1 0;
#X connect 1 0 2 0;
#X connect 2 0 4 0;
#X connect 3 0 1 1;
#X connect 5 0 0 0;
#X restore 144 102 pd mute;
#X obj 93 87 / 127;
#X obj 158 150 *~;
#X obj 145 29 inlet;
#X obj 237 60 inlet;
#X obj 209 164 *~ 0.6;
#X connect 2 0 5 0;
#X connect 3 0 2 0;
#X connect 4 0 5 1;
#X connect 5 0 0 0;
#X connect 5 0 8 0;
#X connect 6 0 4 0;
#X connect 6 0 3 0;
#X connect 7 0 3 1;
#X connect 8 0 1 0;
#X restore 609 915 pd hh1;
#X obj 609 892 r hh1;
#N canvas 187 263 450 300 noise_with_note 0;
#X obj 135 303 dr_sn_noise_feed_mod;
#X obj 66 368 throw~ right_channel;
#X obj 213 358 throw~ left_channel;
#X obj 251 162 vsl 15 128 0 127 0 0 empty empty empty 0 -9 0 10 #fcfcfc
#000000 #000000 0 1;
#X obj 276 162 vsl 15 128 0 1 0 0 empty empty empty 0 -9 0 10 #fcfcfc
#000000 #000000 0 1;
#X obj 234 58 ctlin 17 1;
#X floatatom 325 143 5 0 0 0 - - - 0;
#X obj 261 124 / 127;
#X obj 210 117 - 127;
#X obj 212 140 * -1;
#N canvas 237 191 450 300 mute 0;
#X obj 197 98 bng 15 250 50 0 empty empty empty 17 7 0 10 #fcfcfc #000000
#000000;
#X obj 197 116 f;
#X obj 197 138 select 1;
#X obj 268 81 inlet;
#X obj 202 182 outlet;
#X obj 197 65 inlet;
#X connect 0 0 1 0;
#X connect 1 0 2 0;
#X connect 2 0 4 0;
#X connect 3 0 1 1;
#X connect 5 0 0 0;
#X restore 136 275 pd mute;
#X obj 87 273 / 127;
#X obj 135 333 *~;
#X obj 361 346 s~ del2_no2;
#X obj 346 323 s~ reverb2_no1;
#X obj 124 239 inlet;
#X obj 169 239 inlet;
#X connect 0 0 12 0;
#X connect 3 0 0 1;
#X connect 4 0 0 2;
#X connect 5 0 7 0;
#X connect 5 0 8 0;
#X connect 7 0 4 0;
#X connect 7 0 6 0;
#X connect 8 0 9 0;
#X connect 9 0 3 0;
#X connect 10 0 0 0;
#X connect 11 0 12 1;
#X connect 12 0 1 0;
#X connect 12 0 2 0;
#X connect 12 0 14 0;
#X connect 12 0 13 0;
#X connect 15 0 11 0;
#X connect 15 0 10 0;
#X connect 16 0 10 1;
#X restore 609 972 pd noise_with_note;
#X obj 609 950 r sn2;
#X obj 731 953 tgl 15 0 empty empty empty 17 7 0 10 #fcfcfc #000000
#000000 0 1;
#N canvas 241 433 450 300 sn1 1;
#X obj 112 153 sn1;
#X obj 64 238 throw~ right_channel;
#X obj 224 239 throw~ left_channel;
#N canvas 237 191 450 300 mute 0;
#X obj 197 98 bng 15 250 50 0 empty empty empty 17 7 0 10 #fcfcfc #000000
#000000;
#X obj 197 116 f;
#X obj 197 138 select 1;
#X obj 268 81 inlet;
#X obj 202 182 outlet;
#X obj 197 65 inlet;
#X connect 0 0 1 0;
#X connect 1 0 2 0;
#X connect 2 0 4 0;
#X connect 3 0 1 1;
#X connect 5 0 0 0;
#X restore 99 129 pd mute;
#X obj 213 184 rev2~ 100 20 1000 2;
#X obj 329 11 vsl 15 128 0 127 0 0 empty empty empty 0 -9 0 10 #ff8300
#000000 #000000 0 1;
#X obj 328 -15 ctlin 16 1;
#X obj 35 154 / 127;
#X obj 128 191 *~;
#X obj 312 11 vsl 15 128 0 127 0 0 empty empty empty 0 -9 0 10 #fcfcfc
#000000 #000000 0 1;
#X obj 237 -9 ctlin 20 1;
#X obj 241 138 / 127;
#X obj 241 159 * 3;
#X obj 110 71 inlet;
#X obj 182 78 inlet;
#X connect 0 0 8 0;
#X connect 3 0 0 0;
#X connect 4 0 1 0;
#X connect 4 1 2 0;
#X connect 5 0 4 2;
#X connect 6 0 5 0;
#X connect 7 0 8 1;
#X connect 8 0 1 0;
#X connect 8 0 2 0;
#X connect 8 0 4 0;
#X connect 9 0 11 0;
#X connect 10 0 9 0;
#X connect 11 0 12 0;
#X connect 12 0 0 1;
#X connect 13 0 7 0;
#X connect 13 0 3 0;
#X connect 14 0 3 1;
#X restore 763 968 pd sn1;
#X obj 764 941 r sn1;
#X obj 814 942 tgl 15 0 empty empty empty 17 7 0 10 #fcfcfc #000000
#000000 0 1;
#X text 548 754 drums;
#X text 1036 379 Audio input;
#X msg 233 300 0, f 1;
#X obj 275 265 bng 15 250 50 0 empty empty empty 17 7 0 10 #fcfcfc
#000000 #000000;
#X msg 119 280 1 16 2 15 3 14 4 13 5 12 6 11 7 10 8 9;
#X obj 580 -13 r clock;
#X obj 637 366 dac~;
#X obj -548 90 1539111228383-clock-slave;
#X obj -548 192 s quarter_note;
#X obj 498 32 r quarter_note;
#X obj -548 113 f;
#X obj -511 114 + 1;
#X obj -548 168 select 0;
#X obj -548 144 % 20;
#X msg 570 76 4;
#X obj 725 887 select 50;
#X obj 724 864 notein 2;
#N canvas 12 160 450 300 bpm_finder 0;
#X obj -536 422 midirealtimein;
#X floatatom -536 452 5 0 0 0 - - - 0;
#X obj -536 474 select 248;
#X obj -654 469 bng 15 250 50 0 empty empty empty 17 7 0 10 #fcfcfc
#000000 #000000;
#X obj -653 488 f;
#X obj -618 488 + 1;
#X obj -652 511 % 24;
#X obj -646 660 timer;
#X obj -651 593 bng 15 250 50 0 empty empty empty 17 7 0 10 #fcfcfc
#000000 #000000;
#X obj -651 611 tgl 15 0 empty empty empty 17 7 0 10 #fcfcfc #000000
#000000 0 1;
#X obj -650 630 select 0;
#X obj -599 661 t b;
#X obj -648 689 expr 1000/($f1/60);
#X floatatom -647 768 5 0 0 0 - - - 0;
#X obj -652 534 expr if($f1 % 6 == 0 \, 1 \, 0);
#X obj -647 714 f;
#X obj -652 556 select 1;
#X obj -648 741 / 4;
#X connect 0 0 1 0;
#X connect 0 0 3 0;
#X connect 1 0 2 0;
#X connect 3 0 4 0;
#X connect 4 0 5 0;
#X connect 4 0 6 0;
#X connect 5 0 4 1;
#X connect 6 0 14 0;
#X connect 7 0 12 0;
#X connect 8 0 9 0;
#X connect 9 0 10 0;
#X connect 10 0 7 0;
#X connect 10 1 11 0;
#X connect 11 0 7 1;
#X connect 12 0 15 0;
#X connect 14 0 16 0;
#X connect 15 0 17 0;
#X connect 16 0 8 0;
#X connect 17 0 13 0;
#X restore -548 216 pd bpm_finder;
#X obj 982 -5 notein 1;
#X obj 982 17 select 32;
#X obj 983 39 tgl 15 0 empty empty empty 17 7 0 10 #fcfcfc #000000
#000000 0 1;
#X floatatom 954 136 5 0 0 0 - - - 0;
#X floatatom 1011 151 5 0 0 0 - - - 0;
#X obj 962 61 select 0 1;
#X obj 916 130 bng 15 250 50 0 empty empty empty 17 7 0 10 #fcfcfc
#000000 #000000;
#X obj 1013 112 bng 15 250 50 0 empty empty empty 17 7 0 10 #fcfcfc
#000000 #000000;
#X obj 674 101 + 1;
#N canvas 89 120 450 300 hho 0;
#X obj 90 192 throw~ right_channel;
#X obj 205 173 throw~ left_channel;
#N canvas 237 191 450 300 mute 0;
#X obj 197 98 bng 15 250 50 0 empty empty empty 17 7 0 10 #fcfcfc #000000
#000000;
#X obj 197 116 f;
#X obj 197 138 select 1;
#X obj 268 81 inlet;
#X obj 202 182 outlet;
#X obj 197 65 inlet;
#X connect 0 0 1 0;
#X connect 1 0 2 0;
#X connect 2 0 4 0;
#X connect 3 0 1 1;
#X connect 5 0 0 0;
#X restore 144 102 pd mute;
#X obj 93 87 / 127;
#X obj 158 150 *~;
#X obj 145 29 inlet;
#X obj 191 28 inlet;
#X obj 159 128 hho;
#X obj 260 29 inlet;
#X connect 2 0 7 0;
#X connect 3 0 4 1;
#X connect 4 0 0 0;
#X connect 4 0 1 0;
#X connect 5 0 3 0;
#X connect 5 0 2 0;
#X connect 6 0 2 1;
#X connect 7 0 4 0;
#X connect 8 0 7 1;
#X restore 614 856 pd hho;
#X obj 663 831 tgl 15 0 empty empty empty 17 7 0 10 #fcfcfc #000000
#000000 0 1;
#X obj 616 823 r hho;
#X obj 682 727 vsl 15 128 0 127 0 0 empty empty empty 0 -9 0 10 #fcfcfc
#000000 #000000 0 1;
#X obj 661 705 ctlin 21 1;
#X obj 855 258 expr~ if($v1 > 1 \, 1 \, $v1);
#X obj 658 261 expr~ if($v1 < -1 \, -1 \, $v1);
#X obj 467 542 vsl 15 128 0 4000 0 0 empty empty empty 0 -9 0 10 #fcfcfc
#000000 #000000 0 1;
#N canvas 142 109 519 474 poly_synth 1;
#X obj 153 348 throw~ right_channel;
#X obj 298 347 throw~ left_channel;
#X obj 153 329 *~ 0.5;
#X obj 11 198 r poly_s_no1_v1;
#X obj 110 175 r poly_s_no1_v2;
#X obj 192 195 r poly_s_no1_v3;
#X obj 304 195 r poly_s_no1_v4;
#X floatatom 43 217 5 0 0 0 - - - 0;
#X floatatom 192 216 5 0 0 0 - - - 0;
#X floatatom 127 196 5 0 0 0 - - - 0;
#X floatatom 304 215 5 0 0 0 - - - 0;
#X obj 288 239 inlet;
#X obj 152 296 clone poly_synth.cl 4;
#X msg 146 249 next \$1;
#X obj 334 239 inlet;
#X obj 380 240 inlet;
#X obj 422 241 inlet;
#X msg 243 276 next \$1;
#X msg 359 278 next \$1;
#X msg 428 279 next \$1;
#X msg 301 277 next \$1;
#X connect 2 0 0 0;
#X connect 2 0 1 0;
#X connect 3 0 7 0;
#X connect 4 0 9 0;
#X connect 5 0 8 0;
#X connect 6 0 10 0;
#X connect 7 0 13 0;
#X connect 8 0 13 0;
#X connect 9 0 13 0;
#X connect 10 0 13 0;
#X connect 11 0 17 0;
#X connect 12 0 2 0;
#X connect 13 0 12 0;
#X connect 14 0 20 0;
#X connect 15 0 18 0;
#X connect 16 0 19 0;
#X connect 17 0 12 1;
#X connect 18 0 12 3;
#X connect 19 0 12 4;
#X connect 20 0 12 2;
#X restore 485 704 pd poly_synth;
#X obj 560 544 vsl 15 128 0 3000 0 0 empty empty empty 0 -9 0 10 #fcfcfc
#000000 #000000 0 1;
#X obj 535 544 vsl 15 128 0 1 0 0 empty empty empty 0 -9 0 10 #fcfcfc
#000000 #000000 0 1;
#X obj 512 543 vsl 15 128 0 2000 0 0 empty empty empty 0 -9 0 10 #fcfcfc
#000000 #000000 0 1;
#X text 445 517 filter;
#X text 511 522 a;
#X text 538 522 d;
#X text 562 523 r;
#X obj 795 102 % 2;
#X obj 794 122 select 0;
#N canvas 116 261 540 351 sample_s_1 1;
#X obj -40 174 throw~ right_channel;
#X obj 121 173 throw~ left_channel;
#X obj 53 -46 tabplay~ sample_data_beyonce;
#X obj -27 -158 random 1.48397e+06, f 16;
#X obj 50 83 *~ 0.9;
#X obj 52 -100 pack f f;
#X obj 199 -192 vsl 15 128 0 20000 0 0 empty empty empty 0 -9 0 10
#fcfcfc #000000 #000000 0 1;
#X msg 51 -73 \$1 \$2;
#X obj 184 -24 osc~;
#X floatatom 216 -24 5 0 0 0 - - - 0;
#X obj 103 -167 random 20000;
#X obj 55 -20 *~;
#X obj 254 -163 openpanel;
#N canvas 0 22 450 278 (subpatch) 0;
#X array sample_data_beyonce 1.48397e+06 float 4;
#X coords 0 1 1.48397e+06 -1 200 140 1 0 0;
#X restore 545 -138 graph;
#X obj 254 -118 soundfiler;
#X obj 253 -187 bng 15 250 50 0 empty empty empty 17 7 0 10 #fcfcfc
#000000 #000000;
#X floatatom 254 -85 15 0 300000 0 - - - 0;
#X msg 254 -141 read -resize \$1 sample_data_beyonce;
#X floatatom 280 31 5 0 0 0 - - - 0;
#X obj 277 1 / 1000;
#X obj 278 -45 random 1000;
#X obj 108 118 *~;
#X obj 17 120 *~;
#X obj 242 8 - 1;
#X obj 242 32 * -1;
#X floatatom 232 54 5 0 0 0 - - - 0;
#X floatatom 277 52 5 0 0 0 - - - 0;
#X obj -107 2 rev2~ 100 90 3000 20;
#X obj -98 75 vsl 15 128 0 1 0 0 empty empty empty 0 -9 0 10 #fcfcfc
#000000 #000000 0 1;
#X obj -58 57 *~;
#X obj -21 57 *~;
#X obj 29 -200 r pulse_every_1;
#X connect 2 0 11 0;
#X connect 3 0 5 0;
#X connect 4 0 22 0;
#X connect 4 0 21 0;
#X connect 5 0 7 0;
#X connect 6 0 5 1;
#X connect 7 0 2 0;
#X connect 8 0 11 1;
#X connect 9 0 8 0;
#X connect 11 0 4 0;
#X connect 11 0 27 0;
#X connect 12 0 17 0;
#X connect 14 0 16 0;
#X connect 15 0 12 0;
#X connect 17 0 14 0;
#X connect 18 0 23 0;
#X connect 18 0 26 0;
#X connect 19 0 18 0;
#X connect 20 0 19 0;
#X connect 21 0 1 0;
#X connect 22 0 0 0;
#X connect 23 0 24 0;
#X connect 24 0 25 0;
#X connect 25 0 22 1;
#X connect 26 0 21 1;
#X connect 27 0 29 0;
#X connect 27 1 30 0;
#X connect 28 0 29 1;
#X connect 28 0 30 1;
#X connect 29 0 22 0;
#X connect 30 0 21 0;
#X connect 31 0 3 0;
#X connect 31 0 10 0;
#X connect 31 0 20 0;
#X restore 975 623 pd sample_s_1;
#N canvas 116 261 540 351 sample_s_2 0;
#X obj -40 138 throw~ right_channel;
#X obj 126 139 throw~ left_channel;
#X obj 50 83 *~ 0.9;
#X obj 52 -100 pack f f;
#X obj 198 -182 vsl 15 128 0 20000 0 0 empty empty empty 0 -9 0 10
#fcfcfc #000000 #000000 0 1;
#X msg 51 -73 \$1 \$2;
#X obj 133 18 osc~;
#X floatatom 135 -9 5 0 0 0 - - - 0;
#X obj 50 38 *~;
#X obj 254 -163 openpanel;
#N canvas 0 22 450 278 (subpatch) 0;
#X array sample_data_amen_break 308112 float 4;
#X coords 0 1 308111 -1 200 140 1 0 0;
#X restore 545 -138 graph;
#X obj 254 -118 soundfiler;
#X obj 253 -187 bng 15 250 50 0 empty empty empty 17 7 0 10 #fcfcfc
#000000 #000000;
#X floatatom 254 -85 15 0 300000 0 - - - 0;
#X msg 254 -141 read -resize \$1 sample_data_amen_break;
#X obj 53 -46 tabplay~ sample_data_amen_break;
#X obj 51 -126 random 308112;
#X obj 49 -164 r pulse_every_2;
#X connect 2 0 0 0;
#X connect 2 0 1 0;
#X connect 3 0 5 0;
#X connect 4 0 3 1;
#X connect 5 0 15 0;
#X connect 6 0 8 1;
#X connect 7 0 6 0;
#X connect 8 0 2 0;
#X connect 9 0 14 0;
#X connect 11 0 13 0;
#X connect 12 0 9 0;
#X connect 14 0 11 0;
#X connect 15 0 8 0;
#X connect 16 0 3 0;
#X connect 17 0 16 0;
#X restore 976 648 pd sample_s_2;
#X obj 778 142 s pulse_every_2;
#X obj 1160 161 select 0;
#X obj 1161 141 % 8;
#X obj 1144 181 s pulse_every_8;
#X obj 812 71 s pulse_every_1;
#X connect 2 0 3 0;
#X connect 4 0 5 0;
#X connect 5 0 8 0;
#X connect 6 0 9 0;
#X connect 6 0 148 0;
#X connect 7 0 8 0;
#X connect 8 0 6 0;
#X connect 9 0 10 0;
#X connect 9 0 123 0;
#X connect 10 0 11 0;
#X connect 10 0 140 0;
#X connect 10 0 146 0;
#X connect 11 0 12 0;
#X connect 13 0 14 0;
#X connect 14 0 73 0;
#X connect 15 0 49 0;
#X connect 15 0 29 0;
#X connect 16 0 30 0;
#X connect 16 0 50 0;
#X connect 31 0 32 0;
#X connect 32 0 29 0;
#X connect 33 0 34 0;
#X connect 34 0 30 0;
#X connect 35 0 130 0;
#X connect 36 0 129 0;
#X connect 37 0 89 1;
#X connect 39 0 42 0;
#X connect 40 0 41 0;
#X connect 41 0 58 0;
#X connect 42 0 38 0;
#X connect 43 0 86 0;
#X connect 44 0 64 0;
#X connect 45 0 44 0;
#X connect 46 0 63 0;
#X connect 49 0 40 0;
#X connect 49 0 103 0;
#X connect 50 0 39 0;
#X connect 50 0 103 1;
#X connect 51 0 56 0;
#X connect 54 0 57 0;
#X connect 55 0 51 0;
#X connect 56 0 52 0;
#X connect 56 0 53 0;
#X connect 59 0 60 0;
#X connect 60 0 62 0;
#X connect 63 0 47 0;
#X connect 63 1 48 0;
#X connect 64 0 63 1;
#X connect 72 0 83 0;
#X connect 73 0 17 0;
#X connect 73 1 18 0;
#X connect 73 2 19 0;
#X connect 73 3 20 0;
#X connect 73 4 21 0;
#X connect 73 5 22 0;
#X connect 73 6 23 0;
#X connect 73 7 24 0;
#X connect 73 8 25 0;
#X connect 73 9 26 0;
#X connect 73 10 27 0;
#X connect 73 11 67 0;
#X connect 73 12 68 0;
#X connect 73 13 69 0;
#X connect 73 14 70 0;
#X connect 73 15 71 0;
#X connect 74 0 76 0;
#X connect 74 0 75 0;
#X connect 75 0 78 0;
#X connect 76 0 79 0;
#X connect 78 0 80 0;
#X connect 78 0 83 0;
#X connect 79 0 81 0;
#X connect 81 0 83 1;
#X connect 82 0 81 0;
#X connect 84 0 72 0;
#X connect 84 0 82 0;
#X connect 85 0 111 0;
#X connect 88 0 87 0;
#X connect 90 0 89 0;
#X connect 92 0 91 0;
#X connect 93 0 91 1;
#X connect 95 0 94 0;
#X connect 96 0 94 1;
#X connect 99 0 81 0;
#X connect 100 0 101 0;
#X connect 100 0 99 0;
#X connect 101 0 83 0;
#X connect 102 0 4 0;
#X connect 104 0 107 0;
#X connect 107 0 108 0;
#X connect 107 0 110 0;
#X connect 108 0 107 1;
#X connect 109 0 105 0;
#X connect 110 0 109 0;
#X connect 112 0 37 0;
#X connect 112 0 93 0;
#X connect 112 0 96 0;
#X connect 112 0 125 0;
#X connect 113 0 112 0;
#X connect 115 0 116 0;
#X connect 116 0 117 0;
#X connect 117 0 120 0;
#X connect 120 0 118 0;
#X connect 120 0 121 0;
#X connect 120 1 119 0;
#X connect 120 1 122 0;
#X connect 123 0 9 1;
#X connect 125 0 124 1;
#X connect 126 0 124 0;
#X connect 127 0 124 2;
#X connect 128 0 127 0;
#X connect 129 0 16 0;
#X connect 130 0 15 0;
#X connect 131 0 132 0;
#X connect 133 0 132 3;
#X connect 134 0 132 2;
#X connect 135 0 132 1;
#X connect 140 0 141 0;
#X connect 141 0 144 0;
#X connect 145 0 147 0;
#X connect 146 0 145 0;
