#N canvas 402 24 868 708 12;
#N canvas 0 0 1280 800 (subpatch) 0;
#X array $seq_dr_1 64 float 3;
#A 0 1 2 3 4 5 6 7 8 9 10 11 12 13 14 15 16 17 18 19 20 21 22 23 24
25 26 27 28 29 30 31 32 33 34 35 36 37 38 39 40 41 42 43 44 45 46 47
48 49 50 51 52 53 54 55 56 57 58 59 60 61 62 63 64;
#X coords 0 1 64 64 396 271 1 0 0;
#X restore -462 137 graph;
#X floatatom 837 -39 5 0 0 0 - - - 0;
#X msg 839 -21 tempo \$1 permin;
#X obj 839 37 bng 15 250 50 0 empty empty empty 17 7 0 10 #fcfcfc #000000
#000000;
#X obj 820 -22 tgl 15 0 empty empty empty 17 7 0 10 #fcfcfc #000000
#000000 0 1;
#X obj 839 2 metro 0.25 120 permin;
#X obj 1493 351 f;
#X obj 1491 469 hradio 16 1 0 64 empty empty empty 0 -8 0 10 #c6ffc7
#000000 #000000 0;
#X obj 634 200 array get $seq_dr_1;
#X obj 1450 1420 expr~ if($v1 > 1 \, 1 \, $v1);
#X obj 1650 1422 expr~ if($v1 < -1 \, -1 \, $v1);
#X obj 586 473 s $s1;
#X obj 596 452 s $s2;
#X obj 609 429 s $s3;
#X obj 621 411 s $s4;
#X obj 632 388 s $s5;
#X obj 643 369 s $s6;
#X obj 655 344 s $s7;
#X obj 665 321 s $s8;
#X obj 676 474 s $s9;
#X obj 687 451 s $s10;
#X obj 700 431 s $s11;
#X obj 1451 1377 catch~ right_channel;
#X obj 1648 1374 catch~ left_channel;
#X obj 657 1579 tgl 15 0 empty empty empty 17 7 0 10 #fcfcfc #000000
#000000 0 1;
#X obj 1624 1511 vu 15 120 empty empty -1 -8 0 10 #404040 #000000 1
0;
#X obj 1621 1460 env~;
#X obj 1564 1459 env~;
#X obj 1563 1483 - 100;
#X obj 1621 1487 - 100;
#X obj 499 1513 r hh2;
#X obj 386 1281 vsl 15 128 0 127 0 0 empty empty empty 0 -9 0 10 #fcfcfc
#000000 #000000 0 1;
#X obj 365 1259 ctlin 18 1;
#X obj 246 1386 r~ reverb2_no1;
#X obj 165 1508 throw~ right_channel;
#X obj 312 1498 throw~ left_channel;
#X obj 1450 1439 *~ 0.5;
#X obj 1500 1439 *~ 0.5;
#X obj 385 1561 vsl 15 128 0 127 0 0 empty empty empty 0 -9 0 10 #fcfcfc
#000000 #000000 0 1;
#X obj 160 1745 throw~ right_channel;
#X obj 307 1735 throw~ left_channel;
#X obj 181 1623 r~ del2_no2;
#X obj 359 1536 ctlin 19 1;
#X obj 250 1701 delread~ delay_all 0;
#X obj 181 1646 delwrite~ delay_all 400;
#X obj 1565 1512 vu 15 120 empty empty -1 -8 0 10 #404040 #000000 1
0;
#X obj 247 1457 rev2~ 50 100 2000 2;
#X obj 325 1426 - 20;
#N canvas 1 23 1252 710 steps 0;
#N canvas 0 22 450 278 (subpatch) 0;
#X array $step1 15 float 3;
#A 0 87.0857 1.81429 32.6571 0 19.9571 52.6143 0 0 0 0 0 0 0 0 0;
#X coords 0 0 15 127 150 115 1 0 0;
#X restore 19 1622 graph;
#N canvas 0 22 450 278 (subpatch) 0;
#X array $step2 15 float 3;
#A 0 2.72143 3.62857 58.9643 51.7071 49.8929 1.81429 0 0 0 0 0 0 0
0 0;
#X coords 0 0 15 127 150 115 1 0 0;
#X restore 172 1621 graph;
#N canvas 0 22 450 278 (subpatch) 0;
#X array $step3 15 float 3;
#A 0 4.53571 0.907143 1.81429 0.907143 1.81429 1.81429 0 0 0 0 0 0
0 0 0;
#X coords 0 0 15 127 150 115 1 0 0;
#X restore 325 1622 graph;
#N canvas 0 22 450 278 (subpatch) 0;
#X array $step4 15 float 3;
#A 0 0.907143 2.72143 2.72143 0.907143 97.9714 3.62857 0 0 0 0 0 0
0 0 0;
#X coords 0 0 15 127 150 115 1 0 0;
#X restore 478 1621 graph;
#N canvas 0 22 450 278 (subpatch) 0;
#X array $step5 15 float 3;
#A 0 79.8286 1.81429 84.3643 2.72143 3.62857 61.6857 0 0 0 0 0 0 0
0 0;
#X coords 0 0 15 127 150 115 1 0 0;
#X restore 632 1620 graph;
#N canvas 0 22 450 278 (subpatch) 0;
#X array $step6 15 float 3;
#A 0 3.62857 84.3643 0.907143 3.62857 97.9714 0 0 0 0 0 0 0 0 0 0;
#X coords 0 0 15 127 150 115 1 0 0;
#X restore 786 1620 graph;
#N canvas 0 22 450 278 (subpatch) 0;
#X array $step7 15 float 3;
#A 0 2.72143 0 0 0.907143 99.7857 3.62857 0 0 0 0 0 0 0 0 0;
#X coords 0 0 15 127 150 115 1 0 0;
#X restore 940 1621 graph;
#N canvas 0 22 450 278 (subpatch) 0;
#X array $step8 15 float 3;
#A 0 1.81429 0.907143 85.2714 2.72143 97.0643 1.81429 0 0 0 0 0 0 0
0 0;
#X coords 0 0 15 127 150 115 1 0 0;
#X restore 1093 1621 graph;
#N canvas 0 22 450 278 (subpatch) 0;
#X array $step9 15 float 3;
#A 0 80.7357 2.72143 0.907143 0.907143 109.764 69.85 0 0 0 0 0 0 0
0 0;
#X coords 0 0 15 127 150 115 1 0 0;
#X restore 18 1755 graph;
#N canvas 0 22 450 278 (subpatch) 0;
#X array $step10 15 float 3;
#A 0 4.53571 0.907143 2.72143 97.9714 99.7857 1.81429 0 0 0 0 0 0 0
0 0;
#X coords 0 0 15 127 150 115 1 0 0;
#X restore 170 1755 graph;
#N canvas 0 22 450 278 (subpatch) 0;
#X array $step11 15 float 3;
#A 0 0.907143 2.72143 0 3.62857 107.95 0 0 0 0 0 0 0 0 0 0;
#X coords 0 0 15 127 150 115 1 0 0;
#X restore 322 1756 graph;
#N canvas 0 22 450 278 (subpatch) 0;
#X array $step12 15 float 3;
#A 0 0 1.81429 1.81429 104.321 99.7857 2.72143 0 0 0 0 0 0 0 0 0;
#X coords 0 0 15 127 150 115 1 0 0;
#X restore 475 1756 graph;
#N canvas 0 22 450 278 (subpatch) 0;
#X array $step13 15 float 3;
#A 0 75.2929 1.81429 97.9714 2.72143 1.81429 71.6643 0 0 0 0 0 0 0
0 0;
#X coords 0 0 15 127 150 115 1 0 0;
#X restore 630 1756 graph;
#N canvas 0 22 450 278 (subpatch) 0;
#X array $step14 15 float 3;
#A 0 0.907143 78.0143 0.907143 0.907143 106.136 3.62857 0 0 0 0 0 0
0 0 0;
#X coords 0 0 15 127 150 115 1 0 0;
#X restore 785 1754 graph;
#N canvas 0 22 450 278 (subpatch) 0;
#X array $step15 15 float 3;
#A 0 1.81429 0 0.907143 0.907143 110.671 4.53571 0 0 0 0 0 0 0 0 0
;
#X coords 0 0 15 127 150 115 1 0 0;
#X restore 940 1754 graph;
#N canvas 0 22 450 278 (subpatch) 0;
#X array $step16 15 float 3;
#A 0 4.53571 56.2429 0.907143 3.62857 110.671 3.62857 0 0 0 0 0 0 0
0 0;
#X coords 0 0 15 127 150 115 1 0 0;
#X restore 1094 1752 graph;
#N canvas 0 22 450 278 (subpatch) 0;
#X array $step1_poly_synth_no1 4 float 3;
#A 0 3.62857 3.62857 3.62857 3.62857;
#X coords 0 0 4 127 100 70 1 0 0;
#X restore 101 -157 graph;
#N canvas 0 22 450 278 (subpatch) 0;
#X array $step2_poly_synth_no1 4 float 3;
#A 0 3.62857 3.62857 3.62857 3.62857;
#X coords 0 0 4 127 100 70 1 0 0;
#X restore 206 -157 graph;
#N canvas 0 22 450 278 (subpatch) 0;
#X array $step5_poly_synth_no1 4 float 3;
#A 0 0 0.907143 0.907143 1.81429;
#X coords 0 0 4 127 100 70 1 0 0;
#X restore 520 -157 graph;
#N canvas 0 22 450 278 (subpatch) 0;
#X array $step6_poly_synth_no1 4 float 3;
#A 0 0 1.81429 1.81429 0;
#X coords 0 0 4 127 100 70 1 0 0;
#X restore 624 -158 graph;
#N canvas 0 22 450 278 (subpatch) 0;
#X array $step3_poly_synth_no1 4 float 3;
#A 0 1.81429 1.81429 1.81429 2.72143;
#X coords 0 0 4 127 100 70 1 0 0;
#X restore 309 -157 graph;
#N canvas 0 22 450 278 (subpatch) 0;
#X array $step4_poly_synth_no1 4 float 3;
#A 0 2.72143 1.81429 2.72143 0;
#X coords 0 0 4 127 100 70 1 0 0;
#X restore 414 -157 graph;
#N canvas 0 22 450 278 (subpatch) 0;
#X array $step7_poly_synth_no1 4 float 3;
#A 0 0.907143 0.907143 0.907143 2.72141;
#X coords 0 0 4 127 100 70 1 0 0;
#X restore 729 -158 graph;
#N canvas 0 22 450 278 (subpatch) 0;
#X array $step8_poly_synth_no1 4 float 3;
#A 0 3.62857 3.62857 3.62857 6.34998;
#X coords 0 0 4 127 100 70 1 0 0;
#X restore 834 -159 graph;
#N canvas 0 22 450 278 (subpatch) 0;
#X array $step9_poly_synth_no1 4 float 3;
#A 0 1.81429 1.81429 0.90712 3.62857;
#X coords 0 0 4 127 100 70 1 0 0;
#X restore 100 -73 graph;
#N canvas 0 22 450 278 (subpatch) 0;
#X array $step10_poly_synth_no1 4 float 3;
#A 0 1.81429 1.81429 1.81429 1.81429;
#X coords 0 0 4 127 100 70 1 0 0;
#X restore 207 -74 graph;
#N canvas 0 22 450 278 (subpatch) 0;
#X array $step13_poly_synth_no1 4 float 3;
#A 0 0.907143 0.907143 0.907143 2.72143;
#X coords 0 0 4 127 100 70 1 0 0;
#X restore 522 -73 graph;
#N canvas 0 22 450 278 (subpatch) 0;
#X array $step14_poly_synth_no1 4 float 3;
#A 0 0.907143 1.81429 0.907143 0;
#X coords 0 0 4 127 100 70 1 0 0;
#X restore 627 -74 graph;
#N canvas 0 22 450 278 (subpatch) 0;
#X array $step11_poly_synth_no1 4 float 3;
#A 0 1.81429 1.81429 1.81429 0.907143;
#X coords 0 0 4 127 100 70 1 0 0;
#X restore 310 -74 graph;
#N canvas 0 22 450 278 (subpatch) 0;
#X array $step12_poly_synth_no1 4 float 3;
#A 0 0.907143 0.907143 0 1.81429;
#X coords 0 0 4 127 100 70 1 0 0;
#X restore 416 -74 graph;
#N canvas 0 22 450 278 (subpatch) 0;
#X array $step15_poly_synth_no1 4 float 3;
#A 0 0.907143 0.907143 0.907143 0.907143;
#X coords 0 0 4 127 100 70 1 0 0;
#X restore 731 -72 graph;
#N canvas 0 22 450 278 (subpatch) 0;
#X array $step16_poly_synth_no1 4 float 3;
#A 0 1.81429 1.81429 1.81429 0.907143;
#X coords 0 0 4 127 100 70 1 0 0;
#X restore 836 -74 graph;
#X obj 2008 -57 bng 15 250 50 0 empty empty empty 17 7 0 10 #fcfcfc
#000000 #000000;
#X obj 1832 26 tabwrite $step1_poly_synth_no1;
#X obj 1832 49 tabwrite $step2_poly_synth_no1;
#X obj 1832 72 tabwrite $step3_poly_synth_no1;
#X obj 1833 96 tabwrite $step4_poly_synth_no1;
#X obj 1832 122 tabwrite $step5_poly_synth_no1;
#X obj 1832 145 tabwrite $step6_poly_synth_no1;
#X obj 1832 168 tabwrite $step7_poly_synth_no1;
#X obj 1833 192 tabwrite $step8_poly_synth_no1;
#X obj 2133 27 tabwrite $step9_poly_synth_no1;
#X obj 2133 50 tabwrite $step10_poly_synth_no1;
#X obj 2133 73 tabwrite $step11_poly_synth_no1;
#X obj 2134 97 tabwrite $step12_poly_synth_no1;
#X obj 2133 123 tabwrite $step13_poly_synth_no1;
#X obj 2133 146 tabwrite $step14_poly_synth_no1;
#X obj 2133 169 tabwrite $step15_poly_synth_no1;
#X obj 2134 193 tabwrite $step16_poly_synth_no1;
#X obj 1832 7 unpack f f;
#X obj 2228 -59 bng 15 250 50 0 empty empty empty 17 7 0 10 #fcfcfc
#000000 #000000;
#X obj 2052 5 unpack f f;
#X floatatom 2050 -101 5 0 0 0 - - - 0;
#X obj 2124 -101 random 127;
#X obj 2298 -100 tgl 15 0 empty empty empty 17 7 0 10 #fcfcfc #000000
#000000 0 1;
#X floatatom 2049 -122 5 0 0 0 - - - 0;
#X obj 2123 -122 random 127;
#X obj 2297 -121 tgl 15 0 empty empty empty 17 7 0 10 #fcfcfc #000000
#000000 0 1;
#X floatatom 2048 -142 5 0 0 0 - - - 0;
#X obj 2122 -142 random 127;
#X obj 2296 -141 tgl 15 0 empty empty empty 17 7 0 10 #fcfcfc #000000
#000000 0 1;
#X obj 2209 -141 metro 1000;
#X obj 2210 -121 metro 1000;
#X obj 2211 -100 metro 1000;
#X msg 1832 -14 57 3;
#X msg 1831 -34 60 2;
#X msg 1831 -55 64 1;
#X msg 1830 -75 66 0;
#X msg 2050 -77 66 0;
#X msg 2051 -57 64 1;
#X msg 2051 -36 60 2;
#X msg 2052 -16 57 3;
#N canvas 0 22 450 278 (subpatch) 0;
#X array $step17 15 float 3;
#A 0 66.2214 1.81429 0 0 3.62857 24.2957 0 0 0 0 0 0 0 0 0;
#X coords 0 0 15 127 150 115 1 0 0;
#X restore 17 1890 graph;
#N canvas 0 22 450 278 (subpatch) 0;
#X array $step18 15 float 3;
#A 0 0.907143 0 0 2.2087 2.2087 2.2087 2.2087 2.2087 2.2087 3.31319
4.41768 4.41768 0 0 0;
#X coords 0 0 15 127 150 115 1 0 0;
#X restore 171 1891 graph;
#N canvas 0 22 450 278 (subpatch) 0;
#X array $step19 16 float 3;
#A 0 1.81429 1.81429 3.62857 0.907143 99.7857 1.81429 0 0 0 0 0 0 0
0 0 0;
#X coords 0 0 16 127 150 115 1 0 0;
#X restore 324 1891 graph;
#N canvas 0 22 450 278 (subpatch) 0;
#X array $step20 15 float 3;
#A 0 3.62857 5.44286 2.72143 0.907143 97.9714 3.62857 0 0 0 0 0 0 0
0 0;
#X coords 0 0 15 127 150 115 1 0 0;
#X restore 477 1890 graph;
#N canvas 0 22 450 278 (subpatch) 0;
#X array $step21 15 float 3;
#A 0 88.9 1.81429 84.3643 2.72143 3.62857 61.6857 0 0 0 0 0 0 0 0 0
;
#X coords 0 0 15 127 150 115 1 0 0;
#X restore 632 1889 graph;
#N canvas 0 22 450 278 (subpatch) 0;
#X array $step22 15 float 3;
#A 0 3.62857 93.4357 79.513 3.62857 97.9714 0 0 0 0 0 0 0 0 0 0;
#X coords 0 0 15 127 150 115 1 0 0;
#X restore 788 1888 graph;
#N canvas 0 22 450 278 (subpatch) 0;
#X array $step23 15 float 3;
#A 0 2.72143 0 0 0.907143 99.7857 3.62857 0 0 0 0 0 0 0 0 0;
#X coords 0 0 15 127 150 115 1 0 0;
#X restore 943 1889 graph;
#N canvas 0 22 450 278 (subpatch) 0;
#X array $step24 15 float 3;
#A 0 1.81429 0.907143 85.2714 2.72143 97.0643 1.81429 0 0 0 0 0 0 0
0 0;
#X coords 0 0 15 127 150 115 1 0 0;
#X restore 1098 1890 graph;
#N canvas 0 22 450 278 (subpatch) 0;
#X array $step25 15 float 3;
#A 0 80.7357 2.72143 56.2429 0.907143 109.764 29.0286 0 0 0 0 0 0 0
0 0;
#X coords 0 0 15 127 150 115 1 0 0;
#X restore 18 2022 graph;
#N canvas 0 22 450 278 (subpatch) 0;
#X array $step26 15 float 3;
#A 0 4.53571 0.907143 60.7786 97.9714 99.7857 1.81429 0 0 0 0 0 0 0
0 0;
#X coords 0 0 15 127 150 115 1 0 0;
#X restore 172 2021 graph;
#N canvas 0 22 450 278 (subpatch) 0;
#X array $step27 15 float 3;
#A 0 5.44286 80.7357 0 3.62857 107.95 0 0 0 0 0 0 0 0 0 0;
#X coords 0 0 15 127 150 115 1 0 0;
#X restore 326 2021 graph;
#N canvas 0 22 450 278 (subpatch) 0;
#X array $step28 15 float 3;
#A 0 0 1.81429 1.81429 104.321 99.7857 2.72143 0 0 0 0 0 0 0 0 0;
#X coords 0 0 15 127 150 115 1 0 0;
#X restore 479 2020 graph;
#N canvas 0 22 450 278 (subpatch) 0;
#X array $step29 15 float 3;
#A 0 84.3643 1.81429 97.9714 2.72143 1.81429 71.6643 0 0 0 0 0 0 0
0 0;
#X coords 0 0 15 127 150 115 1 0 0;
#X restore 633 2020 graph;
#N canvas 0 22 450 278 (subpatch) 0;
#X array $step30 15 float 3;
#A 0 0.907143 77.1071 85.2714 84.3643 106.136 3.62857 0 0 0 0 0 0 0
0 0;
#X coords 0 0 15 127 150 115 1 0 0;
#X restore 787 2019 graph;
#N canvas 0 22 450 278 (subpatch) 0;
#X array $step31 15 float 3;
#A 0 1.81429 0 95.25 2.72143 110.671 4.53571 0 0 0 0 0 0 0 0 0;
#X coords 0 0 15 127 150 115 1 0 0;
#X restore 940 2017 graph;
#N canvas 0 22 450 278 (subpatch) 0;
#X array $step32 15 float 3;
#A 0 4.53571 1.81429 96.1571 3.62857 110.671 3.62857 0 0 0 0 0 0 0
0 0;
#X coords 0 0 15 127 150 115 1 0 0;
#X restore 1097 2018 graph;
#N canvas 0 22 450 278 (subpatch) 0;
#X array $step37 15 float 3;
#A 0 90.7143 1.81429 0 0 3.62857 104.321 0 0 0 0 0 0 0 0 0;
#X coords 0 0 15 127 150 115 1 0 0;
#X restore 633 2153 graph;
#N canvas 0 22 450 278 (subpatch) 0;
#X array $step38 15 float 3;
#A 0 0.907143 79.8286 0 0 97.0643 1.81429 0 0 0 0 0 0 0 0 0;
#X coords 0 0 15 127 150 115 1 0 0;
#X restore 789 2152 graph;
#N canvas 0 22 450 278 (subpatch) 0;
#X array $step39 15 float 3;
#A 0 3.62857 3.62857 3.62857 0.907143 99.7857 1.81429 0 0 0 0 0 0 0
0 0;
#X coords 0 0 15 127 150 115 1 0 0;
#X restore 943 2150 graph;
#N canvas 0 22 450 278 (subpatch) 0;
#X array $step40 15 float 3;
#A 0 4.53571 2.72143 2.72143 0.907143 97.9714 3.62857 0 0 0 0 0 0 0
0 0;
#X coords 0 0 15 127 150 115 1 0 0;
#X restore 1098 2148 graph;
#N canvas 0 22 450 278 (subpatch) 0;
#X array $step45 15 float 3;
#A 0 84.3643 0.907143 87.9929 0.907143 0.907143 0.907143 0 0 0 0 0
0 0 0 0;
#X coords 0 0 15 127 150 115 1 0 0;
#X restore 635 2281 graph;
#N canvas 0 22 450 278 (subpatch) 0;
#X array $step46 15 float 3;
#A 0 1.81429 71.6643 1.81429 1.81429 1.81429 1.81429 0 0 0 0 0 0 0
0 0;
#X coords 0 0 15 127 150 115 1 0 0;
#X restore 789 2281 graph;
#N canvas 0 22 450 278 (subpatch) 0;
#X array $step47 15 float 3;
#A 0 2.72143 2.72143 2.72143 2.72143 4.53571 1.81432 0 0 0 0 0 0 0
0 0;
#X coords 0 0 15 127 150 115 1 0 0;
#X restore 944 2280 graph;
#N canvas 0 22 450 278 (subpatch) 0;
#X array $step48 15 float 3;
#A 0 2.72143 2.72143 2.72143 2.72143 95.25 2.72143 0 0 0 0 0 0 0 0
0;
#X coords 0 0 15 127 150 115 1 0 0;
#X restore 1098 2280 graph;
#N canvas 0 22 450 278 (subpatch) 0;
#X array $step53 15 float 3;
#A 0 99.7857 1.81429 86.1786 1.81429 1.81429 1.81429 0 0 0 0 0 0 0
0 0;
#X coords 0 0 15 127 150 115 1 0 0;
#X restore 635 2413 graph;
#N canvas 0 22 450 278 (subpatch) 0;
#X array $step54 15 float 3;
#A 0 3.62857 68.0357 3.62857 3.62857 3.62857 2.72147 0 0 0 0 0 0 0
0 0;
#X coords 0 0 15 127 150 115 1 0 0;
#X restore 790 2411 graph;
#N canvas 0 22 450 278 (subpatch) 0;
#X array $step55 15 float 3;
#A 0 0 0 0 0 0.907143 0 0 0 0 0 0 0 0 0 0;
#X coords 0 0 15 127 150 115 1 0 0;
#X restore 944 2409 graph;
#N canvas 0 22 450 278 (subpatch) 0;
#X array $step56 15 float 3;
#A 0 1.81429 1.81429 1.81429 1.81429 96.1571 1.81429 0 0 0 0 0 0 0
0 0;
#X coords 0 0 15 127 150 115 1 0 0;
#X restore 1098 2408 graph;
#N canvas 0 22 450 278 (subpatch) 0;
#X array $step61 15 float 3;
#A 0 95.25 0.907143 4.53571 0.907143 0.907143 0.907143 0 0 0 0 0 0
0 0 0;
#X coords 0 0 15 127 150 115 1 0 0;
#X restore 636 2549 graph;
#N canvas 0 22 450 278 (subpatch) 0;
#X array $step62 15 float 3;
#A 0 0.907143 84.3643 85.2714 1.81429 89.8071 1.81429 0 0 0 0 0 0 0
0 0;
#X coords 0 0 15 127 150 115 1 0 0;
#X restore 789 2548 graph;
#N canvas 0 22 450 278 (subpatch) 0;
#X array $step63 15 float 3;
#A 0 2.72143 2.72143 80.7357 2.72143 101.6 1.8142 0 0 0 0 0 0 0 0 0
;
#X coords 0 0 15 127 150 115 1 0 0;
#X restore 946 2547 graph;
#N canvas 0 22 450 278 (subpatch) 0;
#X array $step64 15 float 3;
#A 0 1.81429 0.907143 88.9 2.72143 89.8071 1.81429 0 0 0 0 0 0 0 0
0;
#X coords 0 0 15 127 150 115 1 0 0;
#X restore 1105 2548 graph;
#N canvas 0 22 450 278 (subpatch) 0;
#X array $step33 15 float 3;
#A 0 78.0143 1.81429 0 0 3.62857 53.5214 0 0 0 0 0 0 0 0 0;
#X coords 0 0 15 127 150 115 1 0 0;
#X restore 18 2154 graph;
#N canvas 0 22 450 278 (subpatch) 0;
#X array $step34 15 float 3;
#A 0 0.907143 0 0 0 97.0643 1.81429 0 0 0 0 0 0 0 0 0;
#X coords 0 0 15 127 150 115 1 0 0;
#X restore 171 2153 graph;
#N canvas 0 22 450 278 (subpatch) 0;
#X array $step35 15 float 3;
#A 0 3.62857 3.62857 57.15 0.907143 99.7857 105.229 0 0 0 0 0 0 0 0
0;
#X coords 0 0 15 127 150 115 1 0 0;
#X restore 328 2154 graph;
#N canvas 0 22 450 278 (subpatch) 0;
#X array $step36 15 float 3;
#A 0 2.72143 2.72143 2.72143 0.907143 97.9714 3.62857 0 0 0 0 0 0 0
0 0;
#X coords 0 0 15 127 150 115 1 0 0;
#X restore 480 2153 graph;
#N canvas 0 22 450 278 (subpatch) 0;
#X array $step41 15 float 3;
#A 0 77.1071 3.62857 3.62857 3.62857 3.62857 87.9929 0 0 0 0 0 0 0
0 0;
#X coords 0 0 15 127 150 115 1 0 0;
#X restore 18 2283 graph;
#N canvas 0 22 450 278 (subpatch) 0;
#X array $step42 15 float 3;
#A 0 1.81429 1.81429 1.81429 1.81429 2.72145 1.81429 0 0 0 0 0 0 0
0 0;
#X coords 0 0 15 127 150 115 1 0 0;
#X restore 173 2282 graph;
#N canvas 0 22 450 278 (subpatch) 0;
#X array $step43 15 float 3;
#A 0 7.25714 1.81429 1.81429 1.81429 1.81429 1.81429 0 0 0 0 0 0 0
0 0;
#X coords 0 0 15 127 150 115 1 0 0;
#X restore 329 2283 graph;
#N canvas 0 22 450 278 (subpatch) 0;
#X array $step44 15 float 3;
#A 0 0 0 0 0 0 0.907166 0 0 0 0 0 0 0 0 0;
#X coords 0 0 15 127 150 115 1 0 0;
#X restore 483 2282 graph;
#N canvas 0 22 450 278 (subpatch) 0;
#X array $step49 15 float 3;
#A 0 93.4357 1.81429 1.81429 1.81429 1.81429 1.81429 0 0 0 0 0 0 0
0 0;
#X coords 0 0 15 127 150 115 1 0 0;
#X restore 17 2415 graph;
#N canvas 0 22 450 278 (subpatch) 0;
#X array $step50 15 float 3;
#A 0 3.62857 3.62857 3.62857 3.62857 3.62857 1.81429 0 0 0 0 0 0 0
0 0;
#X coords 0 0 15 127 150 115 1 0 0;
#X restore 173 2415 graph;
#N canvas 0 22 450 278 (subpatch) 0;
#X array $step51 15 float 3;
#A 0 3.62857 2.72143 2.72143 2.72143 2.72143 2.72143 0 0 0 0 0 0 0
0 0;
#X coords 0 0 15 127 150 115 1 0 0;
#X restore 328 2415 graph;
#N canvas 0 22 450 278 (subpatch) 0;
#X array $step52 15 float 3;
#A 0 1.81429 1.81429 1.81429 1.81429 1.81429 1.81429 0 0 0 0 0 0 0
0 0;
#X coords 0 0 15 127 150 115 1 0 0;
#X restore 481 2412 graph;
#N canvas 0 22 450 278 (subpatch) 0;
#X array $step57 15 float 3;
#A 0 87.9929 0 0 0 0 82.55 0 0 0 0 0 0 0 0 0;
#X coords 0 0 15 127 150 115 1 0 0;
#X restore 15 2549 graph;
#N canvas 0 22 450 278 (subpatch) 0;
#X array $step58 15 float 3;
#A 0 0.907143 0.907143 0.907143 0.907143 3.83854e-05 12.1478 0 0 0
0 0 0 0 0 0;
#X coords 0 0 15 127 150 115 1 0 0;
#X restore 172 2549 graph;
#N canvas 0 22 450 278 (subpatch) 0;
#X array $step59 15 float 3;
#A 0 4.53571 2.72143 2.72143 99.7857 4.53571 4.53571 0 0 0 0 0 0 0
0 0;
#X coords 0 0 15 127 150 115 1 0 0;
#X restore 328 2548 graph;
#N canvas 0 22 450 278 (subpatch) 0;
#X array $step60 15 float 3;
#A 0 4.53571 0 0 0 0 3.62857 0 0 0 0 0 0 0 0 0;
#X coords 0 0 15 127 150 115 1 0 0;
#X restore 484 2547 graph;
#N canvas 0 22 450 278 (subpatch) 0;
#X array $step17_poly_synth_no1 4 float 3;
#A 0 3.62857 3.62857 3.62857 3.62857;
#X coords 0 0 4 127 100 70 1 0 0;
#X restore 99 15 graph;
#N canvas 0 22 450 278 (subpatch) 0;
#X array $step18_poly_synth_no1 4 float 3;
#A 0 0.907143 1.81429 0 0;
#X coords 0 0 4 127 100 70 1 0 0;
#X restore 207 14 graph;
#N canvas 0 22 450 278 (subpatch) 0;
#X array $step19_poly_synth_no1 4 float 3;
#A 0 1.81429 2.72143 4.53571 4.53571;
#X coords 0 0 4 127 100 70 1 0 0;
#X restore 314 15 graph;
#N canvas 0 22 450 278 (subpatch) 0;
#X array $step20_poly_synth_no1 4 float 3;
#A 0 1.81429 1.81429 2.72143 0;
#X coords 0 0 4 127 100 70 1 0 0;
#X restore 418 15 graph;
#N canvas 0 22 450 278 (subpatch) 0;
#X array $step25_poly_synth_no1 4 float 3;
#A 0 1.81429 1.81429 0.907143 -0.907211;
#X coords 0 0 4 127 100 70 1 0 0;
#X restore 98 103 graph;
#N canvas 0 22 450 278 (subpatch) 0;
#X array $step26_poly_synth_no1 4 float 3;
#A 0 3.62857 3.62857 3.62857 3.62857;
#X coords 0 0 4 127 100 70 1 0 0;
#X restore 205 102 graph;
#N canvas 0 22 450 278 (subpatch) 0;
#X array $step27_poly_synth_no1 4 float 3;
#A 0 1.81429 1.81429 1.81429 0.907143;
#X coords 0 0 4 127 100 70 1 0 0;
#X restore 310 104 graph;
#N canvas 0 22 450 278 (subpatch) 0;
#X array $step28_poly_synth_no1 4 float 3;
#A 0 0.907143 0.907143 0 3.62857;
#X coords 0 0 4 127 100 70 1 0 0;
#X restore 418 105 graph;
#N canvas 0 22 450 278 (subpatch) 0;
#X array $step21_poly_synth_no1 4 float 3;
#A 0 0 0.907143 0.907143 1.81429;
#X coords 0 0 4 127 100 70 1 0 0;
#X restore 523 17 graph;
#N canvas 73 298 450 278 (subpatch) 0;
#X array $step22_poly_synth_no1 4 float 3;
#A 0 0 1.81429 3.62857 0;
#X coords 0 0 4 127 100 70 1 0 0;
#X restore 629 13 graph;
#N canvas 0 22 450 278 (subpatch) 0;
#X array $step23_poly_synth_no1 4 float 3;
#A 0 6.35 6.35 6.35 8.16427;
#X coords 0 0 4 127 100 70 1 0 0;
#X restore 736 15 graph;
#N canvas 0 22 450 278 (subpatch) 0;
#X array $step24_poly_synth_no1 4 float 3;
#A 0 5.44286 5.44286 5.44286 85.2714;
#X coords 0 0 4 127 100 70 1 0 0;
#X restore 837 14 graph;
#N canvas 0 22 450 278 (subpatch) 0;
#X array $step29_poly_synth_no1 4 float 3;
#A 0 1.81429 0 85.2714 92.5286;
#X coords 0 0 4 127 100 70 1 0 0;
#X restore 522 105 graph;
#N canvas 0 22 450 278 (subpatch) 0;
#X array $step30_poly_synth_no1 4 float 3;
#A 0 0.907143 1.81429 3.62857 88.9;
#X coords 0 0 4 127 100 70 1 0 0;
#X restore 628 102 graph;
#N canvas 0 22 450 278 (subpatch) 0;
#X array $step31_poly_synth_no1 4 float 3;
#A 0 5.44286 5.44286 5.44286 1.81429;
#X coords 0 0 4 127 100 70 1 0 0;
#X restore 738 102 graph;
#N canvas 0 22 450 278 (subpatch) 0;
#X array $step32_poly_synth_no1 4 float 3;
#A 0 7.25714 7.25714 7.25714 5.44286;
#X coords 0 0 4 127 100 70 1 0 0;
#X restore 838 100 graph;
#N canvas 0 22 450 278 (subpatch) 0;
#X array $step1_bass_synth_no1 4 float 3;
#A 0 38.1 0.907143 0.907143 4.53556;
#X coords 0 0 4 127 100 70 1 0 0;
#X restore 93 280 graph;
#N canvas 0 22 450 278 (subpatch) 0;
#X array $step2_bass_synth_no1 4 float 3;
#A 0 38.1 0 0 0;
#X coords 0 0 4 127 100 70 1 0 0;
#X restore 202 281 graph;
#N canvas 0 22 450 278 (subpatch) 0;
#X array $step3_bass_synth_no1 4 float 3;
#A 0 38.1 1.81429 1.81429 2.72143;
#X coords 0 0 4 127 100 70 1 0 0;
#X restore 311 280 graph;
#N canvas 0 22 450 278 (subpatch) 0;
#X array $step4_bass_synth_no1 4 float 3;
#A 0 5.44286 1.81429 2.72143 0;
#X coords 0 0 4 127 100 70 1 0 0;
#X restore 419 280 graph;
#N canvas 0 22 450 278 (subpatch) 0;
#X array $step9_bass_synth_no1 4 float 3;
#A 0 1.81429 1.81429 0.90712 -0.907211;
#X coords 0 0 4 127 100 70 1 0 0;
#X restore 92 365 graph;
#N canvas 0 22 450 278 (subpatch) 0;
#X array $step10_bass_synth_no1 4 float 3;
#A 0 1.81429 0.907143 1.81429 0.907143;
#X coords 0 0 4 127 100 70 1 0 0;
#X restore 201 365 graph;
#N canvas 0 22 450 278 (subpatch) 0;
#X array $step11_bass_synth_no1 4 float 3;
#A 0 1.81429 1.81429 3.62857 0.907143;
#X coords 0 0 4 127 100 70 1 0 0;
#X restore 311 365 graph;
#N canvas 0 22 450 278 (subpatch) 0;
#X array $step12_bass_synth_no1 4 float 3;
#A 0 0.907143 0.907143 0 2.72143;
#X coords 0 0 4 127 100 70 1 0 0;
#X restore 420 365 graph;
#N canvas 0 22 450 278 (subpatch) 0;
#X array $step17_bass_synth_no1 4 float 3;
#A 0 30.8429 2.72143 2.72143 0.90722;
#X coords 0 0 4 127 100 70 1 0 0;
#X restore 91 453 graph;
#N canvas 0 22 450 278 (subpatch) 0;
#X array $step18_bass_synth_no1 4 float 3;
#A 0 0.907143 0 0 0;
#X coords 0 0 4 127 100 70 1 0 0;
#X restore 198 453 graph;
#N canvas 0 22 450 278 (subpatch) 0;
#X array $step19_bass_synth_no1 4 float 3;
#A 0 1.81429 1.81429 1.81429 2.72143;
#X coords 0 0 4 127 100 70 1 0 0;
#X restore 309 451 graph;
#N canvas 0 22 450 278 (subpatch) 0;
#X array $step20_bass_synth_no1 4 float 3;
#A 0 5.44286 1.81429 3.62857 0;
#X coords 0 0 4 127 100 70 1 0 0;
#X restore 419 450 graph;
#N canvas 0 22 450 278 (subpatch) 0;
#X array $step25_bass_synth_no1 4 float 3;
#A 0 1.81429 1.81429 0.90712 -0.907211;
#X coords 0 0 4 127 100 70 1 0 0;
#X restore 91 540 graph;
#N canvas 0 22 450 278 (subpatch) 0;
#X array $step26_bass_synth_no1 4 float 3;
#A 0 1.81429 0.907143 1.81429 0.907143;
#X coords 0 0 4 127 100 70 1 0 0;
#X restore 198 538 graph;
#N canvas 0 22 450 278 (subpatch) 0;
#X array $step27_bass_synth_no1 4 float 3;
#A 0 2.72143 1.81429 4.53571 0.907143;
#X coords 0 0 4 127 100 70 1 0 0;
#X restore 307 537 graph;
#N canvas 0 22 450 278 (subpatch) 0;
#X array $step28_bass_synth_no1 4 float 3;
#A 0 0.907143 0.907143 0 2.72143;
#X coords 0 0 4 127 100 70 1 0 0;
#X restore 419 536 graph;
#N canvas 0 22 450 278 (subpatch) 0;
#X array $step5_bass_synth_no1 4 float 3;
#A 0 1.81429 0.907143 0.907143 1.81429;
#X coords 0 0 4 127 100 70 1 0 0;
#X restore 526 280 graph;
#N canvas 0 22 450 278 (subpatch) 0;
#X array $step6_bass_synth_no1 4 float 3;
#A 0 3.62857 1.81429 1.81429 0;
#X coords 0 0 4 127 100 70 1 0 0;
#X restore 631 279 graph;
#N canvas 0 22 450 278 (subpatch) 0;
#X array $step7_bass_synth_no1 4 float 3;
#A 0 0.907143 0.907143 0.907143 0.907143;
#X coords 0 0 4 127 100 70 1 0 0;
#X restore 737 278 graph;
#N canvas 0 22 450 278 (subpatch) 0;
#X array $step8_bass_synth_no1 4 float 3;
#A 0 2.72143 2.72143 2.72143 1.81426;
#X coords 0 0 4 127 100 70 1 0 0;
#X restore 842 279 graph;
#N canvas 0 22 450 278 (subpatch) 0;
#X array $step13_bass_synth_no1 4 float 3;
#A 0 36.2857 0.907143 0.907143 2.72143;
#X coords 0 0 4 127 100 70 1 0 0;
#X restore 527 365 graph;
#N canvas 0 22 450 278 (subpatch) 0;
#X array $step14_bass_synth_no1 4 float 3;
#A 0 5.44286 1.81429 0.907143 0;
#X coords 0 0 4 127 100 70 1 0 0;
#X restore 634 366 graph;
#N canvas 0 22 450 278 (subpatch) 0;
#X array $step15_bass_synth_no1 4 float 3;
#A 0 0.907143 0.907143 0.907143 0.907143;
#X coords 0 0 4 127 100 70 1 0 0;
#X restore 739 366 graph;
#N canvas 0 22 450 278 (subpatch) 0;
#X array $step16_bass_synth_no1 4 float 3;
#A 0 1.81429 1.81429 1.81429 1.81429;
#X coords 0 0 4 127 100 70 1 0 0;
#X restore 843 365 graph;
#N canvas 0 22 450 278 (subpatch) 0;
#X array $step21_bass_synth_no1 4 float 3;
#A 0 0.907143 0.907143 0.907143 1.81429;
#X coords 0 0 4 127 100 70 1 0 0;
#X restore 527 451 graph;
#N canvas 0 22 450 278 (subpatch) 0;
#X array $step22_bass_synth_no1 4 float 3;
#A 0 1.81429 1.81429 1.81429 0;
#X coords 0 0 4 127 100 70 1 0 0;
#X restore 633 452 graph;
#N canvas 0 22 450 278 (subpatch) 0;
#X array $step23_bass_synth_no1 4 float 3;
#A 0 2.72143 2.72143 2.72143 2.72143;
#X coords 0 0 4 127 100 70 1 0 0;
#X restore 739 451 graph;
#N canvas 0 22 450 278 (subpatch) 0;
#X array $step24_bass_synth_no1 4 float 3;
#A 0 1.81429 1.81429 1.81429 2.72145;
#X coords 0 0 4 127 100 70 1 0 0;
#X restore 846 451 graph;
#N canvas 0 22 450 278 (subpatch) 0;
#X array $step29_bass_synth_no1 4 float 3;
#A 0 5.44286 0.907143 0.907143 2.72143;
#X coords 0 0 4 127 100 70 1 0 0;
#X restore 527 536 graph;
#N canvas 0 22 450 278 (subpatch) 0;
#X array $step30_bass_synth_no1 4 float 3;
#A 0 0 1.81429 0.907143 0;
#X coords 0 0 4 127 100 70 1 0 0;
#X restore 635 536 graph;
#N canvas 0 22 450 278 (subpatch) 0;
#X array $step31_bass_synth_no1 4 float 3;
#A 0 87.0857 0.907143 0.907143 0.907143;
#X coords 0 0 4 127 100 70 1 0 0;
#X restore 741 535 graph;
#N canvas 0 22 450 278 (subpatch) 0;
#X array $step32_bass_synth_no1 4 float 3;
#A 0 72.5714 1.81429 1.81429 1.81429;
#X coords 0 0 4 127 100 70 1 0 0;
#X restore 846 534 graph;
#N canvas 0 22 450 278 (subpatch) 0;
#X array $basic_drum_kit_step1 15 float 3;
#A 0 70.6783 2.2087 2.2087 2.2087 2.2087 2.2087 0 0 0 0 0 0 0 0 2.2087
;
#X coords 0 0 15 127 150 115 1 0 0;
#X restore 25 1011 graph;
#N canvas 0 22 450 278 (subpatch) 0;
#X array $basic_drum_kit_step2 15 float 3;
#A 0 2.72143 3.31304 1.10435 2.2087 80.6174 -2.22921e-05 -2.22921e-05
0 0 2.2087 0 0 0 0 0;
#X coords 0 0 15 127 150 115 1 0 0;
#X restore 178 1010 graph;
#N canvas 0 22 450 278 (subpatch) 0;
#X array $basic_drum_kit_step3 15 float 3;
#A 0 2.2087 4.41739 2.2087 0.907143 70.6783 2.2087 2.2087 1.10445 0
0 0 0 0 0 2.2087;
#X coords 0 0 15 127 150 115 1 0 0;
#X restore 331 1011 graph;
#N canvas 0 22 450 278 (subpatch) 0;
#X array $basic_drum_kit_step4 15 float 3;
#A 0 82.8261 1.10435 2.2087 2.2087 78.4087 2.2087 2.2087 3.31307 0
0 0 0 0 0 0;
#X coords 0 0 15 127 150 115 1 0 0;
#X restore 484 1010 graph;
#N canvas 0 22 450 278 (subpatch) 0;
#X array $basic_drum_kit_step5 15 float 3;
#A 0 1.10435 0 75.0956 75.0956 1.10435 76.2 1.10435 0 0 0 0 0 0 0 86.1391
;
#X coords 0 0 15 127 150 115 1 0 0;
#X restore 638 1009 graph;
#N canvas 0 22 450 278 (subpatch) 0;
#X array $basic_drum_kit_step6 15 float 3;
#A 0 3.62857 1.10435 0.907143 3.62857 87.2435 0 0 0 0 0 0 0 0 0 0;
#X coords 0 0 15 127 150 115 1 0 0;
#X restore 792 1009 graph;
#N canvas 0 22 450 278 (subpatch) 0;
#X array $basic_drum_kit_step7 15 float 3;
#A 0 2.72143 0 0 0.907143 80.6174 3.62857 0 0 0 0 0 0 0 0 0;
#X coords 0 0 15 127 150 115 1 0 0;
#X restore 946 1010 graph;
#N canvas 0 22 450 278 (subpatch) 0;
#X array $basic_drum_kit_step8 15 float 3;
#A 0 1.10435 0.907143 68.4696 2.2087 92.7652 1.10435 1.10435 0 0 0
0 0 0 0 0;
#X coords 0 0 15 127 150 115 1 0 0;
#X restore 1099 1010 graph;
#N canvas 0 22 450 278 (subpatch) 0;
#X array $basic_drum_kit_step9 15 float 3;
#A 0 88.3478 2.72143 0.907143 0.907143 2.2087 2.2087 0 0 0 0 0 0 0
0 0;
#X coords 0 0 15 127 150 115 1 0 0;
#X restore 24 1144 graph;
#N canvas 0 22 450 278 (subpatch) 0;
#X array $basic_drum_kit_step10 15 float 3;
#A 0 1.10435 0.907143 2.72143 3.31304 90.5565 3.31304 0 0 0 0 0 0 0
0 0;
#X coords 0 0 15 127 150 115 1 0 0;
#X restore 176 1144 graph;
#N canvas 0 22 450 278 (subpatch) 0;
#X array $basic_drum_kit_step11 15 float 3;
#A 0 0.907143 1.10435 1.10435 1.10435 89.4522 1.10435 1.10435 1.10435
0 0 0 0 0 0 0;
#X coords 0 0 15 127 150 115 1 0 0;
#X restore 328 1145 graph;
#N canvas 0 22 450 278 (subpatch) 0;
#X array $basic_drum_kit_step12 15 float 3;
#A 0 0 1.10435 1.10435 1.10435 92.7652 1.10435 1.10435 0 0 0 0 0 0
0 0;
#X coords 0 0 15 127 150 115 1 0 0;
#X restore 481 1145 graph;
#N canvas 0 22 450 278 (subpatch) 0;
#X array $basic_drum_kit_step13 15 float 3;
#A 0 82.8261 1.81429 83.9304 83.9304 2.2087 83.9304 2.2087 2.2087 0
0 0 0 0 0 0;
#X coords 0 0 15 127 150 115 1 0 0;
#X restore 636 1145 graph;
#N canvas 0 22 450 278 (subpatch) 0;
#X array $basic_drum_kit_step14 15 float 3;
#A 0 0.907143 78.0143 0 0 0 85.0348 0 0 0 0 0 0 0 0 0;
#X coords 0 0 15 127 150 115 1 0 0;
#X restore 791 1143 graph;
#N canvas 0 22 450 278 (subpatch) 0;
#X array $basic_drum_kit_step15 15 float 3;
#A 0 1.81429 0 0.907143 0.907143 87.2435 1.10435 0 0 0 0 0 0 0 0 0
;
#X coords 0 0 15 127 150 115 1 0 0;
#X restore 946 1143 graph;
#N canvas 0 22 450 278 (subpatch) 0;
#X array $basic_drum_kit_step16 15 float 3;
#A 0 4.53571 1.10435 2.20865 3.62857 76.2 3.62857 0 0 0 0 0 0 0 0 0
;
#X coords 0 0 15 127 150 115 1 0 0;
#X restore 1100 1141 graph;
#N canvas 0 22 450 278 (subpatch) 0;
#X array $basic_drum_kit_step17 15 float 3;
#A 0 0 1.81429 0 0 3.62857 24.2957 0 0 0 0 0 0 0 0 0;
#X coords 0 0 15 127 150 115 1 0 0;
#X restore 23 1279 graph;
#N canvas 0 22 450 278 (subpatch) 0;
#X array $basic_drum_kit_step18 15 float 3;
#A 0 0.907143 0 0 2.2087 2.2087 2.2087 2.2087 2.2087 2.2087 3.31319
4.41768 4.41768 0 0 0;
#X coords 0 0 15 127 150 115 1 0 0;
#X restore 177 1280 graph;
#N canvas 0 22 450 278 (subpatch) 0;
#X array $basic_drum_kit_step19 16 float 3;
#A 0 1.81429 1.81429 3.62857 0.907143 99.7857 1.81429 0 0 0 0 0 0 0
0 0 0;
#X coords 0 0 16 127 150 115 1 0 0;
#X restore 330 1280 graph;
#N canvas 0 22 450 278 (subpatch) 0;
#X array $basic_drum_kit_step20 15 float 3;
#A 0 3.62857 5.44286 2.72143 0.907143 97.9714 3.62857 0 0 0 0 0 0 0
0 0;
#X coords 0 0 15 127 150 115 1 0 0;
#X restore 483 1279 graph;
#N canvas 0 22 450 278 (subpatch) 0;
#X array $basic_drum_kit_step21 15 float 3;
#A 0 88.9 1.81429 84.3643 2.72143 3.62857 61.6857 0 0 0 0 0 0 0 0 0
;
#X coords 0 0 15 127 150 115 1 0 0;
#X restore 638 1278 graph;
#N canvas 0 22 450 278 (subpatch) 0;
#X array $basic_drum_kit_step22 15 float 3;
#A 0 3.62857 93.4357 79.513 3.62857 97.9714 0 0 0 0 0 0 0 0 0 0;
#X coords 0 0 15 127 150 115 1 0 0;
#X restore 794 1277 graph;
#N canvas 0 22 450 278 (subpatch) 0;
#X array $basic_drum_kit_step23 15 float 3;
#A 0 2.72143 0 0 0.907143 99.7857 3.62857 0 0 0 0 0 0 0 0 0;
#X coords 0 0 15 127 150 115 1 0 0;
#X restore 949 1278 graph;
#N canvas 0 22 450 278 (subpatch) 0;
#X array $basic_drum_kit_step24 15 float 3;
#A 0 1.81429 0.907143 85.2714 2.72143 97.0643 1.81429 0 0 0 0 0 0 0
0 0;
#X coords 0 0 15 127 150 115 1 0 0;
#X restore 1104 1279 graph;
#N canvas 0 22 450 278 (subpatch) 0;
#X array $basic_drum_kit_step25 15 float 3;
#A 0 3.31304 2.72143 56.2429 0.907143 109.764 29.0286 0 0 0 0 0 0 0
0 0;
#X coords 0 0 15 127 150 115 1 0 0;
#X restore 24 1411 graph;
#N canvas 0 22 450 278 (subpatch) 0;
#X array $basic_drum_kit_step26 15 float 3;
#A 0 4.53571 0.907143 60.7786 97.9714 99.7857 1.81429 0 0 0 0 0 0 0
0 0;
#X coords 0 0 15 127 150 115 1 0 0;
#X restore 178 1410 graph;
#N canvas 0 22 450 278 (subpatch) 0;
#X array $basic_drum_kit_step27 15 float 3;
#A 0 5.44286 80.7357 0 3.62857 107.95 0 0 0 0 0 0 0 0 0 0;
#X coords 0 0 15 127 150 115 1 0 0;
#X restore 332 1410 graph;
#N canvas 0 22 450 278 (subpatch) 0;
#X array $basic_drum_kit_step28 15 float 3;
#A 0 0 1.81429 1.81429 104.321 99.7857 2.72143 0 0 0 0 0 0 0 0 0;
#X coords 0 0 15 127 150 115 1 0 0;
#X restore 485 1409 graph;
#N canvas 0 22 450 278 (subpatch) 0;
#X array $basic_drum_kit_step29 15 float 3;
#A 0 1.10435 1.81429 97.9714 2.72143 1.81429 71.6643 0 0 0 0 0 0 0
0 0;
#X coords 0 0 15 127 150 115 1 0 0;
#X restore 639 1409 graph;
#N canvas 0 22 450 278 (subpatch) 0;
#X array $basic_drum_kit_step30 15 float 3;
#A 0 0.907143 77.1071 85.2714 84.3643 106.136 3.62857 0 0 0 0 0 0 0
0 0;
#X coords 0 0 15 127 150 115 1 0 0;
#X restore 793 1408 graph;
#N canvas 0 22 450 278 (subpatch) 0;
#X array $basic_drum_kit_step31 15 float 3;
#A 0 1.81429 0 95.25 2.72143 110.671 4.53571 0 0 0 0 0 0 0 0 0;
#X coords 0 0 15 127 150 115 1 0 0;
#X restore 946 1406 graph;
#N canvas 0 22 450 278 (subpatch) 0;
#X array $basic_drum_kit_step32 15 float 3;
#A 0 4.53571 1.81429 96.1571 3.62857 110.671 3.62857 0 0 0 0 0 0 0
0 0;
#X coords 0 0 15 127 150 115 1 0 0;
#X restore 1103 1407 graph;
#X connect 32 0 64 0;
#X connect 32 0 65 0;
#X connect 32 0 66 0;
#X connect 32 0 67 0;
#X connect 49 0 33 0;
#X connect 49 1 33 1;
#X connect 50 0 71 0;
#X connect 50 0 70 0;
#X connect 50 0 69 0;
#X connect 50 0 68 0;
#X connect 51 0 40 0;
#X connect 51 1 40 1;
#X connect 52 0 68 0;
#X connect 53 0 52 0;
#X connect 53 0 64 0;
#X connect 54 0 63 0;
#X connect 55 0 69 0;
#X connect 56 0 55 0;
#X connect 56 0 65 0;
#X connect 57 0 62 0;
#X connect 58 0 70 0;
#X connect 59 0 58 0;
#X connect 59 0 66 0;
#X connect 60 0 61 0;
#X connect 61 0 59 0;
#X connect 62 0 56 0;
#X connect 63 0 53 0;
#X connect 64 0 49 0;
#X connect 65 0 49 0;
#X connect 66 0 49 0;
#X connect 67 0 49 0;
#X connect 68 0 51 0;
#X connect 69 0 51 0;
#X connect 70 0 51 0;
#X connect 71 0 51 0;
#X restore 1317 0 pd steps;
#N canvas 0 24 1280 708 steps_with_velocity_to_sound 0;
#X obj -8 204 r $s1;
#X obj -8 232 array get $step1;
#X obj 402 849 s kick;
#X obj 451 892 s sn1;
#X obj 475 916 s sn2;
#X obj 36 178 r $s2;
#X obj 38 204 array get $step2;
#X obj 402 822 unpack f f f f f f;
#X obj 500 937 s hh1;
#X obj 525 959 s hh2;
#X obj 80 154 r $s3;
#X obj 122 133 r $s4;
#X obj 82 176 array get $step3;
#X obj 122 155 array get $step4;
#X obj 168 128 array get $step5;
#X obj 166 106 r $s5;
#X obj 216 78 r $s6;
#X obj 218 104 array get $step6;
#X obj 272 52 r $s7;
#X obj 269 80 array get $step7;
#X obj 320 34 r $s8;
#X obj 319 57 array get $step8;
#X obj 209 221 r $s9;
#X obj 209 249 array get $step9;
#X obj 253 198 r $s10;
#X obj 255 220 array get $step10;
#X obj 297 170 r $s11;
#X obj 299 192 array get $step11;
#X obj 355 149 r $s12;
#X obj 355 171 array get $step12;
#X obj 404 122 r $s13;
#X obj 406 144 array get $step13;
#X obj 460 96 r $s14;
#X obj 457 118 array get $step14;
#X obj 513 74 r $s15;
#X obj 513 97 array get $step15;
#X obj 560 47 r $s16;
#X obj 564 70 array get $step16;
#X obj 426 871 s hho;
#X obj 1586 250 array get $step1_poly_synth_no1;
#X obj 2342 547 s poly_s_no1_v1;
#X obj 2383 418 unpack f f f f;
#X obj 2383 570 s poly_s_no1_v2;
#X obj 2409 602 s poly_s_no1_v3;
#X obj 2430 634 s poly_s_no1_v4;
#X obj 1632 222 array get $step2_poly_synth_no1;
#X obj 1676 194 array get $step3_poly_synth_no1;
#X obj 1716 173 array get $step4_poly_synth_no1;
#X obj 1762 146 array get $step5_poly_synth_no1;
#X obj 1812 122 array get $step6_poly_synth_no1;
#X obj 1863 98 array get $step7_poly_synth_no1;
#X obj 1913 75 array get $step8_poly_synth_no1;
#X obj 1865 252 array get $step9_poly_synth_no1;
#X obj 1911 223 array get $step10_poly_synth_no1;
#X obj 1967 196 array get $step11_poly_synth_no1;
#X obj 2023 175 array get $step12_poly_synth_no1;
#X obj 2096 153 array get $step13_poly_synth_no1;
#X obj 2142 127 array get $step14_poly_synth_no1;
#X obj 2190 105 array get $step15_poly_synth_no1;
#X obj 2241 79 array get $step16_poly_synth_no1;
#X obj 2254 456 expr if($f1 > 10 \, $f1 \, 0);
#X obj 2254 477 select 0;
#X obj 2325 476 expr if($f1 > 10 \, $f1 \, 0);
#X obj 2325 497 select 0;
#X obj 2388 495 expr if($f1 > 10 \, $f1 \, 0);
#X obj 2388 516 select 0;
#X obj 2457 515 expr if($f1 > 10 \, $f1 \, 0);
#X obj 2457 536 select 0;
#X obj 451 267 array get $step17;
#X obj 502 243 array get $step18;
#X obj 550 220 array get $step19;
#X obj 598 197 array get $step20;
#X obj 668 176 array get $step21;
#X obj 719 154 array get $step22;
#X obj 767 131 array get $step23;
#X obj 814 108 array get $step24;
#X obj 453 244 r $s17;
#X obj 501 222 r $s18;
#X obj 549 198 r $s19;
#X obj 598 176 r $s20;
#X obj 667 155 r $s21;
#X obj 718 132 r $s22;
#X obj 767 109 r $s23;
#X obj 815 86 r $s24;
#X obj 732 239 r $s25;
#X obj 780 217 r $s26;
#X obj 828 193 r $s27;
#X obj 877 171 r $s28;
#X obj 926 150 r $s29;
#X obj 976 127 r $s30;
#X obj 730 262 array get $step25;
#X obj 781 238 array get $step26;
#X obj 829 215 array get $step27;
#X obj 877 192 array get $step28;
#X obj 926 171 array get $step29;
#X obj 977 149 array get $step30;
#X obj 1025 126 array get $step31;
#X obj 1072 103 array get $step32;
#X obj -213 630 array get $step35;
#X obj -213 610 r $s35;
#X obj -164 608 array get $step36;
#X obj -166 589 r $s36;
#X obj -119 585 array get $step37;
#X obj -120 565 r $s37;
#X obj -72 561 array get $step38;
#X obj -25 536 array get $step39;
#X obj 21 513 array get $step40;
#X obj -72 539 r $s38;
#X obj -27 514 r $s39;
#X obj 22 492 r $s40;
#X obj 13 634 array get $step43;
#X obj 13 614 r $s43;
#X obj 62 612 array get $step44;
#X obj 60 593 r $s44;
#X obj 107 589 array get $step45;
#X obj 106 569 r $s45;
#X obj 154 565 array get $step46;
#X obj 154 543 r $s46;
#X obj 201 540 array get $step47;
#X obj 199 518 r $s47;
#X obj 247 517 array get $step48;
#X obj 248 496 r $s48;
#X obj 432 677 array get $step49;
#X obj 434 654 r $s49;
#X obj 481 655 array get $step50;
#X obj 482 632 r $s50;
#X obj 1025 104 r $s31;
#X obj 1073 81 r $s32;
#X obj -87 676 array get $step41;
#X obj -38 654 array get $step42;
#X obj -85 653 r $s41;
#X obj -37 631 r $s42;
#X obj -262 632 r $s34;
#X obj -263 655 array get $step34;
#X obj -310 654 r $s33;
#X obj -312 677 array get $step33;
#X obj 532 632 array get $step51;
#X obj 534 609 r $s51;
#X obj 582 587 r $s52;
#X obj 581 610 array get $step52;
#X obj 630 586 array get $step53;
#X obj 632 563 r $s53;
#X obj 680 541 r $s54;
#X obj 679 564 array get $step54;
#X obj 730 541 array get $step55;
#X obj 732 518 r $s55;
#X obj 779 519 array get $step56;
#X obj 780 496 r $s56;
#X obj 779 668 r $s57;
#X obj 777 691 array get $step57;
#X obj 826 669 array get $step58;
#X obj 827 646 r $s58;
#X obj 879 623 r $s59;
#X obj 877 646 array get $step59;
#X obj 927 601 r $s60;
#X obj 926 624 array get $step60;
#X obj 977 577 r $s61;
#X obj 975 600 array get $step61;
#X obj 1024 578 array get $step62;
#X obj 1025 555 r $s62;
#X obj 1075 555 array get $step63;
#X obj 1077 532 r $s63;
#X obj 1125 510 r $s64;
#X obj 1124 533 array get $step64;
#X obj 2188 256 array get $step17_poly_synth_no1;
#X obj 2234 227 array get $step18_poly_synth_no1;
#X obj 2290 200 array get $step19_poly_synth_no1;
#X obj 2346 179 array get $step20_poly_synth_no1;
#X obj 2419 157 array get $step21_poly_synth_no1;
#X obj 2465 131 array get $step22_poly_synth_no1;
#X obj 2515 108 array get $step23_poly_synth_no1;
#X obj 2558 85 array get $step24_poly_synth_no1;
#X obj 2503 263 array get $step25_poly_synth_no1;
#X obj 2549 234 array get $step26_poly_synth_no1;
#X obj 2605 207 array get $step27_poly_synth_no1;
#X obj 2661 186 array get $step28_poly_synth_no1;
#X obj 2734 164 array get $step29_poly_synth_no1;
#X obj 2780 138 array get $step30_poly_synth_no1;
#X obj 2830 115 array get $step31_poly_synth_no1;
#X obj 2873 92 array get $step31_poly_synth_no1;
#X obj 1618 924 array get $step1_bass_synth_no1;
#X obj 1664 896 array get $step2_bass_synth_no1;
#X obj 1708 868 array get $step3_bass_synth_no1;
#X obj 1748 847 array get $step4_bass_synth_no1;
#X obj 1794 820 array get $step5_bass_synth_no1;
#X obj 1844 796 array get $step6_bass_synth_no1;
#X obj 1895 772 array get $step7_bass_synth_no1;
#X obj 1945 749 array get $step8_bass_synth_no1;
#X obj 1897 926 array get $step9_bass_synth_no1;
#X obj 1943 897 array get $step10_bass_synth_no1;
#X obj 1999 870 array get $step11_bass_synth_no1;
#X obj 2055 849 array get $step12_bass_synth_no1;
#X obj 2128 827 array get $step13_bass_synth_no1;
#X obj 2174 801 array get $step14_bass_synth_no1;
#X obj 2222 779 array get $step15_bass_synth_no1;
#X obj 2273 753 array get $step16_bass_synth_no1;
#X obj 2220 930 array get $step17_bass_synth_no1;
#X obj 2266 901 array get $step18_bass_synth_no1;
#X obj 2322 874 array get $step19_bass_synth_no1;
#X obj 2378 853 array get $step20_bass_synth_no1;
#X obj 2451 831 array get $step21_bass_synth_no1;
#X obj 2497 805 array get $step22_bass_synth_no1;
#X obj 2547 782 array get $step23_bass_synth_no1;
#X obj 2590 759 array get $step24_bass_synth_no1;
#X obj 2535 937 array get $step25_bass_synth_no1;
#X obj 2581 908 array get $step26_bass_synth_no1;
#X obj 2637 881 array get $step27_bass_synth_no1;
#X obj 2693 860 array get $step28_bass_synth_no1;
#X obj 2766 838 array get $step29_bass_synth_no1;
#X obj 2812 812 array get $step30_bass_synth_no1;
#X obj 2862 789 array get $step31_bass_synth_no1;
#X obj 2907 767 array get $step31_bass_synth_no1;
#X obj 2351 1117 unpack f f f f;
#X obj 2222 1155 expr if($f1 > 10 \, $f1 \, 0);
#X obj 2222 1176 select 0;
#X obj 2310 1246 s bass_note_no1;
#X obj 1586 222 r $s_2_1;
#X obj 1630 196 r $s_2_2;
#X obj 1674 172 r $s_2_3;
#X obj 1716 151 r $s_2_4;
#X obj 1760 124 r $s_2_5;
#X obj 1810 96 r $s_2_6;
#X obj 1866 70 r $s_2_7;
#X obj 1914 52 r $s_2_8;
#X obj 1865 224 r $s_2_9;
#X obj 1909 201 r $s_2_10;
#X obj 1965 174 r $s_2_11;
#X obj 2021 153 r $s_2_12;
#X obj 2094 131 r $s_2_13;
#X obj 2140 105 r $s_2_14;
#X obj 2190 77 r $s_2_15;
#X obj 2237 56 r $s_2_16;
#X obj 2188 228 r $s_2_17;
#X obj 2232 205 r $s_2_18;
#X obj 2288 178 r $s_2_19;
#X obj 2344 157 r $s_2_20;
#X obj 2417 135 r $s_2_21;
#X obj 2463 109 r $s_2_22;
#X obj 2511 85 r $s_2_23;
#X obj 2558 57 r $s_2_24;
#X obj 2503 235 r $s_2_25;
#X obj 2547 212 r $s_2_26;
#X obj 2603 185 r $s_2_27;
#X obj 2659 164 r $s_2_28;
#X obj 2732 142 r $s_2_29;
#X obj 2778 116 r $s_2_30;
#X obj 2826 92 r $s_2_31;
#X obj 2873 64 r $s_2_32;
#X obj 1618 896 r $s_2_1;
#X obj 1662 870 r $s_2_2;
#X obj 1706 846 r $s_2_3;
#X obj 1748 825 r $s_2_4;
#X obj 1792 798 r $s_2_5;
#X obj 1842 770 r $s_2_6;
#X obj 1898 744 r $s_2_7;
#X obj 1946 726 r $s_2_8;
#X obj 1897 898 r $s_2_9;
#X obj 1941 875 r $s_2_10;
#X obj 1997 848 r $s_2_11;
#X obj 2053 827 r $s_2_12;
#X obj 2126 805 r $s_2_13;
#X obj 2172 779 r $s_2_14;
#X obj 2222 751 r $s_2_15;
#X obj 2269 730 r $s_2_16;
#X obj 2220 902 r $s_2_17;
#X obj 2264 879 r $s_2_18;
#X obj 2320 852 r $s_2_19;
#X obj 2376 831 r $s_2_20;
#X obj 2449 809 r $s_2_21;
#X obj 2495 783 r $s_2_22;
#X obj 2543 759 r $s_2_23;
#X obj 2590 731 r $s_2_24;
#X obj 2535 909 r $s_2_25;
#X obj 2579 886 r $s_2_26;
#X obj 2635 859 r $s_2_27;
#X obj 2691 838 r $s_2_28;
#X obj 2764 816 r $s_2_29;
#X obj 2810 790 r $s_2_30;
#X obj 2858 766 r $s_2_31;
#X obj 2907 739 r $s_2_32;
#X obj -206 1216 r $s_3_1;
#X obj -206 1244 array get $basic_drum_kit_step1;
#X obj -162 1190 r $s_3_2;
#X obj -160 1216 array get $basic_drum_kit_step2;
#X obj -118 1166 r $s_3_3;
#X obj -76 1145 r $s_3_4;
#X obj -116 1188 array get $basic_drum_kit_step3;
#X obj -76 1167 array get $basic_drum_kit_step4;
#X obj -30 1140 array get $basic_drum_kit_step5;
#X obj -32 1118 r $s_3_5;
#X obj 11 1091 r $s_3_6;
#X obj 13 1117 array get $basic_drum_kit_step6;
#X obj 67 1065 r $s_3_7;
#X obj 64 1093 array get $basic_drum_kit_step7;
#X obj 115 1047 r $s_3_8;
#X obj 114 1070 array get $basic_drum_kit_step8;
#X obj 113 1199 r $s_3_9;
#X obj 113 1227 array get $basic_drum_kit_step9;
#X obj 157 1176 r $s_3_10;
#X obj 159 1198 array get $basic_drum_kit_step10;
#X obj 201 1148 r $s_3_11;
#X obj 203 1170 array get $basic_drum_kit_step11;
#X obj 259 1127 r $s_3_12;
#X obj 259 1149 array get $basic_drum_kit_step12;
#X obj 308 1100 r $s_3_13;
#X obj 310 1122 array get $basic_drum_kit_step13;
#X obj 364 1074 r $s_3_14;
#X obj 361 1096 array get $basic_drum_kit_step14;
#X obj 417 1052 r $s_3_15;
#X obj 417 1075 array get $basic_drum_kit_step15;
#X obj 464 1025 r $s_3_16;
#X obj 468 1048 array get $basic_drum_kit_step16;
#X obj 512 1246 array get $basic_drum_kit_step17;
#X obj 562 1222 array get $basic_drum_kit_step18;
#X obj 610 1199 array get $basic_drum_kit_step19;
#X obj 658 1176 array get $basic_drum_kit_step20;
#X obj 728 1155 array get $basic_drum_kit_step21;
#X obj 779 1133 array get $basic_drum_kit_step22;
#X obj 827 1110 array get $basic_drum_kit_step23;
#X obj 874 1087 array get $basic_drum_kit_step24;
#X obj 514 1223 r $s_3_17;
#X obj 562 1201 r $s_3_18;
#X obj 610 1176 r $s_3_19;
#X obj 659 1154 r $s_3_20;
#X obj 727 1134 r $s_3_21;
#X obj 778 1111 r $s_3_22;
#X obj 827 1088 r $s_3_23;
#X obj 873 1066 r $s_3_24;
#X obj 868 1219 r $s_3_25;
#X obj 929 1202 r $s_3_26;
#X obj 973 1176 r $s_3_27;
#X obj 1024 1153 r $s_3_28;
#X obj 1073 1133 r $s_3_29;
#X obj 1130 1111 r $s_3_30;
#X obj 879 1247 array get $basic_drum_kit_step25;
#X obj 930 1223 array get $basic_drum_kit_step26;
#X obj 976 1197 array get $basic_drum_kit_step27;
#X obj 1024 1174 array get $basic_drum_kit_step28;
#X obj 1073 1153 array get $basic_drum_kit_step29;
#X obj 1124 1131 array get $basic_drum_kit_step30;
#X obj 1172 1108 array get $basic_drum_kit_step31;
#X obj 1219 1085 array get $basic_drum_kit_step32;
#X obj 1172 1086 r $s_3_31;
#X obj 1220 1063 r $s_3_32;
#X obj 364 1413 s kick;
#X obj 413 1456 s sn1;
#X obj 437 1480 s sn2;
#X obj 364 1386 unpack f f f f f f;
#X obj 462 1501 s hh1;
#X obj 487 1523 s hh2;
#X obj 388 1435 s hho;
#X connect 0 0 1 0;
#X connect 1 0 7 0;
#X connect 5 0 6 0;
#X connect 6 0 7 0;
#X connect 7 0 2 0;
#X connect 7 1 38 0;
#X connect 7 2 3 0;
#X connect 7 3 4 0;
#X connect 7 4 8 0;
#X connect 7 5 9 0;
#X connect 10 0 12 0;
#X connect 11 0 13 0;
#X connect 12 0 7 0;
#X connect 13 0 7 0;
#X connect 14 0 7 0;
#X connect 15 0 14 0;
#X connect 16 0 17 0;
#X connect 17 0 7 0;
#X connect 18 0 19 0;
#X connect 19 0 7 0;
#X connect 20 0 21 0;
#X connect 21 0 7 0;
#X connect 22 0 23 0;
#X connect 23 0 7 0;
#X connect 24 0 25 0;
#X connect 25 0 7 0;
#X connect 26 0 27 0;
#X connect 27 0 7 0;
#X connect 28 0 29 0;
#X connect 29 0 7 0;
#X connect 30 0 31 0;
#X connect 31 0 7 0;
#X connect 32 0 33 0;
#X connect 33 0 7 0;
#X connect 34 0 35 0;
#X connect 35 0 7 0;
#X connect 36 0 37 0;
#X connect 37 0 7 0;
#X connect 39 0 41 0;
#X connect 41 0 60 0;
#X connect 41 1 62 0;
#X connect 41 2 64 0;
#X connect 41 3 66 0;
#X connect 45 0 41 0;
#X connect 46 0 41 0;
#X connect 47 0 41 0;
#X connect 48 0 41 0;
#X connect 49 0 41 0;
#X connect 50 0 41 0;
#X connect 51 0 41 0;
#X connect 52 0 41 0;
#X connect 53 0 41 0;
#X connect 54 0 41 0;
#X connect 55 0 41 0;
#X connect 56 0 41 0;
#X connect 57 0 41 0;
#X connect 58 0 41 0;
#X connect 59 0 41 0;
#X connect 60 0 61 0;
#X connect 61 1 40 0;
#X connect 62 0 63 0;
#X connect 63 1 42 0;
#X connect 64 0 65 0;
#X connect 65 1 43 0;
#X connect 66 0 67 0;
#X connect 67 1 44 0;
#X connect 68 0 7 0;
#X connect 69 0 7 0;
#X connect 70 0 7 0;
#X connect 71 0 7 0;
#X connect 72 0 7 0;
#X connect 73 0 7 0;
#X connect 74 0 7 0;
#X connect 75 0 7 0;
#X connect 76 0 68 0;
#X connect 77 0 69 0;
#X connect 78 0 70 0;
#X connect 79 0 71 0;
#X connect 80 0 72 0;
#X connect 81 0 73 0;
#X connect 82 0 74 0;
#X connect 83 0 75 0;
#X connect 84 0 90 0;
#X connect 85 0 91 0;
#X connect 86 0 92 0;
#X connect 87 0 93 0;
#X connect 88 0 94 0;
#X connect 89 0 95 0;
#X connect 90 0 7 0;
#X connect 91 0 7 0;
#X connect 92 0 7 0;
#X connect 93 0 7 0;
#X connect 94 0 7 0;
#X connect 95 0 7 0;
#X connect 96 0 7 0;
#X connect 97 0 7 0;
#X connect 98 0 7 0;
#X connect 99 0 98 0;
#X connect 100 0 7 0;
#X connect 101 0 100 0;
#X connect 102 0 7 0;
#X connect 103 0 102 0;
#X connect 104 0 7 0;
#X connect 105 0 7 0;
#X connect 106 0 7 0;
#X connect 107 0 104 0;
#X connect 108 0 105 0;
#X connect 109 0 106 0;
#X connect 110 0 7 0;
#X connect 111 0 110 0;
#X connect 112 0 7 0;
#X connect 113 0 112 0;
#X connect 114 0 7 0;
#X connect 115 0 114 0;
#X connect 116 0 7 0;
#X connect 117 0 116 0;
#X connect 118 0 7 0;
#X connect 119 0 118 0;
#X connect 120 0 7 0;
#X connect 121 0 120 0;
#X connect 122 0 7 0;
#X connect 123 0 122 0;
#X connect 124 0 7 0;
#X connect 125 0 124 0;
#X connect 126 0 96 0;
#X connect 127 0 97 0;
#X connect 128 0 7 0;
#X connect 129 0 7 0;
#X connect 130 0 128 0;
#X connect 131 0 129 0;
#X connect 132 0 133 0;
#X connect 133 0 7 0;
#X connect 134 0 135 0;
#X connect 135 0 7 0;
#X connect 136 0 7 0;
#X connect 137 0 136 0;
#X connect 138 0 139 0;
#X connect 139 0 7 0;
#X connect 140 0 7 0;
#X connect 141 0 140 0;
#X connect 142 0 143 0;
#X connect 143 0 7 0;
#X connect 144 0 7 0;
#X connect 145 0 144 0;
#X connect 146 0 7 0;
#X connect 147 0 146 0;
#X connect 148 0 149 0;
#X connect 149 0 7 0;
#X connect 150 0 7 0;
#X connect 151 0 150 0;
#X connect 152 0 153 0;
#X connect 153 0 7 0;
#X connect 154 0 155 0;
#X connect 155 0 7 0;
#X connect 156 0 157 0;
#X connect 157 0 7 0;
#X connect 158 0 7 0;
#X connect 159 0 158 0;
#X connect 160 0 7 0;
#X connect 161 0 160 0;
#X connect 162 0 163 0;
#X connect 163 0 7 0;
#X connect 164 0 41 0;
#X connect 165 0 41 0;
#X connect 166 0 41 0;
#X connect 167 0 41 0;
#X connect 168 0 41 0;
#X connect 169 0 41 0;
#X connect 170 0 41 0;
#X connect 171 0 41 0;
#X connect 172 0 41 0;
#X connect 173 0 41 0;
#X connect 174 0 41 0;
#X connect 175 0 41 0;
#X connect 176 0 41 0;
#X connect 177 0 41 0;
#X connect 178 0 41 0;
#X connect 179 0 41 0;
#X connect 180 0 212 0;
#X connect 181 0 212 0;
#X connect 182 0 212 0;
#X connect 183 0 212 0;
#X connect 184 0 212 0;
#X connect 185 0 212 0;
#X connect 186 0 212 0;
#X connect 187 0 212 0;
#X connect 188 0 212 0;
#X connect 189 0 212 0;
#X connect 190 0 212 0;
#X connect 191 0 212 0;
#X connect 192 0 212 0;
#X connect 193 0 212 0;
#X connect 194 0 212 0;
#X connect 195 0 212 0;
#X connect 196 0 212 0;
#X connect 197 0 212 0;
#X connect 198 0 212 0;
#X connect 199 0 212 0;
#X connect 200 0 212 0;
#X connect 201 0 212 0;
#X connect 202 0 212 0;
#X connect 203 0 212 0;
#X connect 204 0 212 0;
#X connect 205 0 212 0;
#X connect 206 0 212 0;
#X connect 207 0 212 0;
#X connect 208 0 212 0;
#X connect 209 0 212 0;
#X connect 210 0 212 0;
#X connect 211 0 212 0;
#X connect 212 0 213 0;
#X connect 213 0 214 0;
#X connect 214 1 215 0;
#X connect 216 0 39 0;
#X connect 217 0 45 0;
#X connect 218 0 46 0;
#X connect 219 0 47 0;
#X connect 220 0 48 0;
#X connect 221 0 49 0;
#X connect 222 0 50 0;
#X connect 223 0 51 0;
#X connect 224 0 52 0;
#X connect 225 0 53 0;
#X connect 226 0 54 0;
#X connect 227 0 55 0;
#X connect 228 0 56 0;
#X connect 229 0 57 0;
#X connect 230 0 58 0;
#X connect 231 0 59 0;
#X connect 232 0 164 0;
#X connect 233 0 165 0;
#X connect 234 0 166 0;
#X connect 235 0 167 0;
#X connect 236 0 168 0;
#X connect 237 0 169 0;
#X connect 238 0 170 0;
#X connect 239 0 171 0;
#X connect 240 0 172 0;
#X connect 241 0 173 0;
#X connect 242 0 174 0;
#X connect 243 0 175 0;
#X connect 244 0 176 0;
#X connect 245 0 177 0;
#X connect 246 0 178 0;
#X connect 247 0 179 0;
#X connect 248 0 180 0;
#X connect 249 0 181 0;
#X connect 250 0 182 0;
#X connect 251 0 183 0;
#X connect 252 0 184 0;
#X connect 253 0 185 0;
#X connect 254 0 186 0;
#X connect 255 0 187 0;
#X connect 256 0 188 0;
#X connect 257 0 189 0;
#X connect 258 0 190 0;
#X connect 259 0 191 0;
#X connect 260 0 192 0;
#X connect 261 0 193 0;
#X connect 262 0 194 0;
#X connect 263 0 195 0;
#X connect 264 0 196 0;
#X connect 265 0 197 0;
#X connect 266 0 198 0;
#X connect 267 0 199 0;
#X connect 268 0 200 0;
#X connect 269 0 201 0;
#X connect 270 0 202 0;
#X connect 271 0 203 0;
#X connect 272 0 204 0;
#X connect 273 0 205 0;
#X connect 274 0 206 0;
#X connect 275 0 207 0;
#X connect 276 0 208 0;
#X connect 277 0 209 0;
#X connect 278 0 210 0;
#X connect 279 0 211 0;
#X connect 280 0 281 0;
#X connect 281 0 347 0;
#X connect 282 0 283 0;
#X connect 283 0 347 0;
#X connect 284 0 286 0;
#X connect 285 0 287 0;
#X connect 286 0 347 0;
#X connect 287 0 347 0;
#X connect 288 0 347 0;
#X connect 289 0 288 0;
#X connect 290 0 291 0;
#X connect 291 0 347 0;
#X connect 292 0 293 0;
#X connect 293 0 347 0;
#X connect 294 0 295 0;
#X connect 295 0 347 0;
#X connect 296 0 297 0;
#X connect 297 0 347 0;
#X connect 298 0 299 0;
#X connect 299 0 347 0;
#X connect 300 0 301 0;
#X connect 301 0 347 0;
#X connect 302 0 303 0;
#X connect 303 0 347 0;
#X connect 304 0 305 0;
#X connect 305 0 347 0;
#X connect 306 0 307 0;
#X connect 307 0 347 0;
#X connect 308 0 309 0;
#X connect 309 0 347 0;
#X connect 310 0 311 0;
#X connect 311 0 347 0;
#X connect 312 0 347 0;
#X connect 313 0 347 0;
#X connect 314 0 347 0;
#X connect 315 0 347 0;
#X connect 316 0 347 0;
#X connect 317 0 347 0;
#X connect 318 0 347 0;
#X connect 319 0 347 0;
#X connect 320 0 312 0;
#X connect 321 0 313 0;
#X connect 322 0 314 0;
#X connect 323 0 315 0;
#X connect 324 0 316 0;
#X connect 325 0 317 0;
#X connect 326 0 318 0;
#X connect 327 0 319 0;
#X connect 328 0 334 0;
#X connect 329 0 335 0;
#X connect 330 0 336 0;
#X connect 331 0 337 0;
#X connect 332 0 338 0;
#X connect 333 0 339 0;
#X connect 334 0 347 0;
#X connect 335 0 347 0;
#X connect 336 0 347 0;
#X connect 337 0 347 0;
#X connect 338 0 347 0;
#X connect 339 0 347 0;
#X connect 340 0 347 0;
#X connect 341 0 347 0;
#X connect 342 0 340 0;
#X connect 343 0 341 0;
#X connect 347 0 344 0;
#X connect 347 1 350 0;
#X connect 347 2 345 0;
#X connect 347 3 346 0;
#X connect 347 4 348 0;
#X connect 347 5 349 0;
#X restore 1317 21 pd steps_with_velocity_to_sound;
#X obj 711 408 s $s12;
#X obj 724 388 s $s13;
#X obj 734 369 s $s14;
#X obj 747 347 s $s15;
#X obj 758 324 s $s16;
#X obj -157 585 bng 15 250 50 0 empty empty empty 17 7 0 10 #fcfcfc
#000000 #000000;
#X text -460 422 default sequence;
#X obj -157 625 + 1;
#X obj -85 587 + 1;
#X floatatom -131 625 5 0 0 0 - - - 0;
#X floatatom -60 588 5 0 0 0 - - - 0;
#X msg -287 419 0, f 1;
#X obj -155 671 array set $seq_dr_1;
#X obj -305 419 bng 15 250 50 0 empty empty empty 17 7 0 10 #fcfcfc
#000000 #000000;
#X obj 747 9 select 1;
#N canvas 98 406 450 300 long_kick 1;
#X obj 108 194 throw~ right_channel;
#X obj 268 195 throw~ left_channel;
#X obj 161 133 km2;
#N canvas 237 191 450 300 mute 0;
#X obj 197 98 bng 15 250 50 0 empty empty empty 17 7 0 10 #fcfcfc #000000
#000000;
#X obj 197 116 f;
#X obj 197 138 select 1;
#X obj 268 81 inlet;
#X obj 202 182 outlet;
#X obj 197 65 inlet;
#X connect 0 0 1 0;
#X connect 1 0 2 0;
#X connect 2 0 4 0;
#X connect 3 0 1 1;
#X connect 5 0 0 0;
#X restore 159 112 pd mute;
#X obj 234 145 tgl 15 0 empty empty empty 17 7 0 10 #fcfcfc #000000
#000000 0 1;
#X obj 160 157 *~;
#X obj 267 121 select 50;
#X obj 266 98 notein 1;
#X obj 70 41 / 127;
#X floatatom 69 66 5 0 0 0 - - - 0;
#X obj 69 84 expr if($f1 > 0.3 \, $f1 \, 0);
#X obj 67 113 select 0;
#X obj 71 15 inlet;
#X obj 33 158 vsl 15 128 0 127 0 0 empty empty empty 0 -9 0 10 #fcfcfc
#000000 #000000 0 1;
#X obj 12 136 ctlin 22 1;
#X connect 2 0 5 0;
#X connect 3 0 2 1;
#X connect 4 0 3 1;
#X connect 5 0 0 0;
#X connect 5 0 1 0;
#X connect 6 0 4 0;
#X connect 7 0 6 0;
#X connect 8 0 9 0;
#X connect 9 0 10 0;
#X connect 10 0 11 0;
#X connect 11 1 3 0;
#X connect 11 1 5 1;
#X connect 12 0 8 0;
#X connect 13 0 2 0;
#X connect 14 0 13 0;
#X restore 499 1535 pd long_kick;
#N canvas 9 285 450 300 kick 1;
#X obj 169 192 dr_kick_cos_lop;
#X obj 48 310 throw~ right_channel;
#X obj 212 311 throw~ left_channel;
#X obj 171 128 bng 15 250 50 0 empty empty empty 17 7 0 10 #fcfcfc
#000000 #000000;
#X obj 171 146 f;
#X obj 207 133 tgl 15 0 empty empty empty 17 7 0 10 #fcfcfc #000000
#000000 0 1;
#X obj 171 168 select 1;
#X obj 101 66 / 127;
#X floatatom 97 90 5 0 0 0 - - - 0;
#X obj 96 108 expr if($f1 > 0.3 \, $f1 \, 0);
#X obj 97 192 select 0;
#X obj 289 111 select 50;
#X obj 288 88 notein 1;
#X obj 101 42 inlet;
#X obj 166 240 *~;
#X connect 0 0 14 0;
#X connect 3 0 4 0;
#X connect 4 0 6 0;
#X connect 5 0 4 1;
#X connect 6 0 0 0;
#X connect 7 0 8 0;
#X connect 8 0 9 0;
#X connect 9 0 10 0;
#X connect 10 1 3 0;
#X connect 10 1 14 1;
#X connect 11 0 5 0;
#X connect 12 0 11 0;
#X connect 13 0 7 0;
#X connect 14 0 1 0;
#X connect 14 0 2 0;
#X restore 500 1592 pd kick;
#X obj 499 1569 r kick;
#N canvas 104 389 450 300 hh1 1;
#X obj 62 222 throw~ right_channel;
#X obj 217 226 throw~ left_channel;
#X obj 159 128 hh1;
#N canvas 237 191 450 300 mute 0;
#X obj 197 98 bng 15 250 50 0 empty empty empty 17 7 0 10 #fcfcfc #000000
#000000;
#X obj 197 116 f;
#X obj 197 138 select 1;
#X obj 268 81 inlet;
#X obj 202 182 outlet;
#X obj 197 65 inlet;
#X connect 0 0 1 0;
#X connect 1 0 2 0;
#X connect 2 0 4 0;
#X connect 3 0 1 1;
#X connect 5 0 0 0;
#X restore 144 102 pd mute;
#X obj 93 87 / 127;
#X obj 158 150 *~;
#X obj 145 29 inlet;
#X obj 231 -3 inlet;
#X floatatom 285 154 5 0 0 0 - - - 0;
#X obj 282 124 / 1000;
#X obj 283 78 random 1000;
#X obj 247 131 - 1;
#X obj 247 155 * -1;
#X floatatom 237 177 5 0 0 0 - - - 0;
#X floatatom 282 175 5 0 0 0 - - - 0;
#X obj 93 184 *~;
#X obj 190 181 *~;
#X obj 285 22 tgl 15 0 empty empty empty 17 7 0 10 #fcfcfc #000000
#000000 0 1;
#X obj 285 48 metro 500;
#X connect 2 0 5 0;
#X connect 3 0 2 0;
#X connect 4 0 5 1;
#X connect 5 0 15 0;
#X connect 5 0 16 0;
#X connect 6 0 4 0;
#X connect 6 0 3 0;
#X connect 7 0 3 1;
#X connect 7 0 17 0;
#X connect 8 0 11 0;
#X connect 8 0 14 0;
#X connect 9 0 8 0;
#X connect 10 0 9 0;
#X connect 11 0 12 0;
#X connect 12 0 13 0;
#X connect 13 0 15 1;
#X connect 14 0 16 1;
#X connect 15 0 0 0;
#X connect 16 0 1 0;
#X connect 17 0 18 0;
#X connect 18 0 10 0;
#X restore 610 1594 pd hh1;
#X obj 610 1571 r hh1;
#N canvas 187 263 450 300 noise_with_note 0;
#X obj 135 303 dr_sn_noise_feed_mod;
#X obj 66 368 throw~ right_channel;
#X obj 213 358 throw~ left_channel;
#X obj 251 162 vsl 15 128 0 127 0 0 empty empty empty 0 -9 0 10 #fcfcfc
#000000 #000000 0 1;
#X obj 276 162 vsl 15 128 0 1 0 0 empty empty empty 0 -9 0 10 #fcfcfc
#000000 #000000 0 1;
#X obj 234 58 ctlin 17 1;
#X floatatom 325 143 5 0 0 0 - - - 0;
#X obj 261 124 / 127;
#X obj 210 117 - 127;
#X obj 212 140 * -1;
#N canvas 237 191 450 300 mute 0;
#X obj 197 98 bng 15 250 50 0 empty empty empty 17 7 0 10 #fcfcfc #000000
#000000;
#X obj 197 116 f;
#X obj 197 138 select 1;
#X obj 268 81 inlet;
#X obj 202 182 outlet;
#X obj 197 65 inlet;
#X connect 0 0 1 0;
#X connect 1 0 2 0;
#X connect 2 0 4 0;
#X connect 3 0 1 1;
#X connect 5 0 0 0;
#X restore 136 275 pd mute;
#X obj 87 273 / 127;
#X obj 135 333 *~;
#X obj 361 346 s~ del2_no2;
#X obj 346 323 s~ reverb2_no1;
#X obj 124 239 inlet;
#X obj 169 239 inlet;
#X connect 0 0 12 0;
#X connect 3 0 0 1;
#X connect 4 0 0 2;
#X connect 5 0 7 0;
#X connect 5 0 8 0;
#X connect 7 0 4 0;
#X connect 7 0 6 0;
#X connect 8 0 9 0;
#X connect 9 0 3 0;
#X connect 10 0 0 0;
#X connect 11 0 12 1;
#X connect 12 0 1 0;
#X connect 12 0 2 0;
#X connect 12 0 14 0;
#X connect 12 0 13 0;
#X connect 15 0 11 0;
#X connect 15 0 10 0;
#X connect 16 0 10 1;
#X restore 610 1651 pd noise_with_note;
#X obj 610 1629 r sn2;
#X obj 732 1632 tgl 15 0 empty empty empty 17 7 0 10 #fcfcfc #000000
#000000 0 1;
#N canvas 533 120 450 300 sn1 1;
#X obj 112 153 sn1;
#X obj 64 238 throw~ right_channel;
#X obj 224 239 throw~ left_channel;
#N canvas 237 191 450 300 mute 0;
#X obj 197 98 bng 15 250 50 0 empty empty empty 17 7 0 10 #fcfcfc #000000
#000000;
#X obj 197 116 f;
#X obj 197 138 select 1;
#X obj 268 81 inlet;
#X obj 202 182 outlet;
#X obj 197 65 inlet;
#X connect 0 0 1 0;
#X connect 1 0 2 0;
#X connect 2 0 4 0;
#X connect 3 0 1 1;
#X connect 5 0 0 0;
#X restore 99 129 pd mute;
#X obj 329 11 vsl 15 128 0 127 0 0 empty empty empty 0 -9 0 10 #ff8300
#000000 #000000 0 1;
#X obj 328 -15 ctlin 16 1;
#X obj 35 154 / 127;
#X obj 128 191 *~;
#X obj 312 11 vsl 15 128 0 127 0 0 empty empty empty 0 -9 0 10 #fcfcfc
#000000 #000000 0 1;
#X obj 237 -9 ctlin 20 1;
#X obj 241 138 / 127;
#X obj 110 71 inlet;
#X obj 182 78 inlet;
#X obj 241 159 * 5;
#X obj 213 184 rev2~ 0 90 2700 20;
#X connect 0 0 7 0;
#X connect 3 0 0 0;
#X connect 4 0 14 1;
#X connect 5 0 4 0;
#X connect 6 0 7 1;
#X connect 7 0 1 0;
#X connect 7 0 2 0;
#X connect 7 0 14 0;
#X connect 8 0 10 0;
#X connect 9 0 8 0;
#X connect 10 0 13 0;
#X connect 11 0 6 0;
#X connect 11 0 3 0;
#X connect 12 0 3 1;
#X connect 13 0 0 1;
#X connect 14 0 1 0;
#X connect 14 0 2 0;
#X restore 764 1647 pd sn1;
#X obj 765 1620 r sn1;
#X obj 809 1589 tgl 15 0 empty empty empty 17 7 0 10 #fcfcfc #000000
#000000 0 1;
#X text 495 1489 drums;
#X msg -287 508 0, f 1;
#X obj -310 511 bng 15 250 50 0 empty empty empty 17 7 0 10 #fcfcfc
#000000 #000000;
#X msg -457 532 1 16 2 15 3 14 4 13 5 12 6 11 7 10 8 9;
#X obj 781 -58 r clock;
#X obj 1461 1510 dac~;
#X obj 490 -55 1539111228383-clock-slave;
#X obj 490 47 s quarter_note;
#X obj 715 -13 r quarter_note;
#X obj 490 -32 f;
#X obj 527 -31 + 1;
#X obj 490 23 select 0;
#X obj 490 -1 % 20;
#X msg 771 31 4;
#X obj 726 1566 select 50;
#X obj 725 1543 notein 2;
#N canvas 12 160 450 300 bpm_finder 0;
#X obj -536 422 midirealtimein;
#X floatatom -536 452 5 0 0 0 - - - 0;
#X obj -536 474 select 248;
#X obj -654 469 bng 15 250 50 0 empty empty empty 17 7 0 10 #fcfcfc
#000000 #000000;
#X obj -653 488 f;
#X obj -618 488 + 1;
#X obj -652 511 % 24;
#X obj -646 660 timer;
#X obj -651 593 bng 15 250 50 0 empty empty empty 17 7 0 10 #fcfcfc
#000000 #000000;
#X obj -651 611 tgl 15 0 empty empty empty 17 7 0 10 #fcfcfc #000000
#000000 0 1;
#X obj -650 630 select 0;
#X obj -599 661 t b;
#X obj -648 689 expr 1000/($f1/60);
#X floatatom -647 768 5 0 0 0 - - - 0;
#X obj -652 534 expr if($f1 % 6 == 0 \, 1 \, 0);
#X obj -647 714 f;
#X obj -652 556 select 1;
#X obj -648 741 / 4;
#X connect 0 0 1 0;
#X connect 0 0 3 0;
#X connect 1 0 2 0;
#X connect 3 0 4 0;
#X connect 4 0 5 0;
#X connect 4 0 6 0;
#X connect 5 0 4 1;
#X connect 6 0 14 0;
#X connect 7 0 12 0;
#X connect 8 0 9 0;
#X connect 9 0 10 0;
#X connect 10 0 7 0;
#X connect 10 1 11 0;
#X connect 11 0 7 1;
#X connect 12 0 15 0;
#X connect 14 0 16 0;
#X connect 15 0 17 0;
#X connect 16 0 8 0;
#X connect 17 0 13 0;
#X restore 490 71 pd bpm_finder;
#X obj 1015 -44 notein 1;
#X obj 1015 -22 select 32;
#X obj 1016 0 tgl 15 0 empty empty empty 17 7 0 10 #fcfcfc #000000
#000000 0 1;
#X floatatom 999 60 5 0 0 0 - - - 0;
#X floatatom 1042 61 5 0 0 0 - - - 0;
#X obj 1016 19 select 0 1;
#X obj 1015 43 bng 15 250 50 0 empty empty empty 17 7 0 10 #fcfcfc
#000000 #000000;
#X obj 1049 41 bng 15 250 50 0 empty empty empty 17 7 0 10 #fcfcfc
#000000 #000000;
#X obj 1523 350 + 1;
#N canvas 89 120 450 300 hho 0;
#X obj 78 243 throw~ right_channel;
#X obj 225 242 throw~ left_channel;
#N canvas 237 191 450 300 mute 0;
#X obj 197 98 bng 15 250 50 0 empty empty empty 17 7 0 10 #fcfcfc #000000
#000000;
#X obj 197 116 f;
#X obj 197 138 select 1;
#X obj 268 81 inlet;
#X obj 202 182 outlet;
#X obj 197 65 inlet;
#X connect 0 0 1 0;
#X connect 1 0 2 0;
#X connect 2 0 4 0;
#X connect 3 0 1 1;
#X connect 5 0 0 0;
#X restore 144 102 pd mute;
#X obj 93 87 / 127;
#X obj 158 169 *~;
#X obj 145 29 inlet;
#X obj 191 28 inlet;
#X obj 159 128 hho;
#X obj 260 29 inlet;
#X connect 2 0 7 0;
#X connect 3 0 4 1;
#X connect 4 0 0 0;
#X connect 4 0 1 0;
#X connect 5 0 3 0;
#X connect 5 0 2 0;
#X connect 6 0 2 1;
#X connect 7 0 4 0;
#X connect 8 0 7 1;
#X restore 615 1535 pd hho;
#X obj 661 1505 tgl 15 0 empty empty empty 17 7 0 10 #fcfcfc #000000
#000000 0 1;
#X obj 617 1502 r hho;
#X obj 692 1372 vsl 15 128 0 127 0 0 empty empty empty 0 -9 0 10 #fcfcfc
#000000 #000000 0 1;
#X obj 663 1345 ctlin 21 1;
#X obj 1648 1396 expr~ if($v1 > 1 \, 1 \, $v1);
#X obj 1451 1399 expr~ if($v1 < -1 \, -1 \, $v1);
#X obj 507 1293 vsl 15 128 0 4000 0 0 empty empty empty 0 -9 0 10 #fcfcfc
#000000 #000000 0 1;
#N canvas 56 114 519 474 poly_synth 1;
#X obj 54 412 throw~ right_channel;
#X obj 202 413 throw~ left_channel;
#X obj 148 364 *~ 0.5;
#X obj 11 198 r poly_s_no1_v1;
#X obj 110 175 r poly_s_no1_v2;
#X obj 192 195 r poly_s_no1_v3;
#X obj 304 195 r poly_s_no1_v4;
#X floatatom 43 217 5 0 0 0 - - - 0;
#X floatatom 192 216 5 0 0 0 - - - 0;
#X floatatom 127 196 5 0 0 0 - - - 0;
#X floatatom 304 215 5 0 0 0 - - - 0;
#X obj 337 131 inlet;
#X obj 147 331 clone poly_synth.cl 4;
#X msg 142 253 next \$1;
#X obj 428 129 inlet;
#X obj 474 130 inlet;
#X obj 516 131 inlet;
#X obj 298 165 s $poly_synth_lcl_f;
#X obj 401 229 s $poly_synth_lcl_a;
#X obj 498 183 s $poly_synth_lcl_r;
#X obj 436 207 s $poly_synth_lcl_s;
#X connect 2 0 0 0;
#X connect 2 0 1 0;
#X connect 3 0 7 0;
#X connect 4 0 9 0;
#X connect 5 0 8 0;
#X connect 6 0 10 0;
#X connect 7 0 13 0;
#X connect 8 0 13 0;
#X connect 9 0 13 0;
#X connect 10 0 13 0;
#X connect 11 0 17 0;
#X connect 12 0 2 0;
#X connect 13 0 12 0;
#X connect 14 0 18 0;
#X connect 15 0 20 0;
#X connect 16 0 19 0;
#X restore 528 1454 pd poly_synth;
#X obj 603 1294 vsl 15 128 0 1500 0 0 empty empty empty 0 -9 0 10 #fcfcfc
#000000 #000000 0 1;
#X obj 578 1294 vsl 15 128 0 1 0 0 empty empty empty 0 -9 0 10 #fcfcfc
#000000 #000000 0 1;
#X obj 550 1294 vsl 15 128 0 2000 0 0 empty empty empty 0 -9 0 10 #fcfcfc
#000000 #000000 0 1;
#X text 488 1267 filter;
#X text 554 1272 a;
#X text 581 1272 d;
#X text 605 1273 r;
#X obj 1770 407 % 2;
#X obj 1769 427 select 0;
#N canvas 116 261 540 351 sample_s_1 0;
#X obj 59 187 throw~ right_channel;
#X obj 220 186 throw~ left_channel;
#X obj 140 -51 tabplay~ sample_data_beyonce;
#X obj 106 -207 random 1.48397e+06, f 16;
#X obj 161 93 *~ 0.9;
#X obj 139 -105 pack f f;
#X obj 244 -227 vsl 15 128 0 20000 0 0 empty empty empty 0 -9 0 10
#fcfcfc #000000 #000000 0 1;
#X msg 138 -78 \$1 \$2;
#X obj 271 -29 osc~;
#X floatatom 303 -29 5 0 0 0 - - - 0;
#X obj 142 -25 *~;
#X obj 424 -209 openpanel;
#N canvas 0 22 450 278 (subpatch) 0;
#X array sample_data_beyonce 308112 float 4;
#X coords 0 1 308111 -1 150 115 1 0 0;
#X restore 545 -138 graph;
#X obj 424 -164 soundfiler;
#X obj 423 -233 bng 15 250 50 0 empty empty empty 17 7 0 10 #fcfcfc
#000000 #000000;
#X floatatom 424 -131 15 0 300000 0 - - - 0;
#X msg 424 -187 read -resize \$1 sample_data_beyonce;
#X floatatom 397 43 5 0 0 0 - - - 0;
#X obj 394 13 / 1000;
#X obj 395 -16 random 1000;
#X obj 206 136 *~;
#X obj 115 138 *~;
#X obj 359 20 - 1;
#X obj 359 44 * -1;
#X floatatom 349 66 5 0 0 0 - - - 0;
#X floatatom 394 64 5 0 0 0 - - - 0;
#X obj -107 2 rev2~ 100 90 3000 20;
#X obj -68 -150 vsl 15 128 0 1 0 0 empty empty empty 0 -9 0 10 #fcfcfc
#000000 #000000 0 1;
#X obj -58 57 *~;
#X obj -21 57 *~;
#X obj -65 -202 random 1000;
#X obj -65 -183 / 1000;
#X obj 397 -79 tgl 15 0 empty empty empty 17 7 0 10 #fcfcfc #000000
#000000 0 1;
#X obj 398 -53 metro 800;
#X obj 29 -289 r pulse_every_1;
#X connect 2 0 10 0;
#X connect 3 0 5 0;
#X connect 4 0 21 0;
#X connect 4 0 20 0;
#X connect 5 0 7 0;
#X connect 6 0 5 1;
#X connect 7 0 2 0;
#X connect 8 0 10 1;
#X connect 9 0 8 0;
#X connect 10 0 4 0;
#X connect 10 0 26 0;
#X connect 11 0 16 0;
#X connect 13 0 15 0;
#X connect 14 0 11 0;
#X connect 16 0 13 0;
#X connect 17 0 22 0;
#X connect 17 0 25 0;
#X connect 18 0 17 0;
#X connect 19 0 18 0;
#X connect 20 0 1 0;
#X connect 21 0 0 0;
#X connect 22 0 23 0;
#X connect 23 0 24 0;
#X connect 24 0 21 1;
#X connect 25 0 20 1;
#X connect 26 0 28 0;
#X connect 26 1 29 0;
#X connect 27 0 28 1;
#X connect 27 0 29 1;
#X connect 28 0 21 0;
#X connect 29 0 20 0;
#X connect 30 0 31 0;
#X connect 31 0 27 0;
#X connect 32 0 33 0;
#X connect 33 0 19 0;
#X connect 34 0 3 0;
#X restore 664 1288 pd sample_s_1;
#N canvas 116 261 540 351 sample_s_2 0;
#X obj -40 138 throw~ right_channel;
#X obj 126 139 throw~ left_channel;
#X obj 50 83 *~ 0.9;
#X obj 52 -100 pack f f;
#X obj 198 -182 vsl 15 128 0 20000 0 0 empty empty empty 0 -9 0 10
#fcfcfc #000000 #000000 0 1;
#X msg 51 -73 \$1 \$2;
#X obj 133 18 osc~;
#X floatatom 135 -9 5 0 0 0 - - - 0;
#X obj 50 38 *~;
#X obj 254 -163 openpanel;
#N canvas 0 22 450 278 (subpatch) 0;
#X array sample_data_amen_break 1.48397e+06 float 4;
#X coords 0 1 1.48397e+06 -1 150 115 1 0 0;
#X restore 545 -138 graph;
#X obj 254 -118 soundfiler;
#X obj 253 -187 bng 15 250 50 0 empty empty empty 17 7 0 10 #fcfcfc
#000000 #000000;
#X floatatom 254 -85 15 0 300000 0 - - - 0;
#X msg 254 -141 read -resize \$1 sample_data_amen_break;
#X obj 53 -46 tabplay~ sample_data_amen_break;
#X obj 51 -126 random 308112;
#X floatatom 227 52 5 0 0 0 - - - 0;
#X obj 224 22 / 1000;
#X obj 189 29 - 1;
#X obj 189 53 * -1;
#X floatatom 179 75 5 0 0 0 - - - 0;
#X floatatom 224 73 5 0 0 0 - - - 0;
#X obj 86 113 *~;
#X obj -5 115 *~;
#X obj 224 -3 random 1000;
#X obj 49 -157 del 20;
#X obj 49 -182 r pulse_every_1;
#X connect 2 0 24 0;
#X connect 2 0 23 0;
#X connect 3 0 5 0;
#X connect 4 0 3 1;
#X connect 5 0 15 0;
#X connect 6 0 8 1;
#X connect 7 0 6 0;
#X connect 8 0 2 0;
#X connect 9 0 14 0;
#X connect 11 0 13 0;
#X connect 12 0 9 0;
#X connect 14 0 11 0;
#X connect 15 0 8 0;
#X connect 16 0 3 0;
#X connect 17 0 19 0;
#X connect 17 0 22 0;
#X connect 18 0 17 0;
#X connect 19 0 20 0;
#X connect 20 0 21 0;
#X connect 21 0 24 1;
#X connect 22 0 23 1;
#X connect 23 0 1 0;
#X connect 24 0 0 0;
#X connect 25 0 18 0;
#X connect 26 0 16 0;
#X connect 27 0 25 0;
#X restore 665 1313 pd sample_s_2;
#X obj 1753 447 s pulse_every_2;
#X obj 1848 406 select 0;
#X obj 1849 386 % 8;
#X obj 1832 426 s pulse_every_8;
#X obj 1486 999 f;
#X obj 1486 1043 hradio 16 1 0 32 empty empty empty 0 -8 0 10 #ff8300
#000000 #000000 0;
#X obj 1530 1004 + 1;
#X obj 585 247 select 1 2 3 4 5 6 7 8 9 10 11 12 13 14 15 16 17 18
19 20 21 22 23 24 25 26 27 28 29 30 31 32 33 34 35 36 37 38 39 40 41
42 43 44 45 46 47 48 49 50 51 52 53 54 55 56 57 58 59 60 61 62 63 64
, f 106;
#X obj 771 475 s $s17;
#X obj 782 452 s $s18;
#X obj 792 431 s $s19;
#X obj 803 409 s $s20;
#X obj 816 389 s $s21;
#X obj 826 368 s $s22;
#X obj 837 348 s $s23;
#X obj 848 326 s $s24;
#X obj -84 567 random 64;
#X msg -458 440 1 2 3 4 5 6 7 8 9 10 11 12 13 14 15 16 17 18 19 20
21 22 23 24 25 26 27 28 29 30 31 32 33 34 35 36 37 38 39 40 41 42 43
44 45 46 47 48 49 50 51 52 53 54 55 56 57 58 59 60 61 62 63 64;
#X obj 861 477 s $s25;
#X obj 871 454 s $s26;
#X obj 882 433 s $s27;
#X obj 893 411 s $s28;
#X obj 906 391 s $s29;
#X obj 916 370 s $s30;
#X obj 929 349 s $s31;
#X obj 941 328 s $s32;
#X obj 954 479 s $s33;
#X obj 964 456 s $s34;
#X obj 975 435 s $s35;
#X obj 986 413 s $s36;
#X obj 1000 393 s $s37;
#X obj 1010 372 s $s38;
#X obj 1023 351 s $s39;
#X obj 1035 330 s $s40;
#X obj 1046 481 s $s41;
#X obj 1059 458 s $s42;
#X obj 1070 437 s $s43;
#X obj 1081 415 s $s44;
#X obj 1094 395 s $s45;
#X obj 1104 374 s $s46;
#X obj 1117 353 s $s47;
#X obj 1127 332 s $s48;
#X obj 1140 483 s $s49;
#X obj 1150 460 s $s50;
#X obj 1161 439 s $s51;
#X obj 1172 417 s $s52;
#X obj 1185 397 s $s53;
#X obj 1195 376 s $s54;
#X obj 1208 355 s $s55;
#X obj 1218 334 s $s56;
#X obj 1231 485 s $s57;
#X obj 1241 462 s $s58;
#X obj 1252 441 s $s59;
#X obj 1263 419 s $s60;
#X obj 1274 398 s $s61;
#X obj 1287 377 s $s62;
#X obj 1298 358 s $s63;
#X obj 1310 336 s $s64;
#X obj 806 1321 vsl 15 128 0 4000 0 0 empty empty empty 0 -9 0 10 #fcfcfc
#000000 #000000 0 1;
#X obj 899 1323 vsl 15 128 0 1500 0 0 empty empty empty 0 -9 0 10 #fcfcfc
#000000 #000000 0 1;
#X obj 874 1323 vsl 15 128 0 1 0 0 empty empty empty 0 -9 0 10 #fcfcfc
#000000 #000000 0 1;
#X obj 851 1322 vsl 15 128 0 2000 0 0 empty empty empty 0 -9 0 10 #fcfcfc
#000000 #000000 0 1;
#X text 784 1296 filter;
#X text 850 1301 a;
#X text 877 1301 d;
#X text 901 1302 r;
#N canvas 6 23 702 581 bass_simple 0;
#X obj 153 348 throw~ right_channel;
#X obj 298 347 throw~ left_channel;
#X floatatom 159 182 5 0 0 0 - - - 0;
#X obj 268 159 inlet;
#X obj 314 159 inlet;
#X obj 360 160 inlet;
#X obj 402 161 inlet;
#X obj 160 203 bass_no1_simple;
#X obj 145 164 r bass_note_no1;
#X obj 153 329 *~ 0.7;
#X connect 2 0 7 0;
#X connect 3 0 7 1;
#X connect 4 0 7 2;
#X connect 5 0 7 3;
#X connect 6 0 7 4;
#X connect 7 0 9 0;
#X connect 8 0 2 0;
#X connect 9 0 0 0;
#X connect 9 0 1 0;
#X restore 818 1474 pd bass_simple;
#X obj 1491 496 s seq_1;
#X obj 635 177 r seq_1;
#X obj 631 523 array get $seq_dr_1;
#X obj 581 544 select 1 2 3 4 5 6 7 8 9 10 11 12 13 14 15 16 17 18
19 20 21 22 23 24 25 26 27 28 29 30 31 32 33 34 35 36 37 38 39 40 41
42 43 44 45 46 47 48 49 50 51 52 53 54 55 56 57 58 59 60 61 62 63 64
, f 106;
#X obj 578 769 s $s_2_1;
#X obj 591 749 s $s_2_2;
#X obj 604 726 s $s_2_3;
#X obj 616 708 s $s_2_4;
#X obj 627 685 s $s_2_5;
#X obj 638 666 s $s_2_6;
#X obj 650 641 s $s_2_7;
#X obj 660 618 s $s_2_8;
#X obj 672 771 s $s_2_9;
#X obj 682 748 s $s_2_10;
#X obj 695 728 s $s_2_11;
#X obj 706 705 s $s_2_12;
#X obj 719 685 s $s_2_13;
#X obj 729 666 s $s_2_14;
#X obj 742 644 s $s_2_15;
#X obj 753 621 s $s_2_16;
#X obj 767 772 s $s_2_17;
#X obj 777 749 s $s_2_18;
#X obj 788 728 s $s_2_19;
#X obj 799 706 s $s_2_20;
#X obj 812 686 s $s_2_21;
#X obj 822 665 s $s_2_22;
#X obj 833 645 s $s_2_23;
#X obj 844 623 s $s_2_24;
#X obj 857 774 s $s_2_25;
#X obj 867 751 s $s_2_26;
#X obj 878 730 s $s_2_27;
#X obj 889 708 s $s_2_28;
#X obj 902 688 s $s_2_29;
#X obj 912 667 s $s_2_30;
#X obj 925 646 s $s_2_31;
#X obj 937 625 s $s_2_32;
#X obj 950 776 s $s_2_33;
#X obj 960 753 s $s_2_34;
#X obj 971 732 s $s_2_35;
#X obj 982 710 s $s_2_36;
#X obj 996 690 s $s_2_37;
#X obj 1006 669 s $s_2_38;
#X obj 1019 648 s $s_2_39;
#X obj 1031 627 s $s_2_40;
#X obj 1042 778 s $s_2_41;
#X obj 1055 755 s $s_2_42;
#X obj 1066 734 s $s_2_43;
#X obj 1077 712 s $s_2_44;
#X obj 1090 692 s $s_2_45;
#X obj 1100 671 s $s_2_46;
#X obj 1113 650 s $s_2_47;
#X obj 1123 629 s $s_2_48;
#X obj 1136 780 s $s_2_49;
#X obj 1146 757 s $s_2_50;
#X obj 1157 736 s $s_2_51;
#X obj 1168 714 s $s_2_52;
#X obj 1181 694 s $s_2_53;
#X obj 1191 673 s $s_2_54;
#X obj 1204 652 s $s_2_55;
#X obj 1214 631 s $s_2_56;
#X obj 1227 782 s $s_2_57;
#X obj 1237 759 s $s_2_58;
#X obj 1248 738 s $s_2_59;
#X obj 1259 716 s $s_2_60;
#X obj 1270 695 s $s_2_61;
#X obj 1283 674 s $s_2_62;
#X obj 1294 655 s $s_2_63;
#X obj 1306 634 s $s_2_64;
#X obj -157 605 random 64;
#X obj 1493 373 % 64;
#X obj 1553 352 expr if($f1 > 63 \, 0 \, $f1);
#X obj 1511 656 f;
#X obj 1511 700 hradio 16 1 0 32 empty empty empty 0 -8 0 10 #c6feff
#000000 #000000 0;
#X obj 1580 657 + 1;
#X obj 1510 720 s seq_2;
#X obj 1543 638 expr if($f1 > 31 \, 0 \, $f1);
#X obj 1511 676 % 32;
#X obj 1486 1089 s seq_3;
#X obj 633 825 array get $seq_dr_1;
#X obj 583 846 select 1 2 3 4 5 6 7 8 9 10 11 12 13 14 15 16 17 18
19 20 21 22 23 24 25 26 27 28 29 30 31 32 33 34 35 36 37 38 39 40 41
42 43 44 45 46 47 48 49 50 51 52 53 54 55 56 57 58 59 60 61 62 63 64
, f 106;
#X obj 580 1071 s $s_3_1;
#X obj 593 1051 s $s_3_2;
#X obj 606 1028 s $s_3_3;
#X obj 618 1010 s $s_3_4;
#X obj 629 987 s $s_3_5;
#X obj 640 968 s $s_3_6;
#X obj 652 943 s $s_3_7;
#X obj 662 920 s $s_3_8;
#X obj 674 1073 s $s_3_9;
#X obj 684 1050 s $s_3_10;
#X obj 697 1030 s $s_3_11;
#X obj 708 1007 s $s_3_12;
#X obj 721 987 s $s_3_13;
#X obj 731 968 s $s_3_14;
#X obj 744 946 s $s_3_15;
#X obj 755 923 s $s_3_16;
#X obj 769 1074 s $s_3_17;
#X obj 779 1051 s $s_3_18;
#X obj 790 1030 s $s_3_19;
#X obj 801 1008 s $s_3_20;
#X obj 814 988 s $s_3_21;
#X obj 824 967 s $s_3_22;
#X obj 835 947 s $s_3_23;
#X obj 846 925 s $s_3_24;
#X obj 859 1076 s $s_3_25;
#X obj 869 1053 s $s_3_26;
#X obj 880 1032 s $s_3_27;
#X obj 891 1010 s $s_3_28;
#X obj 904 990 s $s_3_29;
#X obj 914 969 s $s_3_30;
#X obj 927 948 s $s_3_31;
#X obj 939 927 s $s_3_32;
#X obj 952 1078 s $s_3_33;
#X obj 962 1055 s $s_3_34;
#X obj 973 1034 s $s_3_35;
#X obj 984 1012 s $s_3_36;
#X obj 998 992 s $s_3_37;
#X obj 1008 971 s $s_3_38;
#X obj 1021 950 s $s_3_39;
#X obj 1033 929 s $s_3_40;
#X obj 1044 1080 s $s_3_41;
#X obj 1057 1057 s $s_3_42;
#X obj 1068 1036 s $s_3_43;
#X obj 1079 1014 s $s_3_44;
#X obj 1092 994 s $s_3_45;
#X obj 1102 973 s $s_3_46;
#X obj 1115 952 s $s_3_47;
#X obj 1125 931 s $s_3_48;
#X obj 1138 1082 s $s_3_49;
#X obj 1148 1059 s $s_3_50;
#X obj 1159 1038 s $s_3_51;
#X obj 1170 1016 s $s_3_52;
#X obj 1183 996 s $s_3_53;
#X obj 1193 975 s $s_3_54;
#X obj 1206 954 s $s_3_55;
#X obj 1216 933 s $s_3_56;
#X obj 1229 1084 s $s_3_57;
#X obj 1239 1061 s $s_3_58;
#X obj 1250 1040 s $s_3_59;
#X obj 1261 1018 s $s_3_60;
#X obj 1272 997 s $s_3_61;
#X obj 1285 976 s $s_3_62;
#X obj 1296 957 s $s_3_63;
#X obj 1308 935 s $s_3_64;
#X obj 631 502 r seq_2;
#X obj 633 804 r seq_3;
#X obj 1416 175 loadbang;
#X msg 1417 203 0;
#X obj 1508 210 f;
#X obj 1567 237 + 1;
#X obj 1555 210 expr if($f1 > 1 \, 0 \, $f1);
#X obj 1478 242 select 0 1;
#X obj 1488 294 bng 15 250 50 0 empty empty empty 17 7 0 10 #fcfcfc
#000000 #000000;
#X obj 1511 269 del 20;
#X obj 1562 269 hsl 128 15 0 1000 0 0 empty empty empty -2 -8 0 10
#fcfcfc #000000 #000000 0 1;
#X obj 1438 843 loadbang;
#X msg 1439 871 0;
#X obj 1504 860 f;
#X obj 1563 887 + 1;
#X obj 1551 860 expr if($f1 > 1 \, 0 \, $f1);
#X obj 1474 892 select 0 1;
#X obj 1484 944 bng 15 250 50 0 empty empty empty 17 7 0 10 #fcfcfc
#000000 #000000;
#X obj 1558 919 hsl 128 15 0 100 0 0 empty empty empty -2 -8 0 10 #fcfcfc
#000000 #000000 0 1;
#X obj 1507 919 del;
#X obj 1408 547 loadbang;
#X msg 1409 575 0;
#X obj 1474 564 f;
#X obj 1533 591 + 1;
#X obj 1521 564 expr if($f1 > 1 \, 0 \, $f1);
#X obj 1444 596 select 0 1;
#X obj 1454 648 bng 15 250 50 0 empty empty empty 17 7 0 10 #fcfcfc
#000000 #000000;
#X obj 1528 619 hsl 128 15 0 100 0 0 empty empty empty -2 -8 0 10 #fcfcfc
#000000 #000000 0 1;
#X obj 1477 623 del;
#X obj 1518 981 expr if($f1 > 15 \, 0 \, $f1);
#X obj 1486 1019 % 16;
#X obj 839 56 s pulse;
#X obj 1509 113 r pulse;
#X obj 1509 535 r pulse;
#X obj 1502 808 r pulse;
#X obj 1623 431 s pulse_every_1;
#X obj 1570 414 bng 15 250 50 0 empty empty empty 17 7 0 10 #fcfcfc
#000000 #000000;
#X connect 1 0 2 0;
#X connect 2 0 5 0;
#X connect 3 0 364 0;
#X connect 4 0 5 0;
#X connect 5 0 3 0;
#X connect 6 0 258 0;
#X connect 6 0 101 0;
#X connect 8 0 129 0;
#X connect 9 0 36 0;
#X connect 10 0 37 0;
#X connect 22 0 108 0;
#X connect 23 0 107 0;
#X connect 24 0 68 1;
#X connect 26 0 29 0;
#X connect 27 0 28 0;
#X connect 28 0 45 0;
#X connect 29 0 25 0;
#X connect 30 0 65 0;
#X connect 31 0 47 0;
#X connect 32 0 31 0;
#X connect 33 0 46 0;
#X connect 36 0 27 0;
#X connect 36 0 81 0;
#X connect 37 0 26 0;
#X connect 37 0 81 1;
#X connect 38 0 43 0;
#X connect 41 0 44 0;
#X connect 42 0 38 0;
#X connect 43 0 39 0;
#X connect 43 0 40 0;
#X connect 46 0 34 0;
#X connect 46 1 35 0;
#X connect 47 0 46 1;
#X connect 55 0 138 0;
#X connect 55 0 257 0;
#X connect 57 0 59 0;
#X connect 57 0 62 0;
#X connect 58 0 60 0;
#X connect 60 0 62 1;
#X connect 61 0 60 0;
#X connect 63 0 61 0;
#X connect 63 0 139 0;
#X connect 64 0 89 0;
#X connect 67 0 66 0;
#X connect 69 0 68 0;
#X connect 71 0 70 0;
#X connect 72 0 70 1;
#X connect 74 0 73 0;
#X connect 75 0 73 1;
#X connect 77 0 60 0;
#X connect 78 0 79 0;
#X connect 78 0 77 0;
#X connect 79 0 62 0;
#X connect 80 0 1 0;
#X connect 82 0 85 0;
#X connect 85 0 86 0;
#X connect 85 0 88 0;
#X connect 86 0 85 1;
#X connect 87 0 83 0;
#X connect 88 0 87 0;
#X connect 90 0 24 0;
#X connect 90 0 72 0;
#X connect 90 0 75 0;
#X connect 90 0 103 0;
#X connect 91 0 90 0;
#X connect 93 0 94 0;
#X connect 94 0 95 0;
#X connect 95 0 98 0;
#X connect 98 0 96 0;
#X connect 98 0 99 0;
#X connect 98 1 97 0;
#X connect 98 1 100 0;
#X connect 101 0 259 0;
#X connect 103 0 102 1;
#X connect 104 0 102 0;
#X connect 105 0 102 2;
#X connect 106 0 105 0;
#X connect 107 0 10 0;
#X connect 108 0 9 0;
#X connect 109 0 110 0;
#X connect 111 0 110 3;
#X connect 112 0 110 2;
#X connect 113 0 110 1;
#X connect 118 0 119 0;
#X connect 119 0 122 0;
#X connect 123 0 125 0;
#X connect 124 0 123 0;
#X connect 126 0 128 0;
#X connect 126 0 363 0;
#X connect 127 0 266 0;
#X connect 128 0 362 0;
#X connect 129 0 11 0;
#X connect 129 1 12 0;
#X connect 129 2 13 0;
#X connect 129 3 14 0;
#X connect 129 4 15 0;
#X connect 129 5 16 0;
#X connect 129 6 17 0;
#X connect 129 7 18 0;
#X connect 129 8 19 0;
#X connect 129 9 20 0;
#X connect 129 10 21 0;
#X connect 129 11 50 0;
#X connect 129 12 51 0;
#X connect 129 13 52 0;
#X connect 129 14 53 0;
#X connect 129 15 54 0;
#X connect 129 16 130 0;
#X connect 129 17 131 0;
#X connect 129 18 132 0;
#X connect 129 19 133 0;
#X connect 129 20 134 0;
#X connect 129 21 135 0;
#X connect 129 22 136 0;
#X connect 129 23 137 0;
#X connect 129 24 140 0;
#X connect 129 25 141 0;
#X connect 129 26 142 0;
#X connect 129 27 143 0;
#X connect 129 28 144 0;
#X connect 129 29 145 0;
#X connect 129 30 146 0;
#X connect 129 31 147 0;
#X connect 129 32 148 0;
#X connect 129 33 149 0;
#X connect 129 34 150 0;
#X connect 129 35 151 0;
#X connect 129 36 152 0;
#X connect 129 37 153 0;
#X connect 129 38 154 0;
#X connect 129 39 155 0;
#X connect 129 40 156 0;
#X connect 129 41 157 0;
#X connect 129 42 158 0;
#X connect 129 43 159 0;
#X connect 129 44 160 0;
#X connect 129 45 161 0;
#X connect 129 46 162 0;
#X connect 129 47 163 0;
#X connect 129 48 164 0;
#X connect 129 49 165 0;
#X connect 129 50 166 0;
#X connect 129 51 167 0;
#X connect 129 52 168 0;
#X connect 129 53 169 0;
#X connect 129 54 170 0;
#X connect 129 55 171 0;
#X connect 129 56 172 0;
#X connect 129 57 173 0;
#X connect 129 58 174 0;
#X connect 129 59 175 0;
#X connect 129 60 176 0;
#X connect 129 61 177 0;
#X connect 129 62 178 0;
#X connect 129 63 179 0;
#X connect 138 0 58 0;
#X connect 139 0 62 0;
#X connect 180 0 188 0;
#X connect 181 0 188 3;
#X connect 182 0 188 2;
#X connect 183 0 188 1;
#X connect 190 0 8 0;
#X connect 191 0 192 0;
#X connect 192 0 193 0;
#X connect 192 1 194 0;
#X connect 192 2 195 0;
#X connect 192 3 196 0;
#X connect 192 4 197 0;
#X connect 192 5 198 0;
#X connect 192 6 199 0;
#X connect 192 7 200 0;
#X connect 192 8 201 0;
#X connect 192 9 202 0;
#X connect 192 10 203 0;
#X connect 192 11 204 0;
#X connect 192 12 205 0;
#X connect 192 13 206 0;
#X connect 192 14 207 0;
#X connect 192 15 208 0;
#X connect 192 16 209 0;
#X connect 192 17 210 0;
#X connect 192 18 211 0;
#X connect 192 19 212 0;
#X connect 192 20 213 0;
#X connect 192 21 214 0;
#X connect 192 22 215 0;
#X connect 192 23 216 0;
#X connect 192 24 217 0;
#X connect 192 25 218 0;
#X connect 192 26 219 0;
#X connect 192 27 220 0;
#X connect 192 28 221 0;
#X connect 192 29 222 0;
#X connect 192 30 223 0;
#X connect 192 31 224 0;
#X connect 192 32 225 0;
#X connect 192 33 226 0;
#X connect 192 34 227 0;
#X connect 192 35 228 0;
#X connect 192 36 229 0;
#X connect 192 37 230 0;
#X connect 192 38 231 0;
#X connect 192 39 232 0;
#X connect 192 40 233 0;
#X connect 192 41 234 0;
#X connect 192 42 235 0;
#X connect 192 43 236 0;
#X connect 192 44 237 0;
#X connect 192 45 238 0;
#X connect 192 46 239 0;
#X connect 192 47 240 0;
#X connect 192 48 241 0;
#X connect 192 49 242 0;
#X connect 192 50 243 0;
#X connect 192 51 244 0;
#X connect 192 52 245 0;
#X connect 192 53 246 0;
#X connect 192 54 247 0;
#X connect 192 55 248 0;
#X connect 192 56 249 0;
#X connect 192 57 250 0;
#X connect 192 58 251 0;
#X connect 192 59 252 0;
#X connect 192 60 253 0;
#X connect 192 61 254 0;
#X connect 192 62 255 0;
#X connect 192 63 256 0;
#X connect 257 0 57 0;
#X connect 258 0 118 0;
#X connect 258 0 124 0;
#X connect 258 0 7 0;
#X connect 258 0 369 0;
#X connect 259 0 6 1;
#X connect 260 0 262 0;
#X connect 260 0 265 0;
#X connect 261 0 263 0;
#X connect 262 0 264 0;
#X connect 264 0 260 1;
#X connect 265 0 261 0;
#X connect 267 0 268 0;
#X connect 268 0 269 0;
#X connect 268 1 270 0;
#X connect 268 2 271 0;
#X connect 268 3 272 0;
#X connect 268 4 273 0;
#X connect 268 5 274 0;
#X connect 268 6 275 0;
#X connect 268 7 276 0;
#X connect 268 8 277 0;
#X connect 268 9 278 0;
#X connect 268 10 279 0;
#X connect 268 11 280 0;
#X connect 268 12 281 0;
#X connect 268 13 282 0;
#X connect 268 14 283 0;
#X connect 268 15 284 0;
#X connect 268 16 285 0;
#X connect 268 17 286 0;
#X connect 268 18 287 0;
#X connect 268 19 288 0;
#X connect 268 20 289 0;
#X connect 268 21 290 0;
#X connect 268 22 291 0;
#X connect 268 23 292 0;
#X connect 268 24 293 0;
#X connect 268 25 294 0;
#X connect 268 26 295 0;
#X connect 268 27 296 0;
#X connect 268 28 297 0;
#X connect 268 29 298 0;
#X connect 268 30 299 0;
#X connect 268 31 300 0;
#X connect 268 32 301 0;
#X connect 268 33 302 0;
#X connect 268 34 303 0;
#X connect 268 35 304 0;
#X connect 268 36 305 0;
#X connect 268 37 306 0;
#X connect 268 38 307 0;
#X connect 268 39 308 0;
#X connect 268 40 309 0;
#X connect 268 41 310 0;
#X connect 268 42 311 0;
#X connect 268 43 312 0;
#X connect 268 44 313 0;
#X connect 268 45 314 0;
#X connect 268 46 315 0;
#X connect 268 47 316 0;
#X connect 268 48 317 0;
#X connect 268 49 318 0;
#X connect 268 50 319 0;
#X connect 268 51 320 0;
#X connect 268 52 321 0;
#X connect 268 53 322 0;
#X connect 268 54 323 0;
#X connect 268 55 324 0;
#X connect 268 56 325 0;
#X connect 268 57 326 0;
#X connect 268 58 327 0;
#X connect 268 59 328 0;
#X connect 268 60 329 0;
#X connect 268 61 330 0;
#X connect 268 62 331 0;
#X connect 268 63 332 0;
#X connect 333 0 191 0;
#X connect 334 0 267 0;
#X connect 335 0 336 0;
#X connect 336 0 337 0;
#X connect 337 0 338 0;
#X connect 337 0 340 0;
#X connect 338 0 339 0;
#X connect 339 0 337 1;
#X connect 340 0 341 0;
#X connect 340 1 342 0;
#X connect 341 0 6 0;
#X connect 342 0 341 0;
#X connect 343 0 342 1;
#X connect 344 0 345 0;
#X connect 345 0 346 0;
#X connect 346 0 347 0;
#X connect 346 0 349 0;
#X connect 347 0 348 0;
#X connect 348 0 346 1;
#X connect 349 0 350 0;
#X connect 349 1 352 0;
#X connect 350 0 126 0;
#X connect 351 0 352 1;
#X connect 352 0 350 0;
#X connect 353 0 354 0;
#X connect 354 0 355 0;
#X connect 355 0 356 0;
#X connect 355 0 358 0;
#X connect 356 0 357 0;
#X connect 357 0 355 1;
#X connect 358 0 359 0;
#X connect 358 1 361 0;
#X connect 359 0 260 0;
#X connect 360 0 361 1;
#X connect 361 0 359 0;
#X connect 362 0 126 1;
#X connect 363 0 127 0;
#X connect 365 0 337 0;
#X connect 366 0 355 0;
#X connect 367 0 346 0;
#X connect 369 0 368 0;
