#N canvas 402 24 862 709 12;
#N canvas 0 0 1280 800 (subpatch) 0;
#X array $seq_dr_1 64 float 3;
#A 0 1 2 3 4 5 6 7 8 9 10 11 12 13 14 15 16 17 18 19 20 21 22 23 24
25 26 27 28 29 30 31 32 33 34 35 36 37 38 39 40 41 42 43 44 45 46 47
48 49 50 51 52 53 54 55 56 57 58 59 60 61 62 63 64;
#X coords 0 1 64 64 396 271 1 0 0;
#X restore -501 70 graph;
#N canvas 0 22 450 278 (subpatch) 0;
#X array $seq_dr_2 16 float 3;
#A 0 2 3 4 5 6 3 2 4 1 2 4 5 7 8 5 6.14286;
#X coords 0 0 16 20 200 140 1 0 0;
#X restore -428 629 graph;
#X msg -428 775 2 3 4 5 6 3 2 4 1 2 4 5 7 8 5 6;
#X obj -428 801 array set $seq_dr_2;
#X floatatom 1005 -36 5 0 0 0 - - - 0;
#X msg 1007 -18 tempo \$1 permin;
#X obj 1007 40 bng 15 250 50 0 empty empty empty 17 7 0 10 #fcfcfc
#000000 #000000;
#X obj 984 -10 tgl 15 0 empty empty empty 17 7 0 10 #fcfcfc #000000
#000000 0 1;
#X obj 1007 5 metro 0.25 120 permin;
#X obj 1000 299 f;
#X obj 1000 343 hradio 16 1 0 64 empty empty empty 0 -8 0 10 #c6ffc7
#000000 #000000 0;
#X obj 141 -47 array get $seq_dr_1;
#X obj 1176 958 expr~ if($v1 > 1 \, 1 \, $v1);
#X obj 1376 960 expr~ if($v1 < -1 \, -1 \, $v1);
#X obj 93 198 s $s1;
#X obj 102 177 s $s2;
#X obj 115 154 s $s3;
#X obj 127 136 s $s4;
#X obj 138 113 s $s5;
#X obj 149 94 s $s6;
#X obj 161 69 s $s7;
#X obj 171 46 s $s8;
#X obj 183 199 s $s9;
#X obj 193 176 s $s10;
#X obj 206 156 s $s11;
#N canvas 0 22 450 278 (subpatch) 0;
#X array output 100 float 5;
#A 0 0.485133 0.485133 0.485133 0.485133 0.485133 0.485133 0.485133
0.485133 0.485133 0.485133 0.485133 0.485133 0.485133 0.485133 0.485133
0.485133 0.485133 0.485133 0.485133 0.485133 0.485133 0.485133 0.485133
0.485133 0.485133 0.485133 0.485133 0.485133 0.485133 0.485133 0.485133
0.485133 0.485133 0.485133 0.485133 0.485133 0.485133 0.485133 0.485133
0.485133 0.485133 0.485133 0.485133 0.485133 0.485133 0.485133 0.485133
0.485133 0.485133 0.485133 0.485133 0.485133 0.485133 0.485133 0.485133
0.485133 0.485133 0.485133 0.485133 0.485133 0.485133 0.485133 0.485133
0.485133 0.485133 0.485133 0.485133 0.485133 0.485133 0.485133 0.485133
0.485133 0.485133 0.485133 0.485133 0.485133 0.485133 0.485133 0.485133
0.485133 0.485133 0.485133 0.485133 0.485133 0.485133 0.485133 0.485133
0.485133 0.485133 0.485133 0.485133 0.485133 0.485133 0.485133 0.485133
0.485133 0.485133 0.485133 0.485133 0.485133;
#X coords 0 1 99 -1 200 140 1 0 0;
#X restore 1162 764 graph;
#X obj 1055 956 tabwrite~ output;
#X obj 1573 979 tabwrite~ output;
#X obj 1056 917 tgl 15 0 empty empty empty 17 7 0 10 #fcfcfc #000000
#000000 0 1;
#X obj 1056 933 metro 100;
#X obj 1571 916 tgl 15 0 empty empty empty 17 7 0 10 #fcfcfc #000000
#000000 0 1;
#X obj 1573 956 metro 100;
#X obj 1177 915 catch~ right_channel;
#X obj 1374 912 catch~ left_channel;
#X obj 655 1240 tgl 15 0 empty empty empty 17 7 0 10 #fcfcfc #000000
#000000 0 1;
#X obj 1350 1049 vu 15 120 empty empty -1 -8 0 10 #404040 #000000 1
0;
#X obj 1347 998 env~;
#X obj 1290 997 env~;
#X obj 1289 1021 - 100;
#X obj 1347 1025 - 100;
#X obj 497 1174 r hh2;
#X obj 384 942 vsl 15 128 0 127 0 0 empty empty empty 0 -9 0 10 #fcfcfc
#000000 #000000 0 1;
#X obj 363 920 ctlin 18 1;
#X obj 244 1047 r~ reverb2_no1;
#X obj 163 1169 throw~ right_channel;
#X obj 310 1159 throw~ left_channel;
#X obj 1176 977 *~ 0.5;
#X obj 1226 977 *~ 0.5;
#X obj 383 1222 vsl 15 128 0 127 0 0 empty empty empty 0 -9 0 10 #fcfcfc
#000000 #000000 0 1;
#X obj 158 1406 throw~ right_channel;
#X obj 305 1396 throw~ left_channel;
#X obj 179 1284 r~ del2_no2;
#X obj 357 1197 ctlin 19 1;
#X obj 248 1362 delread~ delay_all 0;
#X obj 179 1307 delwrite~ delay_all 400;
#X obj 1291 1050 vu 15 120 empty empty -1 -8 0 10 #404040 #000000 1
0;
#X obj 1599 769 tgl 15 0 empty empty empty 17 7 0 10 #fcfcfc #000000
#000000 0 1;
#X obj 1599 785 metro 100;
#N canvas 0 22 450 278 (subpatch) 0;
#X array input 100 float 5;
#A 0 0 0 0 0 0 0 0 0 0 0 0 0 0 0 0 0 0 0 0 0 0 0 0 0 0 0 0 0 0 0 0
0 0 0 0 0 0 0 0 0 0 0 0 0 0 0 0 0 0 0 0 0 0 0 0 0 0 0 0 0 0 0 0 0 0
0 0 0 0 0 0 0 0 0 0 0 0 0 0 0 0 0 0 0 0 0 0 0 0 0 0 0 0 0 0 0 0 0 0
0;
#X coords 0 1 99 -1 200 140 1 0 0;
#X restore 1378 764 graph;
#X obj 1598 808 tabwrite~ input;
#X obj 245 1118 rev2~ 50 100 2000 2;
#X obj 323 1087 - 20;
#N canvas 69 23 1172 710 steps 0;
#N canvas 0 22 450 278 (subpatch) 0;
#X array $step1 6 float 3;
#A 0 87.0857 1.81429 32.6571 0 19.9571 52.6143;
#X coords 0 0 6 127 200 140 1 0 0;
#X restore 76 1641 graph;
#N canvas 0 22 450 278 (subpatch) 0;
#X array $step2 6 float 3;
#A 0 2.72143 3.62857 58.9643 51.7071 49.8929 1.81429;
#X coords 0 0 6 127 200 140 1 0 0;
#X restore 283 1640 graph;
#N canvas 0 22 450 278 (subpatch) 0;
#X array $step3 6 float 3;
#A 0 3.62857 0.907143 1.81429 0.907143 1.81429 1.81429;
#X coords 0 0 6 127 200 140 1 0 0;
#X restore 492 1640 graph;
#N canvas 0 22 450 278 (subpatch) 0;
#X array $step4 6 float 3;
#A 0 85.2714 2.72143 2.72143 0.907143 97.9714 3.62857;
#X coords 0 0 6 127 200 140 1 0 0;
#X restore 700 1639 graph;
#N canvas 0 22 450 278 (subpatch) 0;
#X array $step5 6 float 3;
#A 0 1.81429 1.81429 84.3643 2.72143 3.62857 61.6857;
#X coords 0 0 6 127 200 140 1 0 0;
#X restore 917 1642 graph;
#N canvas 0 22 450 278 (subpatch) 0;
#X array $step6 6 float 3;
#A 0 3.62857 0.907143 0.907143 3.62857 97.9714 0;
#X coords 0 0 6 127 200 140 1 0 0;
#X restore 1125 1642 graph;
#N canvas 0 22 450 278 (subpatch) 0;
#X array $step7 6 float 3;
#A 0 2.72143 0 0 0.907143 99.7857 3.62857;
#X coords 0 0 6 127 200 140 1 0 0;
#X restore 1331 1642 graph;
#N canvas 0 22 450 278 (subpatch) 0;
#X array $step8 6 float 3;
#A 0 1.81429 0.907143 85.2714 2.72143 97.0643 1.81429;
#X coords 0 0 6 127 200 140 1 0 0;
#X restore 1539 1642 graph;
#N canvas 0 22 450 278 (subpatch) 0;
#X array $step9 6 float 3;
#A 0 80.7357 2.72143 0.907143 0.907143 109.764 69.85;
#X coords 0 0 6 127 200 140 1 0 0;
#X restore 79 1799 graph;
#N canvas 0 22 450 278 (subpatch) 0;
#X array $step10 6 float 3;
#A 0 4.53571 0.907143 2.72143 97.9714 99.7857 1.81429;
#X coords 0 0 6 127 200 140 1 0 0;
#X restore 283 1799 graph;
#N canvas 0 22 450 278 (subpatch) 0;
#X array $step11 6 float 3;
#A 0 0.907143 80.7357 0 3.62857 107.95 0;
#X coords 0 0 6 127 200 140 1 0 0;
#X restore 492 1799 graph;
#N canvas 0 22 450 278 (subpatch) 0;
#X array $step12 6 float 3;
#A 0 0 1.81429 1.81429 104.321 99.7857 2.72143;
#X coords 0 0 6 127 200 140 1 0 0;
#X restore 700 1798 graph;
#N canvas 0 22 450 278 (subpatch) 0;
#X array $step13 6 float 3;
#A 0 87.9929 1.81429 97.9714 2.72143 1.81429 71.6643;
#X coords 0 0 6 127 200 140 1 0 0;
#X restore 918 1802 graph;
#N canvas 0 22 450 278 (subpatch) 0;
#X array $step14 6 float 3;
#A 0 0.907143 0.907143 0.907143 0.907143 106.136 3.62857;
#X coords 0 0 6 127 200 140 1 0 0;
#X restore 1126 1802 graph;
#N canvas 0 22 450 278 (subpatch) 0;
#X array $step15 6 float 3;
#A 0 1.81429 0 0.907143 0.907143 110.671 4.53571;
#X coords 0 0 6 127 200 140 1 0 0;
#X restore 1332 1802 graph;
#N canvas 0 22 450 278 (subpatch) 0;
#X array $step16 6 float 3;
#A 0 4.53571 56.2429 0.907143 3.62857 110.671 3.62857;
#X coords 0 0 6 127 200 140 1 0 0;
#X restore 1540 1802 graph;
#N canvas 0 22 450 278 (subpatch) 0;
#X array $step1_poly_synth_no1 4 float 3;
#A 0 66 64 60 57;
#X coords 0 0 4 127 200 140 1 0 0;
#X restore 104 -157 graph;
#N canvas 0 22 450 278 (subpatch) 0;
#X array $step2_poly_synth_no1 4 float 3;
#A 0 64.4071 96.1571 79.8286 114.3;
#X coords 0 0 4 127 200 140 1 0 0;
#X restore 308 -157 graph;
#N canvas 0 22 450 278 (subpatch) 0;
#X array $step5_poly_synth_no1 4 float 3;
#A 0 0 0.907143 0.907143 1.81429;
#X coords 0 0 4 127 200 140 1 0 0;
#X restore 928 -155 graph;
#N canvas 0 22 450 278 (subpatch) 0;
#X array $step6_poly_synth_no1 4 float 3;
#A 0 0 1.81429 1.81429 0;
#X coords 0 0 4 127 200 140 1 0 0;
#X restore 1132 -155 graph;
#N canvas 0 22 450 278 (subpatch) 0;
#X array $step3_poly_synth_no1 4 float 3;
#A 0 36.2857 61.6857 54.4286 2.72143;
#X coords 0 0 4 127 200 140 1 0 0;
#X restore 516 -157 graph;
#N canvas 0 22 450 278 (subpatch) 0;
#X array $step4_poly_synth_no1 4 float 3;
#A 0 2.72143 1.81429 2.72143 0;
#X coords 0 0 4 127 200 140 1 0 0;
#X restore 720 -157 graph;
#N canvas 0 22 450 278 (subpatch) 0;
#X array $step7_poly_synth_no1 4 float 3;
#A 0 80.7357 80.7357 73.4785 70.7571;
#X coords 0 0 4 127 200 140 1 0 0;
#X restore 1340 -155 graph;
#N canvas 0 22 450 278 (subpatch) 0;
#X array $step8_poly_synth_no1 4 float 3;
#A 0 66 64 60 67.1286;
#X coords 0 0 4 127 200 140 1 0 0;
#X restore 1544 -155 graph;
#N canvas 0 22 450 278 (subpatch) 0;
#X array $step9_poly_synth_no1 4 float 3;
#A 0 1.81429 1.81429 0.90712 3.62857;
#X coords 0 0 4 127 200 140 1 0 0;
#X restore 103 5 graph;
#N canvas 0 22 450 278 (subpatch) 0;
#X array $step10_poly_synth_no1 4 float 3;
#A 0 1.81429 0.907143 1.81429 0.907143;
#X coords 0 0 4 127 200 140 1 0 0;
#X restore 307 5 graph;
#N canvas 0 22 450 278 (subpatch) 0;
#X array $step13_poly_synth_no1 4 float 3;
#A 0 0.907143 0.907143 0.907143 2.72143;
#X coords 0 0 4 127 200 140 1 0 0;
#X restore 928 6 graph;
#N canvas 0 22 450 278 (subpatch) 0;
#X array $step14_poly_synth_no1 4 float 3;
#A 0 0.907143 1.81429 0.907143 0;
#X coords 0 0 4 127 200 140 1 0 0;
#X restore 1132 6 graph;
#N canvas 0 22 450 278 (subpatch) 0;
#X array $step11_poly_synth_no1 4 float 3;
#A 0 1.81429 1.81429 50.8 0.907143;
#X coords 0 0 4 127 200 140 1 0 0;
#X restore 515 5 graph;
#N canvas 0 22 450 278 (subpatch) 0;
#X array $step12_poly_synth_no1 4 float 3;
#A 0 0.907143 0.907143 0 34.4714;
#X coords 0 0 4 127 200 140 1 0 0;
#X restore 719 5 graph;
#N canvas 0 22 450 278 (subpatch) 0;
#X array $step15_poly_synth_no1 4 float 3;
#A 0 0.907143 0.907143 0.907143 0.907143;
#X coords 0 0 4 127 200 140 1 0 0;
#X restore 1340 6 graph;
#N canvas 0 22 450 278 (subpatch) 0;
#X array $step16_poly_synth_no1 4 float 3;
#A 0 1.81429 1.81429 1.81429 1.81429;
#X coords 0 0 4 127 200 140 1 0 0;
#X restore 1544 6 graph;
#X obj 2008 -57 bng 15 250 50 0 empty empty empty 17 7 0 10 #fcfcfc
#000000 #000000;
#X obj 1832 26 tabwrite $step1_poly_synth_no1;
#X obj 1832 49 tabwrite $step2_poly_synth_no1;
#X obj 1832 72 tabwrite $step3_poly_synth_no1;
#X obj 1833 96 tabwrite $step4_poly_synth_no1;
#X obj 1832 122 tabwrite $step5_poly_synth_no1;
#X obj 1832 145 tabwrite $step6_poly_synth_no1;
#X obj 1832 168 tabwrite $step7_poly_synth_no1;
#X obj 1833 192 tabwrite $step8_poly_synth_no1;
#X obj 2133 27 tabwrite $step9_poly_synth_no1;
#X obj 2133 50 tabwrite $step10_poly_synth_no1;
#X obj 2133 73 tabwrite $step11_poly_synth_no1;
#X obj 2134 97 tabwrite $step12_poly_synth_no1;
#X obj 2133 123 tabwrite $step13_poly_synth_no1;
#X obj 2133 146 tabwrite $step14_poly_synth_no1;
#X obj 2133 169 tabwrite $step15_poly_synth_no1;
#X obj 2134 193 tabwrite $step16_poly_synth_no1;
#X obj 1832 7 unpack f f;
#X obj 2228 -59 bng 15 250 50 0 empty empty empty 17 7 0 10 #fcfcfc
#000000 #000000;
#X obj 2052 5 unpack f f;
#X floatatom 2050 -101 5 0 0 0 - - - 0;
#X obj 2124 -101 random 127;
#X obj 2298 -100 tgl 15 0 empty empty empty 17 7 0 10 #fcfcfc #000000
#000000 0 1;
#X floatatom 2049 -122 5 0 0 0 - - - 0;
#X obj 2123 -122 random 127;
#X obj 2297 -121 tgl 15 0 empty empty empty 17 7 0 10 #fcfcfc #000000
#000000 0 1;
#X floatatom 2048 -142 5 0 0 0 - - - 0;
#X obj 2122 -142 random 127;
#X obj 2296 -141 tgl 15 0 empty empty empty 17 7 0 10 #fcfcfc #000000
#000000 0 1;
#X obj 2209 -141 metro 1000;
#X obj 2210 -121 metro 1000;
#X obj 2211 -100 metro 1000;
#X msg 1832 -14 57 3;
#X msg 1831 -34 60 2;
#X msg 1831 -55 64 1;
#X msg 1830 -75 66 0;
#X msg 2050 -77 66 0;
#X msg 2051 -57 64 1;
#X msg 2051 -36 60 2;
#X msg 2052 -16 57 3;
#N canvas 0 22 450 278 (subpatch) 0;
#X array $step17 6 float 3;
#A 0 48.9857 1.81429 0 0 3.62857 53.5214;
#X coords 0 0 6 127 200 140 1 0 0;
#X restore 82 1956 graph;
#N canvas 0 22 450 278 (subpatch) 0;
#X array $step18 6 float 3;
#A 0 0.907143 0 0 0 97.0643 1.81429;
#X coords 0 0 6 127 200 140 1 0 0;
#X restore 286 1956 graph;
#N canvas 0 22 450 278 (subpatch) 0;
#X array $step19 6 float 3;
#A 0 3.62857 99.7857 3.62857 0.907143 99.7857 1.81429;
#X coords 0 0 6 127 200 140 1 0 0;
#X restore 495 1956 graph;
#N canvas 0 22 450 278 (subpatch) 0;
#X array $step20 6 float 3;
#A 0 3.62857 27.2143 2.72143 0.907143 97.9714 3.62857;
#X coords 0 0 6 127 200 140 1 0 0;
#X restore 703 1955 graph;
#N canvas 0 22 450 278 (subpatch) 0;
#X array $step21 6 float 3;
#A 0 58.9643 1.81429 84.3643 2.72143 3.62857 61.6857;
#X coords 0 0 6 127 200 140 1 0 0;
#X restore 923 1957 graph;
#N canvas 0 22 450 278 (subpatch) 0;
#X array $step22 6 float 3;
#A 0 3.62857 0.907143 0.907143 3.62857 97.9714 0;
#X coords 0 0 6 127 200 140 1 0 0;
#X restore 1131 1957 graph;
#N canvas 0 22 450 278 (subpatch) 0;
#X array $step23 6 float 3;
#A 0 2.72143 0 0 0.907143 99.7857 3.62857;
#X coords 0 0 6 127 200 140 1 0 0;
#X restore 1337 1957 graph;
#N canvas 0 22 450 278 (subpatch) 0;
#X array $step24 6 float 3;
#A 0 1.81429 0.907143 85.2714 2.72143 97.0643 1.81429;
#X coords 0 0 6 127 200 140 1 0 0;
#X restore 1545 1957 graph;
#N canvas 0 22 450 278 (subpatch) 0;
#X array $step25 6 float 3;
#A 0 80.7357 2.72143 0.907143 0.907143 109.764 29.0286;
#X coords 0 0 6 127 200 140 1 0 0;
#X restore 80 2117 graph;
#N canvas 0 22 450 278 (subpatch) 0;
#X array $step26 6 float 3;
#A 0 4.53571 0.907143 60.7786 97.9714 99.7857 1.81429;
#X coords 0 0 6 127 200 140 1 0 0;
#X restore 284 2117 graph;
#N canvas 0 22 450 278 (subpatch) 0;
#X array $step27 6 float 3;
#A 0 0.907143 80.7357 0 3.62857 107.95 0;
#X coords 0 0 6 127 200 140 1 0 0;
#X restore 493 2117 graph;
#N canvas 0 22 450 278 (subpatch) 0;
#X array $step28 6 float 3;
#A 0 0 1.81429 1.81429 104.321 99.7857 2.72143;
#X coords 0 0 6 127 200 140 1 0 0;
#X restore 701 2116 graph;
#N canvas 0 22 450 278 (subpatch) 0;
#X array $step29 6 float 3;
#A 0 87.9929 1.81429 97.9714 2.72143 1.81429 71.6643;
#X coords 0 0 6 127 200 140 1 0 0;
#X restore 920 2118 graph;
#N canvas 0 22 450 278 (subpatch) 0;
#X array $step30 6 float 3;
#A 0 0.907143 0.907143 0.907143 0.907143 106.136 3.62857;
#X coords 0 0 6 127 200 140 1 0 0;
#X restore 1128 2118 graph;
#N canvas 0 22 450 278 (subpatch) 0;
#X array $step31 6 float 3;
#A 0 1.81429 0 0.907143 0.907143 110.671 4.53571;
#X coords 0 0 6 127 200 140 1 0 0;
#X restore 1334 2118 graph;
#N canvas 0 22 450 278 (subpatch) 0;
#X array $step32 6 float 3;
#A 0 4.53571 56.2429 0.907143 3.62857 110.671 3.62857;
#X coords 0 0 6 127 200 140 1 0 0;
#X restore 1542 2118 graph;
#N canvas 0 22 450 278 (subpatch) 0;
#X array $step37 6 float 3;
#A 0 91.6214 1.81429 0 0 3.62857 53.5214;
#X coords 0 0 6 127 200 140 1 0 0;
#X restore 923 2279 graph;
#N canvas 0 22 450 278 (subpatch) 0;
#X array $step38 6 float 3;
#A 0 0.907143 0 0 0 97.0643 1.81429;
#X coords 0 0 6 127 200 140 1 0 0;
#X restore 1127 2279 graph;
#N canvas 0 22 450 278 (subpatch) 0;
#X array $step39 6 float 3;
#A 0 3.62857 99.7857 3.62857 0.907143 99.7857 1.81429;
#X coords 0 0 6 127 200 140 1 0 0;
#X restore 1336 2279 graph;
#N canvas 0 22 450 278 (subpatch) 0;
#X array $step40 6 float 3;
#A 0 85.2714 2.72143 2.72143 0.907143 97.9714 3.62857;
#X coords 0 0 6 127 200 140 1 0 0;
#X restore 1544 2278 graph;
#N canvas 0 22 450 278 (subpatch) 0;
#X array $step45 6 float 3;
#A 0 91.6214 0.907143 87.9929 0.907143 0.907143 0.907143;
#X coords 0 0 6 127 200 140 1 0 0;
#X restore 923 2446 graph;
#N canvas 0 22 450 278 (subpatch) 0;
#X array $step46 6 float 3;
#A 0 1.81429 1.81429 1.81429 1.81429 1.81429 1.81429;
#X coords 0 0 6 127 200 140 1 0 0;
#X restore 1131 2446 graph;
#N canvas 0 22 450 278 (subpatch) 0;
#X array $step47 6 float 3;
#A 0 2.72143 2.72143 2.72143 2.72143 3.62853 1.81432;
#X coords 0 0 6 127 200 140 1 0 0;
#X restore 1337 2446 graph;
#N canvas 0 22 450 278 (subpatch) 0;
#X array $step48 6 float 3;
#A 0 2.72143 2.72143 2.72143 2.72143 2.72143 2.72143;
#X coords 0 0 6 127 200 140 1 0 0;
#X restore 1545 2446 graph;
#N canvas 0 22 450 278 (subpatch) 0;
#X array $step53 6 float 3;
#A 0 93.4357 1.81429 86.1786 1.81429 1.81429 1.81429;
#X coords 0 0 6 127 200 140 1 0 0;
#X restore 921 2610 graph;
#N canvas 0 22 450 278 (subpatch) 0;
#X array $step54 6 float 3;
#A 0 3.62857 3.62857 3.62857 3.62857 3.62857 2.72147;
#X coords 0 0 6 127 200 140 1 0 0;
#X restore 1125 2610 graph;
#N canvas 0 22 450 278 (subpatch) 0;
#X array $step55 6 float 3;
#A 0 0 0 0 0 0 0;
#X coords 0 0 6 127 200 140 1 0 0;
#X restore 1334 2610 graph;
#N canvas 0 22 450 278 (subpatch) 0;
#X array $step56 6 float 3;
#A 0 1.81429 1.81429 1.81429 1.81429 1.81429 1.81429;
#X coords 0 0 6 127 200 140 1 0 0;
#X restore 1542 2609 graph;
#N canvas 0 22 450 278 (subpatch) 0;
#X array $step61 6 float 3;
#A 0 82.55 0.907143 95.25 0.907143 0.907143 0.907143;
#X coords 0 0 6 127 200 140 1 0 0;
#X restore 921 2777 graph;
#N canvas 0 22 450 278 (subpatch) 0;
#X array $step62 6 float 3;
#A 0 0.907143 0.907143 0.907143 1.81429 89.8071 1.81429;
#X coords 0 0 6 127 200 140 1 0 0;
#X restore 1129 2777 graph;
#N canvas 0 22 450 278 (subpatch) 0;
#X array $step63 6 float 3;
#A 0 2.72143 2.72143 2.72143 2.72143 101.6 1.8142;
#X coords 0 0 6 127 200 140 1 0 0;
#X restore 1335 2777 graph;
#N canvas 0 22 450 278 (subpatch) 0;
#X array $step64 6 float 3;
#A 0 1.81429 0.907143 88.9 1.81429 89.8071 1.81429;
#X coords 0 0 6 127 200 140 1 0 0;
#X restore 1543 2777 graph;
#N canvas 0 22 450 278 (subpatch) 0;
#X array $step33 6 float 3;
#A 0 91.6214 1.81429 0 0 3.62857 53.5214;
#X coords 0 0 6 127 200 140 1 0 0;
#X restore 81 2275 graph;
#N canvas 0 22 450 278 (subpatch) 0;
#X array $step34 6 float 3;
#A 0 0.907143 0 0 0 97.0643 1.81429;
#X coords 0 0 6 127 200 140 1 0 0;
#X restore 285 2275 graph;
#N canvas 0 22 450 278 (subpatch) 0;
#X array $step35 6 float 3;
#A 0 3.62857 99.7857 57.15 0.907143 99.7857 1.81429;
#X coords 0 0 6 127 200 140 1 0 0;
#X restore 495 2277 graph;
#N canvas 0 22 450 278 (subpatch) 0;
#X array $step36 6 float 3;
#A 0 85.2714 2.72143 2.72143 0.907143 97.9714 3.62857;
#X coords 0 0 6 127 200 140 1 0 0;
#X restore 703 2276 graph;
#N canvas 0 22 450 278 (subpatch) 0;
#X array $step41 6 float 3;
#A 0 87.0919 3.62857 3.62857 3.62857 3.62857 87.9929;
#X coords 0 0 6 127 200 140 1 0 0;
#X restore 81 2442 graph;
#N canvas 0 22 450 278 (subpatch) 0;
#X array $step42 6 float 3;
#A 0 1.81429 1.81429 1.81429 1.81429 2.72145 1.81429;
#X coords 0 0 6 127 200 140 1 0 0;
#X restore 289 2442 graph;
#N canvas 0 22 450 278 (subpatch) 0;
#X array $step43 6 float 3;
#A 0 1.81429 1.81429 1.81429 1.81429 1.81429 1.81429;
#X coords 0 0 6 127 200 140 1 0 0;
#X restore 496 2444 graph;
#N canvas 0 22 450 278 (subpatch) 0;
#X array $step44 6 float 3;
#A 0 0 0 0 0 0 0.907166;
#X coords 0 0 6 127 200 140 1 0 0;
#X restore 704 2444 graph;
#N canvas 0 22 450 278 (subpatch) 0;
#X array $step49 6 float 3;
#A 0 93.4357 1.81429 1.81429 1.81429 1.81429 1.81429;
#X coords 0 0 6 127 200 140 1 0 0;
#X restore 81 2605 graph;
#N canvas 0 22 450 278 (subpatch) 0;
#X array $step50 6 float 3;
#A 0 3.62857 3.62857 3.62857 3.62857 3.62857 1.81429;
#X coords 0 0 6 127 200 140 1 0 0;
#X restore 285 2605 graph;
#N canvas 0 22 450 278 (subpatch) 0;
#X array $step51 6 float 3;
#A 0 2.72143 2.72143 2.72143 2.72143 2.72143 2.72143;
#X coords 0 0 6 127 200 140 1 0 0;
#X restore 495 2607 graph;
#N canvas 0 22 450 278 (subpatch) 0;
#X array $step52 6 float 3;
#A 0 1.81429 1.81429 1.81429 1.81429 1.81429 1.81429;
#X coords 0 0 6 127 200 140 1 0 0;
#X restore 703 2606 graph;
#N canvas 0 22 450 278 (subpatch) 0;
#X array $step57 6 float 3;
#A 0 87.9929 0 0 0 0 82.55;
#X coords 0 0 6 127 200 140 1 0 0;
#X restore 81 2772 graph;
#N canvas 0 22 450 278 (subpatch) 0;
#X array $step58 6 float 3;
#A 0 0.907143 0.907143 0.907143 0.907143 3.83854e-05 -0.907066;
#X coords 0 0 6 127 200 140 1 0 0;
#X restore 287 2773 graph;
#N canvas 0 22 450 278 (subpatch) 0;
#X array $step59 6 float 3;
#A 0 2.72143 2.72143 2.72143 2.72143 2.72143 4.53571;
#X coords 0 0 6 127 200 140 1 0 0;
#X restore 496 2774 graph;
#N canvas 0 22 450 278 (subpatch) 0;
#X array $step60 6 float 3;
#A 0 4.53571 0 0 0 0 3.62857;
#X coords 0 0 6 127 200 140 1 0 0;
#X restore 704 2774 graph;
#N canvas 0 22 450 278 (subpatch) 0;
#X array $step17_poly_synth_no1 4 float 3;
#A 0 66 64 61.6857 68.0357;
#X coords 0 0 4 127 200 140 1 0 0;
#X restore 102 166 graph;
#N canvas 0 22 450 278 (subpatch) 0;
#X array $step18_poly_synth_no1 4 float 3;
#A 0 0.907143 77.1071 0 0;
#X coords 0 0 4 127 200 140 1 0 0;
#X restore 306 166 graph;
#N canvas 0 22 450 278 (subpatch) 0;
#X array $step19_poly_synth_no1 4 float 3;
#A 0 57.15 68.0357 61.6857 58.9643;
#X coords 0 0 4 127 200 140 1 0 0;
#X restore 514 166 graph;
#N canvas 0 22 450 278 (subpatch) 0;
#X array $step20_poly_synth_no1 4 float 3;
#A 0 1.81429 1.81429 2.72143 0;
#X coords 0 0 4 127 200 140 1 0 0;
#X restore 718 166 graph;
#N canvas 0 22 450 278 (subpatch) 0;
#X array $step25_poly_synth_no1 4 float 3;
#A 0 1.81429 1.81429 0.907143 -0.907211;
#X coords 0 0 4 127 200 140 1 0 0;
#X restore 101 328 graph;
#N canvas 0 22 450 278 (subpatch) 0;
#X array $step26_poly_synth_no1 4 float 3;
#A 0 1.81429 65.3143 1.81429 0.907143;
#X coords 0 0 4 127 200 140 1 0 0;
#X restore 305 328 graph;
#N canvas 0 22 450 278 (subpatch) 0;
#X array $step27_poly_synth_no1 4 float 3;
#A 0 1.81429 1.81429 57.15 0.907143;
#X coords 0 0 4 127 200 140 1 0 0;
#X restore 513 328 graph;
#N canvas 0 22 450 278 (subpatch) 0;
#X array $step28_poly_synth_no1 4 float 3;
#A 0 0.907143 0.907143 0 34.4714;
#X coords 0 0 4 127 200 140 1 0 0;
#X restore 717 328 graph;
#N canvas 0 22 450 278 (subpatch) 0;
#X array $step21_poly_synth_no1 4 float 3;
#A 0 0 0.907143 0.907143 1.81429;
#X coords 0 0 4 127 200 140 1 0 0;
#X restore 929 168 graph;
#N canvas 0 22 450 278 (subpatch) 0;
#X array $step22_poly_synth_no1 4 float 3;
#A 0 0 1.81429 1.81429 0;
#X coords 0 0 4 127 200 140 1 0 0;
#X restore 1133 168 graph;
#N canvas 0 22 450 278 (subpatch) 0;
#X array $step23_poly_synth_no1 4 float 3;
#A 0 80.7357 80.7357 73.4785 70.7571;
#X coords 0 0 4 127 200 140 1 0 0;
#X restore 1341 168 graph;
#N canvas 0 22 450 278 (subpatch) 0;
#X array $step24_poly_synth_no1 4 float 3;
#A 0 66 64 60 57;
#X coords 0 0 4 127 200 140 1 0 0;
#X restore 1545 168 graph;
#N canvas 0 22 450 278 (subpatch) 0;
#X array $step29_poly_synth_no1 4 float 3;
#A 0 48.0786 55.3357 0.907143 2.72143;
#X coords 0 0 4 127 200 140 1 0 0;
#X restore 929 329 graph;
#N canvas 0 22 450 278 (subpatch) 0;
#X array $step30_poly_synth_no1 4 float 3;
#A 0 0.907143 1.81429 65.3143 61.6857;
#X coords 0 0 4 127 200 140 1 0 0;
#X restore 1133 329 graph;
#N canvas 0 22 450 278 (subpatch) 0;
#X array $step31_poly_synth_no1 4 float 3;
#A 0 49.8929 42.6357 0.907143 0.907143;
#X coords 0 0 4 127 200 140 1 0 0;
#X restore 1341 329 graph;
#N canvas 0 22 450 278 (subpatch) 0;
#X array $step32_poly_synth_no1 4 float 3;
#A 0 60.7786 65.3143 1.81429 1.81429;
#X coords 0 0 4 127 200 140 1 0 0;
#X restore 1545 329 graph;
#N canvas 0 22 450 278 (subpatch) 0;
#X array $step1_bass_synth_no1 4 float 3;
#A 0 0 0.907143 0.907143 4.53556;
#X coords 0 0 4 127 200 140 1 0 0;
#X restore 89 621 graph;
#N canvas 0 22 450 278 (subpatch) 0;
#X array $step2_bass_synth_no1 4 float 3;
#A 0 34.4714 0 0 0;
#X coords 0 0 4 127 200 140 1 0 0;
#X restore 296 621 graph;
#N canvas 0 22 450 278 (subpatch) 0;
#X array $step3_bass_synth_no1 4 float 3;
#A 0 0 1.81429 1.81429 2.72143;
#X coords 0 0 4 127 200 140 1 0 0;
#X restore 504 621 graph;
#N canvas 0 22 450 278 (subpatch) 0;
#X array $step4_bass_synth_no1 4 float 3;
#A 0 38.1 1.81429 2.72143 0;
#X coords 0 0 4 127 200 140 1 0 0;
#X restore 708 621 graph;
#N canvas 0 22 450 278 (subpatch) 0;
#X array $step9_bass_synth_no1 4 float 3;
#A 0 1.81429 1.81429 0.90712 -0.907211;
#X coords 0 0 4 127 200 140 1 0 0;
#X restore 91 783 graph;
#N canvas 0 22 450 278 (subpatch) 0;
#X array $step10_bass_synth_no1 4 float 3;
#A 0 1.81429 0.907143 1.81429 0.907143;
#X coords 0 0 4 127 200 140 1 0 0;
#X restore 295 783 graph;
#N canvas 0 22 450 278 (subpatch) 0;
#X array $step11_bass_synth_no1 4 float 3;
#A 0 1.81429 1.81429 96.1571 0.907143;
#X coords 0 0 4 127 200 140 1 0 0;
#X restore 503 783 graph;
#N canvas 0 22 450 278 (subpatch) 0;
#X array $step12_bass_synth_no1 4 float 3;
#A 0 0.907143 0.907143 0 34.4714;
#X coords 0 0 4 127 200 140 1 0 0;
#X restore 707 783 graph;
#N canvas 0 22 450 278 (subpatch) 0;
#X array $step17_bass_synth_no1 4 float 3;
#A 0 41.7286 2.72143 2.72143 0.90722;
#X coords 0 0 4 127 200 140 1 0 0;
#X restore 90 944 graph;
#N canvas 0 22 450 278 (subpatch) 0;
#X array $step18_bass_synth_no1 4 float 3;
#A 0 0.907143 0 0 0;
#X coords 0 0 4 127 200 140 1 0 0;
#X restore 294 944 graph;
#N canvas 0 22 450 278 (subpatch) 0;
#X array $step19_bass_synth_no1 4 float 3;
#A 0 1.81429 1.81429 1.81429 2.72143;
#X coords 0 0 4 127 200 140 1 0 0;
#X restore 502 944 graph;
#N canvas 0 22 450 278 (subpatch) 0;
#X array $step20_bass_synth_no1 4 float 3;
#A 0 50.8 1.81429 44.45 0;
#X coords 0 0 4 127 200 140 1 0 0;
#X restore 706 944 graph;
#N canvas 0 22 450 278 (subpatch) 0;
#X array $step25_bass_synth_no1 4 float 3;
#A 0 1.81429 1.81429 0.90712 -0.907211;
#X coords 0 0 4 127 200 140 1 0 0;
#X restore 89 1106 graph;
#N canvas 0 22 450 278 (subpatch) 0;
#X array $step26_bass_synth_no1 4 float 3;
#A 0 1.81429 0.907143 1.81429 0.907143;
#X coords 0 0 4 127 200 140 1 0 0;
#X restore 293 1106 graph;
#N canvas 0 22 450 278 (subpatch) 0;
#X array $step27_bass_synth_no1 4 float 3;
#A 0 1.81429 1.81429 96.1571 0.907143;
#X coords 0 0 4 127 200 140 1 0 0;
#X restore 501 1106 graph;
#N canvas 0 22 450 278 (subpatch) 0;
#X array $step28_bass_synth_no1 4 float 3;
#A 0 0.907143 0.907143 0 34.4714;
#X coords 0 0 4 127 200 140 1 0 0;
#X restore 705 1106 graph;
#N canvas 0 22 450 278 (subpatch) 0;
#X array $step5_bass_synth_no1 4 float 3;
#A 0 50.8 0.907143 0.907143 1.81429;
#X coords 0 0 4 127 200 140 1 0 0;
#X restore 914 620 graph;
#N canvas 0 22 450 278 (subpatch) 0;
#X array $step6_bass_synth_no1 4 float 3;
#A 0 3.62857 1.81429 1.81429 0;
#X coords 0 0 4 127 200 140 1 0 0;
#X restore 1125 623 graph;
#N canvas 0 22 450 278 (subpatch) 0;
#X array $step7_bass_synth_no1 4 float 3;
#A 0 0 80.7357 73.4785 70.7571;
#X coords 0 0 4 127 200 140 1 0 0;
#X restore 1333 623 graph;
#N canvas 0 22 450 278 (subpatch) 0;
#X array $step8_bass_synth_no1 4 float 3;
#A 0 0.907143 64 60 57;
#X coords 0 0 4 127 200 140 1 0 0;
#X restore 1537 623 graph;
#N canvas 0 22 450 278 (subpatch) 0;
#X array $step13_bass_synth_no1 4 float 3;
#A 0 0.907143 0.907143 0.907143 2.72143;
#X coords 0 0 4 127 200 140 1 0 0;
#X restore 914 781 graph;
#N canvas 0 22 450 278 (subpatch) 0;
#X array $step14_bass_synth_no1 4 float 3;
#A 0 0.907143 1.81429 0.907143 0;
#X coords 0 0 4 127 200 140 1 0 0;
#X restore 1125 784 graph;
#N canvas 0 22 450 278 (subpatch) 0;
#X array $step15_bass_synth_no1 4 float 3;
#A 0 0.907143 0.907143 0.907143 0.907143;
#X coords 0 0 4 127 200 140 1 0 0;
#X restore 1333 784 graph;
#N canvas 0 22 450 278 (subpatch) 0;
#X array $step16_bass_synth_no1 4 float 3;
#A 0 1.81429 1.81429 1.81429 1.81429;
#X coords 0 0 4 127 200 140 1 0 0;
#X restore 1537 784 graph;
#N canvas 0 22 450 278 (subpatch) 0;
#X array $step21_bass_synth_no1 4 float 3;
#A 0 0.907143 0.907143 0.907143 1.81429;
#X coords 0 0 4 127 200 140 1 0 0;
#X restore 915 943 graph;
#N canvas 0 22 450 278 (subpatch) 0;
#X array $step22_bass_synth_no1 4 float 3;
#A 0 0 1.81429 1.81429 0;
#X coords 0 0 4 127 200 140 1 0 0;
#X restore 1126 946 graph;
#N canvas 0 22 450 278 (subpatch) 0;
#X array $step23_bass_synth_no1 4 float 3;
#A 0 2.72143 80.7357 73.4785 70.7571;
#X coords 0 0 4 127 200 140 1 0 0;
#X restore 1334 946 graph;
#N canvas 0 22 450 278 (subpatch) 0;
#X array $step24_bass_synth_no1 4 float 3;
#A 0 49.8929 64 60 57;
#X coords 0 0 4 127 200 140 1 0 0;
#X restore 1538 946 graph;
#N canvas 0 22 450 278 (subpatch) 0;
#X array $step29_bass_synth_no1 4 float 3;
#A 0 0 0.907143 0.907143 2.72143;
#X coords 0 0 4 127 200 140 1 0 0;
#X restore 915 1104 graph;
#N canvas 0 22 450 278 (subpatch) 0;
#X array $step30_bass_synth_no1 4 float 3;
#A 0 0.907143 1.81429 0.907143 0;
#X coords 0 0 4 127 200 140 1 0 0;
#X restore 1126 1107 graph;
#N canvas 0 22 450 278 (subpatch) 0;
#X array $step31_bass_synth_no1 4 float 3;
#A 0 0.907143 0.907143 0.907143 0.907143;
#X coords 0 0 4 127 200 140 1 0 0;
#X restore 1334 1107 graph;
#N canvas 0 22 450 278 (subpatch) 0;
#X array $step32_bass_synth_no1 4 float 3;
#A 0 1.81429 1.81429 1.81429 1.81429;
#X coords 0 0 4 127 200 140 1 0 0;
#X restore 1538 1107 graph;
#X connect 32 0 64 0;
#X connect 32 0 65 0;
#X connect 32 0 66 0;
#X connect 32 0 67 0;
#X connect 49 0 33 0;
#X connect 49 1 33 1;
#X connect 50 0 71 0;
#X connect 50 0 70 0;
#X connect 50 0 69 0;
#X connect 50 0 68 0;
#X connect 51 0 40 0;
#X connect 51 1 40 1;
#X connect 52 0 68 0;
#X connect 53 0 52 0;
#X connect 53 0 64 0;
#X connect 54 0 63 0;
#X connect 55 0 69 0;
#X connect 56 0 55 0;
#X connect 56 0 65 0;
#X connect 57 0 62 0;
#X connect 58 0 70 0;
#X connect 59 0 58 0;
#X connect 59 0 66 0;
#X connect 60 0 61 0;
#X connect 61 0 59 0;
#X connect 62 0 56 0;
#X connect 63 0 53 0;
#X connect 64 0 49 0;
#X connect 65 0 49 0;
#X connect 66 0 49 0;
#X connect 67 0 49 0;
#X connect 68 0 51 0;
#X connect 69 0 51 0;
#X connect 70 0 51 0;
#X connect 71 0 51 0;
#X restore 1317 0 pd steps;
#N canvas 0 24 1280 708 steps_with_velocity_to_sound 0;
#X obj -8 204 r $s1;
#X obj -8 232 array get $step1;
#X obj 402 849 s kick;
#X obj 451 892 s sn1;
#X obj 475 916 s sn2;
#X obj 36 178 r $s2;
#X obj 38 204 array get $step2;
#X obj 402 822 unpack f f f f f f;
#X obj 500 937 s hh1;
#X obj 525 959 s hh2;
#X obj 80 154 r $s3;
#X obj 122 133 r $s4;
#X obj 82 176 array get $step3;
#X obj 122 155 array get $step4;
#X obj 168 128 array get $step5;
#X obj 166 106 r $s5;
#X obj 216 78 r $s6;
#X obj 218 104 array get $step6;
#X obj 272 52 r $s7;
#X obj 269 80 array get $step7;
#X obj 320 34 r $s8;
#X obj 319 57 array get $step8;
#X obj 209 221 r $s9;
#X obj 209 249 array get $step9;
#X obj 253 198 r $s10;
#X obj 255 220 array get $step10;
#X obj 297 170 r $s11;
#X obj 299 192 array get $step11;
#X obj 355 149 r $s12;
#X obj 355 171 array get $step12;
#X obj 404 122 r $s13;
#X obj 406 144 array get $step13;
#X obj 460 96 r $s14;
#X obj 457 118 array get $step14;
#X obj 513 74 r $s15;
#X obj 513 97 array get $step15;
#X obj 560 47 r $s16;
#X obj 564 70 array get $step16;
#X obj 426 871 s hho;
#X obj 1586 250 array get $step1_poly_synth_no1;
#X obj 2342 547 s poly_s_no1_v1;
#X obj 2383 418 unpack f f f f;
#X obj 2383 570 s poly_s_no1_v2;
#X obj 2409 602 s poly_s_no1_v3;
#X obj 2430 634 s poly_s_no1_v4;
#X obj 1632 222 array get $step2_poly_synth_no1;
#X obj 1676 194 array get $step3_poly_synth_no1;
#X obj 1716 173 array get $step4_poly_synth_no1;
#X obj 1762 146 array get $step5_poly_synth_no1;
#X obj 1812 122 array get $step6_poly_synth_no1;
#X obj 1863 98 array get $step7_poly_synth_no1;
#X obj 1913 75 array get $step8_poly_synth_no1;
#X obj 1865 252 array get $step9_poly_synth_no1;
#X obj 1911 223 array get $step10_poly_synth_no1;
#X obj 1967 196 array get $step11_poly_synth_no1;
#X obj 2023 175 array get $step12_poly_synth_no1;
#X obj 2096 153 array get $step13_poly_synth_no1;
#X obj 2142 127 array get $step14_poly_synth_no1;
#X obj 2190 105 array get $step15_poly_synth_no1;
#X obj 2241 79 array get $step16_poly_synth_no1;
#X obj 2254 456 expr if($f1 > 10 \, $f1 \, 0);
#X obj 2254 477 select 0;
#X obj 2325 476 expr if($f1 > 10 \, $f1 \, 0);
#X obj 2325 497 select 0;
#X obj 2388 495 expr if($f1 > 10 \, $f1 \, 0);
#X obj 2388 516 select 0;
#X obj 2457 515 expr if($f1 > 10 \, $f1 \, 0);
#X obj 2457 536 select 0;
#X obj 451 267 array get $step17;
#X obj 502 243 array get $step18;
#X obj 550 220 array get $step19;
#X obj 598 197 array get $step20;
#X obj 668 176 array get $step21;
#X obj 719 154 array get $step22;
#X obj 767 131 array get $step23;
#X obj 814 108 array get $step24;
#X obj 453 244 r $s17;
#X obj 501 222 r $s18;
#X obj 549 198 r $s19;
#X obj 598 176 r $s20;
#X obj 667 155 r $s21;
#X obj 718 132 r $s22;
#X obj 767 109 r $s23;
#X obj 815 86 r $s24;
#X obj 732 239 r $s25;
#X obj 780 217 r $s26;
#X obj 828 193 r $s27;
#X obj 877 171 r $s28;
#X obj 926 150 r $s29;
#X obj 976 127 r $s30;
#X obj 730 262 array get $step25;
#X obj 781 238 array get $step26;
#X obj 829 215 array get $step27;
#X obj 877 192 array get $step28;
#X obj 926 171 array get $step29;
#X obj 977 149 array get $step30;
#X obj 1025 126 array get $step31;
#X obj 1072 103 array get $step32;
#X obj -213 630 array get $step35;
#X obj -213 610 r $s35;
#X obj -164 608 array get $step36;
#X obj -166 589 r $s36;
#X obj -119 585 array get $step37;
#X obj -120 565 r $s37;
#X obj -72 561 array get $step38;
#X obj -25 536 array get $step39;
#X obj 21 513 array get $step40;
#X obj -72 539 r $s38;
#X obj -27 514 r $s39;
#X obj 22 492 r $s40;
#X obj 13 634 array get $step43;
#X obj 13 614 r $s43;
#X obj 62 612 array get $step44;
#X obj 60 593 r $s44;
#X obj 107 589 array get $step45;
#X obj 106 569 r $s45;
#X obj 154 565 array get $step46;
#X obj 154 543 r $s46;
#X obj 201 540 array get $step47;
#X obj 199 518 r $s47;
#X obj 247 517 array get $step48;
#X obj 248 496 r $s48;
#X obj 432 677 array get $step49;
#X obj 434 654 r $s49;
#X obj 481 655 array get $step50;
#X obj 482 632 r $s50;
#X obj 1025 104 r $s31;
#X obj 1073 81 r $s32;
#X obj -87 676 array get $step41;
#X obj -38 654 array get $step42;
#X obj -85 653 r $s41;
#X obj -37 631 r $s42;
#X obj -262 632 r $s34;
#X obj -263 655 array get $step34;
#X obj -310 654 r $s33;
#X obj -312 677 array get $step33;
#X obj 532 632 array get $step51;
#X obj 534 609 r $s51;
#X obj 582 587 r $s52;
#X obj 581 610 array get $step52;
#X obj 630 586 array get $step53;
#X obj 632 563 r $s53;
#X obj 680 541 r $s54;
#X obj 679 564 array get $step54;
#X obj 730 541 array get $step55;
#X obj 732 518 r $s55;
#X obj 779 519 array get $step56;
#X obj 780 496 r $s56;
#X obj 779 668 r $s57;
#X obj 777 691 array get $step57;
#X obj 826 669 array get $step58;
#X obj 827 646 r $s58;
#X obj 879 623 r $s59;
#X obj 877 646 array get $step59;
#X obj 927 601 r $s60;
#X obj 926 624 array get $step60;
#X obj 977 577 r $s61;
#X obj 975 600 array get $step61;
#X obj 1024 578 array get $step62;
#X obj 1025 555 r $s62;
#X obj 1075 555 array get $step63;
#X obj 1077 532 r $s63;
#X obj 1125 510 r $s64;
#X obj 1124 533 array get $step64;
#X obj 2188 256 array get $step17_poly_synth_no1;
#X obj 2234 227 array get $step18_poly_synth_no1;
#X obj 2290 200 array get $step19_poly_synth_no1;
#X obj 2346 179 array get $step20_poly_synth_no1;
#X obj 2419 157 array get $step21_poly_synth_no1;
#X obj 2465 131 array get $step22_poly_synth_no1;
#X obj 2515 108 array get $step23_poly_synth_no1;
#X obj 2558 85 array get $step24_poly_synth_no1;
#X obj 2503 263 array get $step25_poly_synth_no1;
#X obj 2549 234 array get $step26_poly_synth_no1;
#X obj 2605 207 array get $step27_poly_synth_no1;
#X obj 2661 186 array get $step28_poly_synth_no1;
#X obj 2734 164 array get $step29_poly_synth_no1;
#X obj 2780 138 array get $step30_poly_synth_no1;
#X obj 2830 115 array get $step31_poly_synth_no1;
#X obj 2873 92 array get $step31_poly_synth_no1;
#X obj 1618 924 array get $step1_bass_synth_no1;
#X obj 1664 896 array get $step2_bass_synth_no1;
#X obj 1708 868 array get $step3_bass_synth_no1;
#X obj 1748 847 array get $step4_bass_synth_no1;
#X obj 1794 820 array get $step5_bass_synth_no1;
#X obj 1844 796 array get $step6_bass_synth_no1;
#X obj 1895 772 array get $step7_bass_synth_no1;
#X obj 1945 749 array get $step8_bass_synth_no1;
#X obj 1897 926 array get $step9_bass_synth_no1;
#X obj 1943 897 array get $step10_bass_synth_no1;
#X obj 1999 870 array get $step11_bass_synth_no1;
#X obj 2055 849 array get $step12_bass_synth_no1;
#X obj 2128 827 array get $step13_bass_synth_no1;
#X obj 2174 801 array get $step14_bass_synth_no1;
#X obj 2222 779 array get $step15_bass_synth_no1;
#X obj 2273 753 array get $step16_bass_synth_no1;
#X obj 2220 930 array get $step17_bass_synth_no1;
#X obj 2266 901 array get $step18_bass_synth_no1;
#X obj 2322 874 array get $step19_bass_synth_no1;
#X obj 2378 853 array get $step20_bass_synth_no1;
#X obj 2451 831 array get $step21_bass_synth_no1;
#X obj 2497 805 array get $step22_bass_synth_no1;
#X obj 2547 782 array get $step23_bass_synth_no1;
#X obj 2590 759 array get $step24_bass_synth_no1;
#X obj 2535 937 array get $step25_bass_synth_no1;
#X obj 2581 908 array get $step26_bass_synth_no1;
#X obj 2637 881 array get $step27_bass_synth_no1;
#X obj 2693 860 array get $step28_bass_synth_no1;
#X obj 2766 838 array get $step29_bass_synth_no1;
#X obj 2812 812 array get $step30_bass_synth_no1;
#X obj 2862 789 array get $step31_bass_synth_no1;
#X obj 2907 767 array get $step31_bass_synth_no1;
#X obj 2351 1117 unpack f f f f;
#X obj 2222 1155 expr if($f1 > 10 \, $f1 \, 0);
#X obj 2222 1176 select 0;
#X obj 2310 1246 s bass_note_no1;
#X obj 1586 222 r $s_2_1;
#X obj 1630 196 r $s_2_2;
#X obj 1674 172 r $s_2_3;
#X obj 1716 151 r $s_2_4;
#X obj 1760 124 r $s_2_5;
#X obj 1810 96 r $s_2_6;
#X obj 1866 70 r $s_2_7;
#X obj 1914 52 r $s_2_8;
#X obj 1865 224 r $s_2_9;
#X obj 1909 201 r $s_2_10;
#X obj 1965 174 r $s_2_11;
#X obj 2021 153 r $s_2_12;
#X obj 2094 131 r $s_2_13;
#X obj 2140 105 r $s_2_14;
#X obj 2190 77 r $s_2_15;
#X obj 2237 56 r $s_2_16;
#X obj 2188 228 r $s_2_17;
#X obj 2232 205 r $s_2_18;
#X obj 2288 178 r $s_2_19;
#X obj 2344 157 r $s_2_20;
#X obj 2417 135 r $s_2_21;
#X obj 2463 109 r $s_2_22;
#X obj 2511 85 r $s_2_23;
#X obj 2558 57 r $s_2_24;
#X obj 2503 235 r $s_2_25;
#X obj 2547 212 r $s_2_26;
#X obj 2603 185 r $s_2_27;
#X obj 2659 164 r $s_2_28;
#X obj 2732 142 r $s_2_29;
#X obj 2778 116 r $s_2_30;
#X obj 2826 92 r $s_2_31;
#X obj 2873 64 r $s_2_32;
#X obj 1618 896 r $s_2_1;
#X obj 1662 870 r $s_2_2;
#X obj 1706 846 r $s_2_3;
#X obj 1748 825 r $s_2_4;
#X obj 1792 798 r $s_2_5;
#X obj 1842 770 r $s_2_6;
#X obj 1898 744 r $s_2_7;
#X obj 1946 726 r $s_2_8;
#X obj 1897 898 r $s_2_9;
#X obj 1941 875 r $s_2_10;
#X obj 1997 848 r $s_2_11;
#X obj 2053 827 r $s_2_12;
#X obj 2126 805 r $s_2_13;
#X obj 2172 779 r $s_2_14;
#X obj 2222 751 r $s_2_15;
#X obj 2269 730 r $s_2_16;
#X obj 2220 902 r $s_2_17;
#X obj 2264 879 r $s_2_18;
#X obj 2320 852 r $s_2_19;
#X obj 2376 831 r $s_2_20;
#X obj 2449 809 r $s_2_21;
#X obj 2495 783 r $s_2_22;
#X obj 2543 759 r $s_2_23;
#X obj 2590 731 r $s_2_24;
#X obj 2535 909 r $s_2_25;
#X obj 2579 886 r $s_2_26;
#X obj 2635 859 r $s_2_27;
#X obj 2691 838 r $s_2_28;
#X obj 2764 816 r $s_2_29;
#X obj 2810 790 r $s_2_30;
#X obj 2858 766 r $s_2_31;
#X obj 2907 739 r $s_2_32;
#X connect 0 0 1 0;
#X connect 1 0 7 0;
#X connect 5 0 6 0;
#X connect 6 0 7 0;
#X connect 7 0 2 0;
#X connect 7 1 38 0;
#X connect 7 2 3 0;
#X connect 7 3 4 0;
#X connect 7 4 8 0;
#X connect 7 5 9 0;
#X connect 10 0 12 0;
#X connect 11 0 13 0;
#X connect 12 0 7 0;
#X connect 13 0 7 0;
#X connect 14 0 7 0;
#X connect 15 0 14 0;
#X connect 16 0 17 0;
#X connect 17 0 7 0;
#X connect 18 0 19 0;
#X connect 19 0 7 0;
#X connect 20 0 21 0;
#X connect 21 0 7 0;
#X connect 22 0 23 0;
#X connect 23 0 7 0;
#X connect 24 0 25 0;
#X connect 25 0 7 0;
#X connect 26 0 27 0;
#X connect 27 0 7 0;
#X connect 28 0 29 0;
#X connect 29 0 7 0;
#X connect 30 0 31 0;
#X connect 31 0 7 0;
#X connect 32 0 33 0;
#X connect 33 0 7 0;
#X connect 34 0 35 0;
#X connect 35 0 7 0;
#X connect 36 0 37 0;
#X connect 37 0 7 0;
#X connect 39 0 41 0;
#X connect 41 0 60 0;
#X connect 41 1 62 0;
#X connect 41 2 64 0;
#X connect 41 3 66 0;
#X connect 45 0 41 0;
#X connect 46 0 41 0;
#X connect 47 0 41 0;
#X connect 48 0 41 0;
#X connect 49 0 41 0;
#X connect 50 0 41 0;
#X connect 51 0 41 0;
#X connect 52 0 41 0;
#X connect 53 0 41 0;
#X connect 54 0 41 0;
#X connect 55 0 41 0;
#X connect 56 0 41 0;
#X connect 57 0 41 0;
#X connect 58 0 41 0;
#X connect 59 0 41 0;
#X connect 60 0 61 0;
#X connect 61 1 40 0;
#X connect 62 0 63 0;
#X connect 63 1 42 0;
#X connect 64 0 65 0;
#X connect 65 1 43 0;
#X connect 66 0 67 0;
#X connect 67 1 44 0;
#X connect 68 0 7 0;
#X connect 69 0 7 0;
#X connect 70 0 7 0;
#X connect 71 0 7 0;
#X connect 72 0 7 0;
#X connect 73 0 7 0;
#X connect 74 0 7 0;
#X connect 75 0 7 0;
#X connect 76 0 68 0;
#X connect 77 0 69 0;
#X connect 78 0 70 0;
#X connect 79 0 71 0;
#X connect 80 0 72 0;
#X connect 81 0 73 0;
#X connect 82 0 74 0;
#X connect 83 0 75 0;
#X connect 84 0 90 0;
#X connect 85 0 91 0;
#X connect 86 0 92 0;
#X connect 87 0 93 0;
#X connect 88 0 94 0;
#X connect 89 0 95 0;
#X connect 90 0 7 0;
#X connect 91 0 7 0;
#X connect 92 0 7 0;
#X connect 93 0 7 0;
#X connect 94 0 7 0;
#X connect 95 0 7 0;
#X connect 96 0 7 0;
#X connect 97 0 7 0;
#X connect 98 0 7 0;
#X connect 99 0 98 0;
#X connect 100 0 7 0;
#X connect 101 0 100 0;
#X connect 102 0 7 0;
#X connect 103 0 102 0;
#X connect 104 0 7 0;
#X connect 105 0 7 0;
#X connect 106 0 7 0;
#X connect 107 0 104 0;
#X connect 108 0 105 0;
#X connect 109 0 106 0;
#X connect 110 0 7 0;
#X connect 111 0 110 0;
#X connect 112 0 7 0;
#X connect 113 0 112 0;
#X connect 114 0 7 0;
#X connect 115 0 114 0;
#X connect 116 0 7 0;
#X connect 117 0 116 0;
#X connect 118 0 7 0;
#X connect 119 0 118 0;
#X connect 120 0 7 0;
#X connect 121 0 120 0;
#X connect 122 0 7 0;
#X connect 123 0 122 0;
#X connect 124 0 7 0;
#X connect 125 0 124 0;
#X connect 126 0 96 0;
#X connect 127 0 97 0;
#X connect 128 0 7 0;
#X connect 129 0 7 0;
#X connect 130 0 128 0;
#X connect 131 0 129 0;
#X connect 132 0 133 0;
#X connect 133 0 7 0;
#X connect 134 0 135 0;
#X connect 135 0 7 0;
#X connect 136 0 7 0;
#X connect 137 0 136 0;
#X connect 138 0 139 0;
#X connect 139 0 7 0;
#X connect 140 0 7 0;
#X connect 141 0 140 0;
#X connect 142 0 143 0;
#X connect 143 0 7 0;
#X connect 144 0 7 0;
#X connect 145 0 144 0;
#X connect 146 0 7 0;
#X connect 147 0 146 0;
#X connect 148 0 149 0;
#X connect 149 0 7 0;
#X connect 150 0 7 0;
#X connect 151 0 150 0;
#X connect 152 0 153 0;
#X connect 153 0 7 0;
#X connect 154 0 155 0;
#X connect 155 0 7 0;
#X connect 156 0 157 0;
#X connect 157 0 7 0;
#X connect 158 0 7 0;
#X connect 159 0 158 0;
#X connect 160 0 7 0;
#X connect 161 0 160 0;
#X connect 162 0 163 0;
#X connect 163 0 7 0;
#X connect 164 0 41 0;
#X connect 165 0 41 0;
#X connect 166 0 41 0;
#X connect 167 0 41 0;
#X connect 168 0 41 0;
#X connect 169 0 41 0;
#X connect 170 0 41 0;
#X connect 171 0 41 0;
#X connect 172 0 41 0;
#X connect 173 0 41 0;
#X connect 174 0 41 0;
#X connect 175 0 41 0;
#X connect 176 0 41 0;
#X connect 177 0 41 0;
#X connect 178 0 41 0;
#X connect 179 0 41 0;
#X connect 180 0 212 0;
#X connect 181 0 212 0;
#X connect 182 0 212 0;
#X connect 183 0 212 0;
#X connect 184 0 212 0;
#X connect 185 0 212 0;
#X connect 186 0 212 0;
#X connect 187 0 212 0;
#X connect 188 0 212 0;
#X connect 189 0 212 0;
#X connect 190 0 212 0;
#X connect 191 0 212 0;
#X connect 192 0 212 0;
#X connect 193 0 212 0;
#X connect 194 0 212 0;
#X connect 195 0 212 0;
#X connect 196 0 212 0;
#X connect 197 0 212 0;
#X connect 198 0 212 0;
#X connect 199 0 212 0;
#X connect 200 0 212 0;
#X connect 201 0 212 0;
#X connect 202 0 212 0;
#X connect 203 0 212 0;
#X connect 204 0 212 0;
#X connect 205 0 212 0;
#X connect 206 0 212 0;
#X connect 207 0 212 0;
#X connect 208 0 212 0;
#X connect 209 0 212 0;
#X connect 210 0 212 0;
#X connect 211 0 212 0;
#X connect 212 0 213 0;
#X connect 213 0 214 0;
#X connect 214 1 215 0;
#X connect 216 0 39 0;
#X connect 217 0 45 0;
#X connect 218 0 46 0;
#X connect 219 0 47 0;
#X connect 220 0 48 0;
#X connect 221 0 49 0;
#X connect 222 0 50 0;
#X connect 223 0 51 0;
#X connect 224 0 52 0;
#X connect 225 0 53 0;
#X connect 226 0 54 0;
#X connect 227 0 55 0;
#X connect 228 0 56 0;
#X connect 229 0 57 0;
#X connect 230 0 58 0;
#X connect 231 0 59 0;
#X connect 232 0 164 0;
#X connect 233 0 165 0;
#X connect 234 0 166 0;
#X connect 235 0 167 0;
#X connect 236 0 168 0;
#X connect 237 0 169 0;
#X connect 238 0 170 0;
#X connect 239 0 171 0;
#X connect 240 0 172 0;
#X connect 241 0 173 0;
#X connect 242 0 174 0;
#X connect 243 0 175 0;
#X connect 244 0 176 0;
#X connect 245 0 177 0;
#X connect 246 0 178 0;
#X connect 247 0 179 0;
#X connect 248 0 180 0;
#X connect 249 0 181 0;
#X connect 250 0 182 0;
#X connect 251 0 183 0;
#X connect 252 0 184 0;
#X connect 253 0 185 0;
#X connect 254 0 186 0;
#X connect 255 0 187 0;
#X connect 256 0 188 0;
#X connect 257 0 189 0;
#X connect 258 0 190 0;
#X connect 259 0 191 0;
#X connect 260 0 192 0;
#X connect 261 0 193 0;
#X connect 262 0 194 0;
#X connect 263 0 195 0;
#X connect 264 0 196 0;
#X connect 265 0 197 0;
#X connect 266 0 198 0;
#X connect 267 0 199 0;
#X connect 268 0 200 0;
#X connect 269 0 201 0;
#X connect 270 0 202 0;
#X connect 271 0 203 0;
#X connect 272 0 204 0;
#X connect 273 0 205 0;
#X connect 274 0 206 0;
#X connect 275 0 207 0;
#X connect 276 0 208 0;
#X connect 277 0 209 0;
#X connect 278 0 210 0;
#X connect 279 0 211 0;
#X restore 1317 21 pd steps_with_velocity_to_sound;
#X obj 217 133 s $s12;
#X obj 230 113 s $s13;
#X obj 240 94 s $s14;
#X obj 253 72 s $s15;
#X obj 264 49 s $s16;
#X obj -196 518 bng 15 250 50 0 empty empty empty 17 7 0 10 #fcfcfc
#000000 #000000;
#X obj -196 538 random 16;
#X text -499 355 default sequence;
#X obj -196 558 + 1;
#X obj -124 520 + 1;
#X floatatom -170 558 5 0 0 0 - - - 0;
#X floatatom -99 521 5 0 0 0 - - - 0;
#X msg -326 352 0, f 1;
#X obj -194 604 array set $seq_dr_1;
#X obj -344 352 bng 15 250 50 0 empty empty empty 17 7 0 10 #fcfcfc
#000000 #000000;
#X obj 915 12 select 1;
#N canvas 98 406 450 300 long_kick 0;
#X obj 108 194 throw~ right_channel;
#X obj 268 195 throw~ left_channel;
#X obj 161 133 km2;
#N canvas 237 191 450 300 mute 0;
#X obj 197 98 bng 15 250 50 0 empty empty empty 17 7 0 10 #fcfcfc #000000
#000000;
#X obj 197 116 f;
#X obj 197 138 select 1;
#X obj 268 81 inlet;
#X obj 202 182 outlet;
#X obj 197 65 inlet;
#X connect 0 0 1 0;
#X connect 1 0 2 0;
#X connect 2 0 4 0;
#X connect 3 0 1 1;
#X connect 5 0 0 0;
#X restore 159 112 pd mute;
#X obj 234 145 tgl 15 0 empty empty empty 17 7 0 10 #fcfcfc #000000
#000000 0 1;
#X obj 160 157 *~;
#X obj 267 121 select 50;
#X obj 266 98 notein 1;
#X obj 70 41 / 127;
#X floatatom 69 66 5 0 0 0 - - - 0;
#X obj 69 84 expr if($f1 > 0.3 \, $f1 \, 0);
#X obj 67 113 select 0;
#X obj 71 15 inlet;
#X obj 33 158 vsl 15 128 0 127 0 0 empty empty empty 0 -9 0 10 #fcfcfc
#000000 #000000 0 1;
#X obj 12 136 ctlin 22 1;
#X connect 2 0 5 0;
#X connect 3 0 2 1;
#X connect 4 0 3 1;
#X connect 5 0 0 0;
#X connect 5 0 1 0;
#X connect 6 0 4 0;
#X connect 7 0 6 0;
#X connect 8 0 9 0;
#X connect 9 0 10 0;
#X connect 10 0 11 0;
#X connect 11 1 3 0;
#X connect 11 1 5 1;
#X connect 12 0 8 0;
#X connect 13 0 2 0;
#X connect 14 0 13 0;
#X restore 497 1196 pd long_kick;
#N canvas 9 285 450 300 kick 0;
#X obj 169 192 dr_kick_cos_lop;
#X obj 48 310 throw~ right_channel;
#X obj 212 311 throw~ left_channel;
#X obj 171 128 bng 15 250 50 0 empty empty empty 17 7 0 10 #fcfcfc
#000000 #000000;
#X obj 171 146 f;
#X obj 207 133 tgl 15 0 empty empty empty 17 7 0 10 #fcfcfc #000000
#000000 0 1;
#X obj 171 168 select 1;
#X obj 101 66 / 127;
#X obj 166 240 *~;
#X floatatom 97 90 5 0 0 0 - - - 0;
#X obj 96 108 expr if($f1 > 0.3 \, $f1 \, 0);
#X obj 97 192 select 0;
#X obj 289 111 select 50;
#X obj 288 88 notein 1;
#X obj 101 42 inlet;
#X connect 0 0 8 0;
#X connect 3 0 4 0;
#X connect 4 0 6 0;
#X connect 5 0 4 1;
#X connect 6 0 0 0;
#X connect 7 0 9 0;
#X connect 8 0 1 0;
#X connect 8 0 2 0;
#X connect 9 0 10 0;
#X connect 10 0 11 0;
#X connect 11 1 3 0;
#X connect 11 1 8 1;
#X connect 12 0 5 0;
#X connect 13 0 12 0;
#X connect 14 0 7 0;
#X restore 498 1253 pd kick;
#X obj 497 1230 r kick;
#N canvas 104 389 450 300 hh1 0;
#X obj 62 222 throw~ right_channel;
#X obj 217 226 throw~ left_channel;
#X obj 159 128 hh1;
#N canvas 237 191 450 300 mute 0;
#X obj 197 98 bng 15 250 50 0 empty empty empty 17 7 0 10 #fcfcfc #000000
#000000;
#X obj 197 116 f;
#X obj 197 138 select 1;
#X obj 268 81 inlet;
#X obj 202 182 outlet;
#X obj 197 65 inlet;
#X connect 0 0 1 0;
#X connect 1 0 2 0;
#X connect 2 0 4 0;
#X connect 3 0 1 1;
#X connect 5 0 0 0;
#X restore 144 102 pd mute;
#X obj 93 87 / 127;
#X obj 158 150 *~;
#X obj 145 29 inlet;
#X obj 231 -3 inlet;
#X floatatom 285 154 5 0 0 0 - - - 0;
#X obj 282 124 / 1000;
#X obj 283 78 random 1000;
#X obj 247 131 - 1;
#X obj 247 155 * -1;
#X floatatom 237 177 5 0 0 0 - - - 0;
#X floatatom 282 175 5 0 0 0 - - - 0;
#X obj 93 184 *~;
#X obj 190 181 *~;
#X obj 285 22 tgl 15 0 empty empty empty 17 7 0 10 #fcfcfc #000000
#000000 0 1;
#X obj 285 48 metro 500;
#X connect 2 0 5 0;
#X connect 3 0 2 0;
#X connect 4 0 5 1;
#X connect 5 0 15 0;
#X connect 5 0 16 0;
#X connect 6 0 4 0;
#X connect 6 0 3 0;
#X connect 7 0 3 1;
#X connect 7 0 17 0;
#X connect 8 0 11 0;
#X connect 8 0 14 0;
#X connect 9 0 8 0;
#X connect 10 0 9 0;
#X connect 11 0 12 0;
#X connect 12 0 13 0;
#X connect 13 0 15 1;
#X connect 14 0 16 1;
#X connect 15 0 0 0;
#X connect 16 0 1 0;
#X connect 17 0 18 0;
#X connect 18 0 10 0;
#X restore 608 1255 pd hh1;
#X obj 608 1232 r hh1;
#N canvas 187 263 450 300 noise_with_note 0;
#X obj 135 303 dr_sn_noise_feed_mod;
#X obj 66 368 throw~ right_channel;
#X obj 213 358 throw~ left_channel;
#X obj 251 162 vsl 15 128 0 127 0 0 empty empty empty 0 -9 0 10 #fcfcfc
#000000 #000000 0 1;
#X obj 276 162 vsl 15 128 0 1 0 0 empty empty empty 0 -9 0 10 #fcfcfc
#000000 #000000 0 1;
#X obj 234 58 ctlin 17 1;
#X floatatom 325 143 5 0 0 0 - - - 0;
#X obj 261 124 / 127;
#X obj 210 117 - 127;
#X obj 212 140 * -1;
#N canvas 237 191 450 300 mute 0;
#X obj 197 98 bng 15 250 50 0 empty empty empty 17 7 0 10 #fcfcfc #000000
#000000;
#X obj 197 116 f;
#X obj 197 138 select 1;
#X obj 268 81 inlet;
#X obj 202 182 outlet;
#X obj 197 65 inlet;
#X connect 0 0 1 0;
#X connect 1 0 2 0;
#X connect 2 0 4 0;
#X connect 3 0 1 1;
#X connect 5 0 0 0;
#X restore 136 275 pd mute;
#X obj 87 273 / 127;
#X obj 135 333 *~;
#X obj 361 346 s~ del2_no2;
#X obj 346 323 s~ reverb2_no1;
#X obj 124 239 inlet;
#X obj 169 239 inlet;
#X connect 0 0 12 0;
#X connect 3 0 0 1;
#X connect 4 0 0 2;
#X connect 5 0 7 0;
#X connect 5 0 8 0;
#X connect 7 0 4 0;
#X connect 7 0 6 0;
#X connect 8 0 9 0;
#X connect 9 0 3 0;
#X connect 10 0 0 0;
#X connect 11 0 12 1;
#X connect 12 0 1 0;
#X connect 12 0 2 0;
#X connect 12 0 14 0;
#X connect 12 0 13 0;
#X connect 15 0 11 0;
#X connect 15 0 10 0;
#X connect 16 0 10 1;
#X restore 608 1312 pd noise_with_note;
#X obj 608 1290 r sn2;
#X obj 730 1293 tgl 15 0 empty empty empty 17 7 0 10 #fcfcfc #000000
#000000 0 1;
#N canvas 533 120 450 300 sn1 0;
#X obj 112 153 sn1;
#X obj 64 238 throw~ right_channel;
#X obj 224 239 throw~ left_channel;
#N canvas 237 191 450 300 mute 0;
#X obj 197 98 bng 15 250 50 0 empty empty empty 17 7 0 10 #fcfcfc #000000
#000000;
#X obj 197 116 f;
#X obj 197 138 select 1;
#X obj 268 81 inlet;
#X obj 202 182 outlet;
#X obj 197 65 inlet;
#X connect 0 0 1 0;
#X connect 1 0 2 0;
#X connect 2 0 4 0;
#X connect 3 0 1 1;
#X connect 5 0 0 0;
#X restore 99 129 pd mute;
#X obj 329 11 vsl 15 128 0 127 0 0 empty empty empty 0 -9 0 10 #ff8300
#000000 #000000 0 1;
#X obj 328 -15 ctlin 16 1;
#X obj 35 154 / 127;
#X obj 128 191 *~;
#X obj 312 11 vsl 15 128 0 127 0 0 empty empty empty 0 -9 0 10 #fcfcfc
#000000 #000000 0 1;
#X obj 237 -9 ctlin 20 1;
#X obj 241 138 / 127;
#X obj 110 71 inlet;
#X obj 182 78 inlet;
#X obj 213 184 rev2~ 90 20 1000 2;
#X obj 241 159 * 5;
#X connect 0 0 7 0;
#X connect 3 0 0 0;
#X connect 4 0 13 2;
#X connect 5 0 4 0;
#X connect 6 0 7 1;
#X connect 7 0 1 0;
#X connect 7 0 2 0;
#X connect 7 0 13 0;
#X connect 8 0 10 0;
#X connect 9 0 8 0;
#X connect 10 0 14 0;
#X connect 11 0 6 0;
#X connect 11 0 3 0;
#X connect 12 0 3 1;
#X connect 14 0 0 1;
#X restore 762 1308 pd sn1;
#X obj 763 1281 r sn1;
#X obj 807 1250 tgl 15 0 empty empty empty 17 7 0 10 #fcfcfc #000000
#000000 0 1;
#X text 493 1150 drums;
#X text 1448 725 Audio input;
#X msg -326 441 0, f 1;
#X obj -349 444 bng 15 250 50 0 empty empty empty 17 7 0 10 #fcfcfc
#000000 #000000;
#X msg -496 465 1 16 2 15 3 14 4 13 5 12 6 11 7 10 8 9;
#X obj 949 -55 r clock;
#X obj 1187 1048 dac~;
#X obj -756 209 1539111228383-clock-slave;
#X obj -756 311 s quarter_note;
#X obj 883 -10 r quarter_note;
#X obj -756 232 f;
#X obj -719 233 + 1;
#X obj -756 287 select 0;
#X obj -756 263 % 20;
#X msg 939 34 4;
#X obj 724 1227 select 50;
#X obj 723 1204 notein 2;
#N canvas 12 160 450 300 bpm_finder 0;
#X obj -536 422 midirealtimein;
#X floatatom -536 452 5 0 0 0 - - - 0;
#X obj -536 474 select 248;
#X obj -654 469 bng 15 250 50 0 empty empty empty 17 7 0 10 #fcfcfc
#000000 #000000;
#X obj -653 488 f;
#X obj -618 488 + 1;
#X obj -652 511 % 24;
#X obj -646 660 timer;
#X obj -651 593 bng 15 250 50 0 empty empty empty 17 7 0 10 #fcfcfc
#000000 #000000;
#X obj -651 611 tgl 15 0 empty empty empty 17 7 0 10 #fcfcfc #000000
#000000 0 1;
#X obj -650 630 select 0;
#X obj -599 661 t b;
#X obj -648 689 expr 1000/($f1/60);
#X floatatom -647 768 5 0 0 0 - - - 0;
#X obj -652 534 expr if($f1 % 6 == 0 \, 1 \, 0);
#X obj -647 714 f;
#X obj -652 556 select 1;
#X obj -648 741 / 4;
#X connect 0 0 1 0;
#X connect 0 0 3 0;
#X connect 1 0 2 0;
#X connect 3 0 4 0;
#X connect 4 0 5 0;
#X connect 4 0 6 0;
#X connect 5 0 4 1;
#X connect 6 0 14 0;
#X connect 7 0 12 0;
#X connect 8 0 9 0;
#X connect 9 0 10 0;
#X connect 10 0 7 0;
#X connect 10 1 11 0;
#X connect 11 0 7 1;
#X connect 12 0 15 0;
#X connect 14 0 16 0;
#X connect 15 0 17 0;
#X connect 16 0 8 0;
#X connect 17 0 13 0;
#X restore -756 335 pd bpm_finder;
#X obj 1193 5 notein 1;
#X obj 1193 27 select 32;
#X obj 1194 49 tgl 15 0 empty empty empty 17 7 0 10 #fcfcfc #000000
#000000 0 1;
#X floatatom 1165 146 5 0 0 0 - - - 0;
#X floatatom 1222 161 5 0 0 0 - - - 0;
#X obj 1173 71 select 0 1;
#X obj 1127 140 bng 15 250 50 0 empty empty empty 17 7 0 10 #fcfcfc
#000000 #000000;
#X obj 1224 122 bng 15 250 50 0 empty empty empty 17 7 0 10 #fcfcfc
#000000 #000000;
#X obj 1035 299 + 1;
#N canvas 89 120 450 300 hho 0;
#X obj 78 243 throw~ right_channel;
#X obj 225 242 throw~ left_channel;
#N canvas 237 191 450 300 mute 0;
#X obj 197 98 bng 15 250 50 0 empty empty empty 17 7 0 10 #fcfcfc #000000
#000000;
#X obj 197 116 f;
#X obj 197 138 select 1;
#X obj 268 81 inlet;
#X obj 202 182 outlet;
#X obj 197 65 inlet;
#X connect 0 0 1 0;
#X connect 1 0 2 0;
#X connect 2 0 4 0;
#X connect 3 0 1 1;
#X connect 5 0 0 0;
#X restore 144 102 pd mute;
#X obj 93 87 / 127;
#X obj 158 169 *~;
#X obj 145 29 inlet;
#X obj 191 28 inlet;
#X obj 159 128 hho;
#X obj 260 29 inlet;
#X connect 2 0 7 0;
#X connect 3 0 4 1;
#X connect 4 0 0 0;
#X connect 4 0 1 0;
#X connect 5 0 3 0;
#X connect 5 0 2 0;
#X connect 6 0 2 1;
#X connect 7 0 4 0;
#X connect 8 0 7 1;
#X restore 613 1196 pd hho;
#X obj 659 1166 tgl 15 0 empty empty empty 17 7 0 10 #fcfcfc #000000
#000000 0 1;
#X obj 615 1163 r hho;
#X obj 690 1033 vsl 15 128 0 127 0 0 empty empty empty 0 -9 0 10 #fcfcfc
#000000 #000000 0 1;
#X obj 661 1006 ctlin 21 1;
#X obj 1374 934 expr~ if($v1 > 1 \, 1 \, $v1);
#X obj 1177 937 expr~ if($v1 < -1 \, -1 \, $v1);
#X obj 508 953 vsl 15 128 0 4000 0 0 empty empty empty 0 -9 0 10 #fcfcfc
#000000 #000000 0 1;
#N canvas 628 108 519 474 poly_synth 0;
#X obj 153 348 throw~ right_channel;
#X obj 298 347 throw~ left_channel;
#X obj 153 329 *~ 0.5;
#X obj 11 198 r poly_s_no1_v1;
#X obj 110 175 r poly_s_no1_v2;
#X obj 192 195 r poly_s_no1_v3;
#X obj 304 195 r poly_s_no1_v4;
#X floatatom 43 217 5 0 0 0 - - - 0;
#X floatatom 192 216 5 0 0 0 - - - 0;
#X floatatom 127 196 5 0 0 0 - - - 0;
#X floatatom 304 215 5 0 0 0 - - - 0;
#X obj 288 239 inlet;
#X obj 152 296 clone poly_synth.cl 4;
#X msg 146 249 next \$1;
#X obj 334 239 inlet;
#X obj 380 240 inlet;
#X obj 422 241 inlet;
#X msg 243 276 next \$1;
#X msg 359 278 next \$1;
#X msg 428 279 next \$1;
#X msg 301 277 next \$1;
#X connect 2 0 0 0;
#X connect 2 0 1 0;
#X connect 3 0 7 0;
#X connect 4 0 9 0;
#X connect 5 0 8 0;
#X connect 6 0 10 0;
#X connect 7 0 13 0;
#X connect 8 0 13 0;
#X connect 9 0 13 0;
#X connect 10 0 13 0;
#X connect 11 0 17 0;
#X connect 12 0 2 0;
#X connect 13 0 12 0;
#X connect 14 0 20 0;
#X connect 15 0 18 0;
#X connect 16 0 19 0;
#X connect 17 0 12 1;
#X connect 18 0 12 3;
#X connect 19 0 12 4;
#X connect 20 0 12 2;
#X restore 526 1115 pd poly_synth;
#X obj 601 955 vsl 15 128 0 1500 0 0 empty empty empty 0 -9 0 10 #fcfcfc
#000000 #000000 0 1;
#X obj 576 955 vsl 15 128 0 1 0 0 empty empty empty 0 -9 0 10 #fcfcfc
#000000 #000000 0 1;
#X obj 553 954 vsl 15 128 0 2000 0 0 empty empty empty 0 -9 0 10 #fcfcfc
#000000 #000000 0 1;
#X text 486 928 filter;
#X text 552 933 a;
#X text 579 933 d;
#X text 603 934 r;
#X obj 1151 276 % 2;
#X obj 1150 296 select 0;
#N canvas 116 261 540 351 sample_s_1 0;
#X obj 59 187 throw~ right_channel;
#X obj 220 186 throw~ left_channel;
#X obj 140 -51 tabplay~ sample_data_beyonce;
#X obj 106 -207 random 1.48397e+06, f 16;
#X obj 161 93 *~ 0.9;
#X obj 139 -105 pack f f;
#X obj 228 -184 vsl 15 128 0 20000 0 0 empty empty empty 0 -9 0 10
#fcfcfc #000000 #000000 0 1;
#X msg 138 -78 \$1 \$2;
#X obj 271 -29 osc~;
#X floatatom 303 -29 5 0 0 0 - - - 0;
#X obj 142 -25 *~;
#X obj 424 -209 openpanel;
#N canvas 0 22 450 278 (subpatch) 0;
#X array sample_data_beyonce 1.48397e+06 float 4;
#X coords 0 1 1.48397e+06 -1 200 140 1 0 0;
#X restore 545 -138 graph;
#X obj 424 -164 soundfiler;
#X obj 423 -233 bng 15 250 50 0 empty empty empty 17 7 0 10 #fcfcfc
#000000 #000000;
#X floatatom 424 -131 15 0 300000 0 - - - 0;
#X msg 424 -187 read -resize \$1 sample_data_beyonce;
#X floatatom 397 43 5 0 0 0 - - - 0;
#X obj 394 13 / 1000;
#X obj 279 -194 random 1000;
#X obj 206 136 *~;
#X obj 115 138 *~;
#X obj 359 20 - 1;
#X obj 359 44 * -1;
#X floatatom 349 66 5 0 0 0 - - - 0;
#X floatatom 394 64 5 0 0 0 - - - 0;
#X obj -107 2 rev2~ 100 90 3000 20;
#X obj -68 -150 vsl 15 128 0 1 0 0 empty empty empty 0 -9 0 10 #fcfcfc
#000000 #000000 0 1;
#X obj -58 57 *~;
#X obj -21 57 *~;
#X obj -65 -202 random 1000;
#X obj -65 -183 / 1000;
#X obj 281 -257 tgl 15 0 empty empty empty 17 7 0 10 #fcfcfc #000000
#000000 0 1;
#X obj 29 -289 r pulse_every_2;
#X obj 282 -231 metro 800;
#X connect 2 0 10 0;
#X connect 3 0 5 0;
#X connect 4 0 21 0;
#X connect 4 0 20 0;
#X connect 5 0 7 0;
#X connect 6 0 5 1;
#X connect 7 0 2 0;
#X connect 8 0 10 1;
#X connect 9 0 8 0;
#X connect 10 0 4 0;
#X connect 10 0 26 0;
#X connect 11 0 16 0;
#X connect 13 0 15 0;
#X connect 14 0 11 0;
#X connect 16 0 13 0;
#X connect 17 0 22 0;
#X connect 17 0 25 0;
#X connect 18 0 17 0;
#X connect 19 0 18 0;
#X connect 20 0 1 0;
#X connect 21 0 0 0;
#X connect 22 0 23 0;
#X connect 23 0 24 0;
#X connect 24 0 21 1;
#X connect 25 0 20 1;
#X connect 26 0 28 0;
#X connect 26 1 29 0;
#X connect 27 0 28 1;
#X connect 27 0 29 1;
#X connect 28 0 21 0;
#X connect 29 0 20 0;
#X connect 30 0 31 0;
#X connect 31 0 27 0;
#X connect 32 0 34 0;
#X connect 33 0 3 0;
#X connect 34 0 19 0;
#X restore 662 949 pd sample_s_1;
#N canvas 116 261 540 351 sample_s_2 0;
#X obj -40 138 throw~ right_channel;
#X obj 126 139 throw~ left_channel;
#X obj 50 83 *~ 0.9;
#X obj 52 -100 pack f f;
#X obj 198 -182 vsl 15 128 0 20000 0 0 empty empty empty 0 -9 0 10
#fcfcfc #000000 #000000 0 1;
#X msg 51 -73 \$1 \$2;
#X obj 133 18 osc~;
#X floatatom 135 -9 5 0 0 0 - - - 0;
#X obj 50 38 *~;
#X obj 254 -163 openpanel;
#N canvas 0 22 450 278 (subpatch) 0;
#X array sample_data_amen_break 308112 float 4;
#X coords 0 1 308111 -1 200 140 1 0 0;
#X restore 545 -138 graph;
#X obj 254 -118 soundfiler;
#X obj 253 -187 bng 15 250 50 0 empty empty empty 17 7 0 10 #fcfcfc
#000000 #000000;
#X floatatom 254 -85 15 0 300000 0 - - - 0;
#X msg 254 -141 read -resize \$1 sample_data_amen_break;
#X obj 53 -46 tabplay~ sample_data_amen_break;
#X obj 51 -126 random 308112;
#X obj 49 -182 r pulse_every_2;
#X floatatom 227 52 5 0 0 0 - - - 0;
#X obj 224 22 / 1000;
#X obj 189 29 - 1;
#X obj 189 53 * -1;
#X floatatom 179 75 5 0 0 0 - - - 0;
#X floatatom 224 73 5 0 0 0 - - - 0;
#X obj 86 113 *~;
#X obj -5 115 *~;
#X obj 224 -3 random 1000;
#X obj 49 -157 del 20;
#X connect 2 0 25 0;
#X connect 2 0 24 0;
#X connect 3 0 5 0;
#X connect 4 0 3 1;
#X connect 5 0 15 0;
#X connect 6 0 8 1;
#X connect 7 0 6 0;
#X connect 8 0 2 0;
#X connect 9 0 14 0;
#X connect 11 0 13 0;
#X connect 12 0 9 0;
#X connect 14 0 11 0;
#X connect 15 0 8 0;
#X connect 16 0 3 0;
#X connect 17 0 26 0;
#X connect 17 0 27 0;
#X connect 18 0 20 0;
#X connect 18 0 23 0;
#X connect 19 0 18 0;
#X connect 20 0 21 0;
#X connect 21 0 22 0;
#X connect 22 0 25 1;
#X connect 23 0 24 1;
#X connect 24 0 1 0;
#X connect 25 0 0 0;
#X connect 26 0 19 0;
#X connect 27 0 16 0;
#X restore 663 974 pd sample_s_2;
#X obj 1134 316 s pulse_every_2;
#X obj 1229 275 select 0;
#X obj 1230 255 % 8;
#X obj 1213 295 s pulse_every_8;
#X obj 1007 59 s pulse_every_1;
#X obj 999 276 r pulse_every_1;
#X obj 995 443 f;
#X obj 995 487 hradio 16 1 0 32 empty empty empty 0 -8 0 10 #c6ffc7
#000000 #000000 0;
#X obj 1030 443 + 1;
#X obj 994 420 r pulse_every_1;
#X obj 1001 322 % 64;
#X obj 92 -28 select 1 2 3 4 5 6 7 8 9 10 11 12 13 14 15 16 17 18 19
20 21 22 23 24 25 26 27 28 29 30 31 32 33 34 35 36 37 38 39 40 41 42
43 44 45 46 47 48 49 50 51 52 53 54 55 56 57 58 59 60 61 62 63 64,
f 106;
#X obj 278 200 s $s17;
#X obj 288 177 s $s18;
#X obj 299 156 s $s19;
#X obj 310 134 s $s20;
#X obj 323 114 s $s21;
#X obj 333 93 s $s22;
#X obj 344 73 s $s23;
#X obj 355 51 s $s24;
#X obj -123 500 random 64;
#X msg -497 373 1 2 3 4 5 6 7 8 9 10 11 12 13 14 15 16 17 18 19 20
21 22 23 24 25 26 27 28 29 30 31 32 33 34 35 36 37 38 39 40 41 42 43
44 45 46 47 48 49 50 51 52 53 54 55 56 57 58 59 60 61 62 63 64;
#X obj 368 202 s $s25;
#X obj 378 179 s $s26;
#X obj 389 158 s $s27;
#X obj 400 136 s $s28;
#X obj 413 116 s $s29;
#X obj 423 95 s $s30;
#X obj 436 74 s $s31;
#X obj 448 53 s $s32;
#X obj 461 204 s $s33;
#X obj 471 181 s $s34;
#X obj 482 160 s $s35;
#X obj 493 138 s $s36;
#X obj 507 118 s $s37;
#X obj 517 97 s $s38;
#X obj 530 76 s $s39;
#X obj 542 55 s $s40;
#X obj 553 206 s $s41;
#X obj 566 183 s $s42;
#X obj 577 162 s $s43;
#X obj 588 140 s $s44;
#X obj 601 120 s $s45;
#X obj 611 99 s $s46;
#X obj 624 78 s $s47;
#X obj 634 57 s $s48;
#X obj 647 208 s $s49;
#X obj 657 185 s $s50;
#X obj 668 164 s $s51;
#X obj 679 142 s $s52;
#X obj 692 122 s $s53;
#X obj 702 101 s $s54;
#X obj 715 80 s $s55;
#X obj 725 59 s $s56;
#X obj 738 210 s $s57;
#X obj 748 187 s $s58;
#X obj 759 166 s $s59;
#X obj 770 144 s $s60;
#X obj 781 123 s $s61;
#X obj 794 102 s $s62;
#X obj 805 83 s $s63;
#X obj 817 61 s $s64;
#X obj 995 463 % 32;
#X obj 497 720 vsl 15 128 0 4000 0 0 empty empty empty 0 -9 0 10 #fcfcfc
#000000 #000000 0 1;
#X obj 590 722 vsl 15 128 0 1500 0 0 empty empty empty 0 -9 0 10 #fcfcfc
#000000 #000000 0 1;
#X obj 565 722 vsl 15 128 0 1 0 0 empty empty empty 0 -9 0 10 #fcfcfc
#000000 #000000 0 1;
#X obj 542 721 vsl 15 128 0 2000 0 0 empty empty empty 0 -9 0 10 #fcfcfc
#000000 #000000 0 1;
#X text 475 695 filter;
#X text 541 700 a;
#X text 568 700 d;
#X text 592 701 r;
#N canvas 6 23 702 581 bass_simple 0;
#X obj 153 348 throw~ right_channel;
#X obj 298 347 throw~ left_channel;
#X obj 153 329 *~ 0.5;
#X floatatom 159 182 5 0 0 0 - - - 0;
#X obj 268 159 inlet;
#X obj 314 159 inlet;
#X obj 360 160 inlet;
#X obj 402 161 inlet;
#X obj 160 203 bass_no1_simple;
#X obj 145 164 r bass_note_no1;
#X connect 2 0 0 0;
#X connect 2 0 1 0;
#X connect 3 0 8 0;
#X connect 4 0 8 1;
#X connect 5 0 8 2;
#X connect 6 0 8 3;
#X connect 7 0 8 4;
#X connect 8 0 2 0;
#X connect 9 0 3 0;
#X restore 509 873 pd bass_simple;
#X obj 1000 364 s seq_1;
#X obj 142 -70 r seq_1;
#X obj 994 507 s seq_2;
#X obj 144 261 array get $seq_dr_1;
#X obj 94 282 select 1 2 3 4 5 6 7 8 9 10 11 12 13 14 15 16 17 18 19
20 21 22 23 24 25 26 27 28 29 30 31 32 33 34 35 36 37 38 39 40 41 42
43 44 45 46 47 48 49 50 51 52 53 54 55 56 57 58 59 60 61 62 63 64,
f 106;
#X obj 144 240 r seq_2;
#X obj 91 507 s $s_2_1;
#X obj 104 487 s $s_2_2;
#X obj 117 464 s $s_2_3;
#X obj 129 446 s $s_2_4;
#X obj 140 423 s $s_2_5;
#X obj 151 404 s $s_2_6;
#X obj 163 379 s $s_2_7;
#X obj 173 356 s $s_2_8;
#X obj 185 509 s $s_2_9;
#X obj 195 486 s $s_2_10;
#X obj 208 466 s $s_2_11;
#X obj 219 443 s $s_2_12;
#X obj 232 423 s $s_2_13;
#X obj 242 404 s $s_2_14;
#X obj 255 382 s $s_2_15;
#X obj 266 359 s $s_2_16;
#X obj 280 510 s $s_2_17;
#X obj 290 487 s $s_2_18;
#X obj 301 466 s $s_2_19;
#X obj 312 444 s $s_2_20;
#X obj 325 424 s $s_2_21;
#X obj 335 403 s $s_2_22;
#X obj 346 383 s $s_2_23;
#X obj 357 361 s $s_2_24;
#X obj 370 512 s $s_2_25;
#X obj 380 489 s $s_2_26;
#X obj 391 468 s $s_2_27;
#X obj 402 446 s $s_2_28;
#X obj 415 426 s $s_2_29;
#X obj 425 405 s $s_2_30;
#X obj 438 384 s $s_2_31;
#X obj 450 363 s $s_2_32;
#X obj 463 514 s $s_2_33;
#X obj 473 491 s $s_2_34;
#X obj 484 470 s $s_2_35;
#X obj 495 448 s $s_2_36;
#X obj 509 428 s $s_2_37;
#X obj 519 407 s $s_2_38;
#X obj 532 386 s $s_2_39;
#X obj 544 365 s $s_2_40;
#X obj 555 516 s $s_2_41;
#X obj 568 493 s $s_2_42;
#X obj 579 472 s $s_2_43;
#X obj 590 450 s $s_2_44;
#X obj 603 430 s $s_2_45;
#X obj 613 409 s $s_2_46;
#X obj 626 388 s $s_2_47;
#X obj 636 367 s $s_2_48;
#X obj 649 518 s $s_2_49;
#X obj 659 495 s $s_2_50;
#X obj 670 474 s $s_2_51;
#X obj 681 452 s $s_2_52;
#X obj 694 432 s $s_2_53;
#X obj 704 411 s $s_2_54;
#X obj 717 390 s $s_2_55;
#X obj 727 369 s $s_2_56;
#X obj 740 520 s $s_2_57;
#X obj 750 497 s $s_2_58;
#X obj 761 476 s $s_2_59;
#X obj 772 454 s $s_2_60;
#X obj 783 433 s $s_2_61;
#X obj 796 412 s $s_2_62;
#X obj 807 393 s $s_2_63;
#X obj 819 371 s $s_2_64;
#X connect 2 0 3 0;
#X connect 4 0 5 0;
#X connect 5 0 8 0;
#X connect 6 0 142 0;
#X connect 7 0 8 0;
#X connect 8 0 6 0;
#X connect 9 0 117 0;
#X connect 9 0 148 0;
#X connect 10 0 210 0;
#X connect 11 0 149 0;
#X connect 12 0 46 0;
#X connect 12 0 26 0;
#X connect 13 0 27 0;
#X connect 13 0 47 0;
#X connect 28 0 29 0;
#X connect 29 0 26 0;
#X connect 30 0 31 0;
#X connect 31 0 27 0;
#X connect 32 0 124 0;
#X connect 33 0 123 0;
#X connect 34 0 83 1;
#X connect 36 0 39 0;
#X connect 37 0 38 0;
#X connect 38 0 55 0;
#X connect 39 0 35 0;
#X connect 40 0 80 0;
#X connect 41 0 61 0;
#X connect 42 0 41 0;
#X connect 43 0 60 0;
#X connect 46 0 37 0;
#X connect 46 0 97 0;
#X connect 47 0 36 0;
#X connect 47 0 97 1;
#X connect 48 0 53 0;
#X connect 51 0 54 0;
#X connect 52 0 48 0;
#X connect 53 0 49 0;
#X connect 53 0 50 0;
#X connect 56 0 57 0;
#X connect 57 0 59 0;
#X connect 60 0 44 0;
#X connect 60 1 45 0;
#X connect 61 0 60 1;
#X connect 69 0 158 0;
#X connect 69 0 70 0;
#X connect 70 0 72 0;
#X connect 72 0 74 0;
#X connect 72 0 77 0;
#X connect 73 0 75 0;
#X connect 75 0 77 1;
#X connect 76 0 75 0;
#X connect 78 0 76 0;
#X connect 78 0 159 0;
#X connect 79 0 105 0;
#X connect 82 0 81 0;
#X connect 84 0 83 0;
#X connect 86 0 85 0;
#X connect 87 0 85 1;
#X connect 89 0 88 0;
#X connect 90 0 88 1;
#X connect 93 0 75 0;
#X connect 94 0 95 0;
#X connect 94 0 93 0;
#X connect 95 0 77 0;
#X connect 96 0 4 0;
#X connect 98 0 101 0;
#X connect 101 0 102 0;
#X connect 101 0 104 0;
#X connect 102 0 101 1;
#X connect 103 0 99 0;
#X connect 104 0 103 0;
#X connect 106 0 34 0;
#X connect 106 0 87 0;
#X connect 106 0 90 0;
#X connect 106 0 119 0;
#X connect 107 0 106 0;
#X connect 109 0 110 0;
#X connect 110 0 111 0;
#X connect 111 0 114 0;
#X connect 114 0 112 0;
#X connect 114 0 115 0;
#X connect 114 1 113 0;
#X connect 114 1 116 0;
#X connect 117 0 9 1;
#X connect 119 0 118 1;
#X connect 120 0 118 0;
#X connect 121 0 118 2;
#X connect 122 0 121 0;
#X connect 123 0 13 0;
#X connect 124 0 12 0;
#X connect 125 0 126 0;
#X connect 127 0 126 3;
#X connect 128 0 126 2;
#X connect 129 0 126 1;
#X connect 134 0 135 0;
#X connect 135 0 138 0;
#X connect 139 0 141 0;
#X connect 140 0 139 0;
#X connect 143 0 9 0;
#X connect 144 0 146 0;
#X connect 144 0 200 0;
#X connect 145 0 212 0;
#X connect 146 0 144 1;
#X connect 147 0 144 0;
#X connect 148 0 10 0;
#X connect 148 0 134 0;
#X connect 148 0 140 0;
#X connect 149 0 14 0;
#X connect 149 1 15 0;
#X connect 149 2 16 0;
#X connect 149 3 17 0;
#X connect 149 4 18 0;
#X connect 149 5 19 0;
#X connect 149 6 20 0;
#X connect 149 7 21 0;
#X connect 149 8 22 0;
#X connect 149 9 23 0;
#X connect 149 10 24 0;
#X connect 149 11 64 0;
#X connect 149 12 65 0;
#X connect 149 13 66 0;
#X connect 149 14 67 0;
#X connect 149 15 68 0;
#X connect 149 16 150 0;
#X connect 149 17 151 0;
#X connect 149 18 152 0;
#X connect 149 19 153 0;
#X connect 149 20 154 0;
#X connect 149 21 155 0;
#X connect 149 22 156 0;
#X connect 149 23 157 0;
#X connect 149 24 160 0;
#X connect 149 25 161 0;
#X connect 149 26 162 0;
#X connect 149 27 163 0;
#X connect 149 28 164 0;
#X connect 149 29 165 0;
#X connect 149 30 166 0;
#X connect 149 31 167 0;
#X connect 149 32 168 0;
#X connect 149 33 169 0;
#X connect 149 34 170 0;
#X connect 149 35 171 0;
#X connect 149 36 172 0;
#X connect 149 37 173 0;
#X connect 149 38 174 0;
#X connect 149 39 175 0;
#X connect 149 40 176 0;
#X connect 149 41 177 0;
#X connect 149 42 178 0;
#X connect 149 43 179 0;
#X connect 149 44 180 0;
#X connect 149 45 181 0;
#X connect 149 46 182 0;
#X connect 149 47 183 0;
#X connect 149 48 184 0;
#X connect 149 49 185 0;
#X connect 149 50 186 0;
#X connect 149 51 187 0;
#X connect 149 52 188 0;
#X connect 149 53 189 0;
#X connect 149 54 190 0;
#X connect 149 55 191 0;
#X connect 149 56 192 0;
#X connect 149 57 193 0;
#X connect 149 58 194 0;
#X connect 149 59 195 0;
#X connect 149 60 196 0;
#X connect 149 61 197 0;
#X connect 149 62 198 0;
#X connect 149 63 199 0;
#X connect 158 0 73 0;
#X connect 159 0 77 0;
#X connect 200 0 145 0;
#X connect 201 0 209 0;
#X connect 202 0 209 3;
#X connect 203 0 209 2;
#X connect 204 0 209 1;
#X connect 211 0 11 0;
#X connect 213 0 214 0;
#X connect 214 0 216 0;
#X connect 214 1 217 0;
#X connect 214 2 218 0;
#X connect 214 3 219 0;
#X connect 214 4 220 0;
#X connect 214 5 221 0;
#X connect 214 6 222 0;
#X connect 214 7 223 0;
#X connect 214 8 224 0;
#X connect 214 9 225 0;
#X connect 214 10 226 0;
#X connect 214 11 227 0;
#X connect 214 12 228 0;
#X connect 214 13 229 0;
#X connect 214 14 230 0;
#X connect 214 15 231 0;
#X connect 214 16 232 0;
#X connect 214 17 233 0;
#X connect 214 18 234 0;
#X connect 214 19 235 0;
#X connect 214 20 236 0;
#X connect 214 21 237 0;
#X connect 214 22 238 0;
#X connect 214 23 239 0;
#X connect 214 24 240 0;
#X connect 214 25 241 0;
#X connect 214 26 242 0;
#X connect 214 27 243 0;
#X connect 214 28 244 0;
#X connect 214 29 245 0;
#X connect 214 30 246 0;
#X connect 214 31 247 0;
#X connect 214 32 248 0;
#X connect 214 33 249 0;
#X connect 214 34 250 0;
#X connect 214 35 251 0;
#X connect 214 36 252 0;
#X connect 214 37 253 0;
#X connect 214 38 254 0;
#X connect 214 39 255 0;
#X connect 214 40 256 0;
#X connect 214 41 257 0;
#X connect 214 42 258 0;
#X connect 214 43 259 0;
#X connect 214 44 260 0;
#X connect 214 45 261 0;
#X connect 214 46 262 0;
#X connect 214 47 263 0;
#X connect 214 48 264 0;
#X connect 214 49 265 0;
#X connect 214 50 266 0;
#X connect 214 51 267 0;
#X connect 214 52 268 0;
#X connect 214 53 269 0;
#X connect 214 54 270 0;
#X connect 214 55 271 0;
#X connect 214 56 272 0;
#X connect 214 57 273 0;
#X connect 214 58 274 0;
#X connect 214 59 275 0;
#X connect 214 60 276 0;
#X connect 214 61 277 0;
#X connect 214 62 278 0;
#X connect 214 63 279 0;
#X connect 215 0 213 0;
