#N canvas 131 166 520 337 12;
#X obj 219 78 bng 15 250 50 0 empty empty empty 17 7 0 10 #fcfcfc #000000
#000000;
#X obj 220 43 inlet;
#X obj 280 204 noise~;
#X obj 227 150 vline~;
#X obj 172 224 *~;
#X obj 164 275 outlet~;
#X obj 304 158 inlet;
#X obj 229 176 pow~;
#X msg 227 126 0.5 0 \, 0.14 10 20 \, 0 5 20;
#X obj 35 61 osc~;
#X floatatom 35 33 5 0 0 0 - - - 0;
#X obj 127 150 vline~;
#X obj 120 185 *~;
#X msg 117 102 0.7 0 \, 0.14 5 5 \, 0 5 40;
#X connect 0 0 8 0;
#X connect 0 0 13 0;
#X connect 1 0 0 0;
#X connect 2 0 4 0;
#X connect 3 0 7 0;
#X connect 4 0 5 0;
#X connect 6 0 7 1;
#X connect 7 0 4 1;
#X connect 8 0 3 0;
#X connect 9 0 12 0;
#X connect 10 0 9 0;
#X connect 11 0 12 1;
#X connect 12 0 4 0;
#X connect 13 0 11 0;
