#N canvas 131 166 520 337 12;
#X obj 219 78 bng 15 250 50 0 empty empty empty 17 7 0 10 #fcfcfc #000000
#000000;
#X obj 220 43 inlet;
#X obj 308 186 noise~;
#X obj 227 150 vline~;
#X obj 173 217 *~;
#X obj 164 275 outlet~;
#X obj 304 158 inlet;
#X obj 229 176 pow~;
#X obj 35 61 osc~;
#X floatatom 35 33 5 0 0 0 - - - 0;
#X obj 127 150 vline~;
#X obj 120 185 *~;
#X obj 176 247 vcf~;
#X msg 117 102 0.7 0 \, 0.24 5 100 \, 0 30 100;
#X msg 227 126 0.8 0 \, 0.24 2 60 \, 0 5 90;
#X connect 0 0 14 0;
#X connect 0 0 13 0;
#X connect 1 0 0 0;
#X connect 2 0 4 0;
#X connect 3 0 7 0;
#X connect 4 0 12 0;
#X connect 6 0 7 1;
#X connect 7 0 4 1;
#X connect 7 0 12 1;
#X connect 8 0 11 0;
#X connect 9 0 8 0;
#X connect 10 0 11 1;
#X connect 11 0 4 0;
#X connect 12 0 5 0;
#X connect 13 0 10 0;
#X connect 14 0 3 0;
